<svg width="5009" height="3506" viewBox="0 0 5009 3506" fill="none" xmlns="http://www.w3.org/2000/svg">
<g clip-path="url(#clip0_102_182)">
<path d="M5009 0.357666H0V3506.36H5009V0.357666Z" fill="url(#paint0_linear_102_182)"/>
<path fill-rule="evenodd" clip-rule="evenodd" d="M1743.49 0.357755C1863.71 0.357755 1476.58 288.708 1451.89 471.879C1435.44 594.947 1602.52 675.799 1637.59 794.932C1691.61 979.891 1690.54 1181.31 1563.17 1277.19C1467.64 1349.45 1321.66 1333.71 1229.35 1409.55C1133.11 1488.98 1116.65 1639.59 1022.55 1722.23C936.325 1797.72 796.431 1790.21 709.847 1865.33C594.282 1965.15 643.299 2194.11 434.352 2230.96C251.166 2263.16 154.563 2606.96 0 2437.39V2707.49C176.746 2718.94 256.89 2430.59 423.618 2352.6C567.448 2285.34 822.192 2389.09 895.18 2288.92C981.406 2170.5 793.211 1951.55 847.594 1883.58C954.572 1749.42 1208.24 1893.24 1308.78 1769.81C1360.3 1706.49 1272.29 1583.42 1308.78 1510.08C1385.7 1355.18 1644.74 1528.33 1902.35 1414.56C2036.87 1355.53 2235.45 1626.35 2331.69 1515.09C2435.45 1395.6 2217.2 1212.43 2215.05 1053.95C2213.26 927.301 2224 770.247 2320.96 688.321C2445.11 583.856 2684.82 687.963 2792.52 566.684C2879.46 468.659 2717.74 291.213 2776.77 174.584C2829.37 70.8355 2978.21 57.2408 3078.75 0C2919.89 0 2760.67 0 2601.82 0C2496.63 70.4778 2630.44 199.27 2564.61 254.006C2492.69 314.109 2371.4 231.468 2283.75 264.739C2125.96 324.484 2002.88 517.672 1838.66 555.951C1751.72 576.343 1699.48 451.129 1769.97 391.742C1842.24 330.566 1941.35 298.01 1997.88 222.166C2044.03 160.99 2040.45 75.4863 2061.56 0.357755C1955.66 0.357755 1849.39 0.357755 1743.49 0.357755ZM2148.86 1266.45C2182.49 1248.21 2230.44 1270.39 2255.84 1316.54C2281.24 1362.69 2274.44 1415.28 2240.81 1433.52C2207.18 1452.13 2159.24 1429.59 2133.83 1383.44C2108.43 1337.29 2115.23 1284.7 2148.86 1266.45ZM797.147 1996.99C782.12 1988.76 760.652 1998.78 749.203 2019.53C737.754 2040.28 740.974 2063.89 756.001 2072.12C771.028 2080.35 792.495 2070.33 803.945 2049.58C815.394 2028.83 812.174 2005.22 797.147 1996.99ZM844.017 2144.74C817.183 2130.07 779.257 2147.96 759.221 2184.45C739.185 2220.94 744.552 2262.44 771.386 2277.11C798.22 2291.78 836.145 2273.89 856.181 2237.4C875.859 2200.91 870.493 2159.41 844.017 2144.74ZM2160.31 517.314C2135.62 503.719 2100.56 520.176 2081.96 554.163C2063.35 588.149 2068.36 626.787 2093.05 640.024C2117.73 653.619 2152.8 637.162 2171.4 603.175C2190.36 569.546 2185.36 530.909 2160.31 517.314ZM1249.75 1644.96C1225.06 1631.36 1190 1647.82 1171.39 1681.81C1152.79 1715.79 1157.79 1754.07 1182.48 1767.67C1207.17 1781.26 1242.23 1764.81 1260.84 1730.82C1279.44 1697.19 1274.43 1658.55 1249.75 1644.96ZM2118.81 1110.83C2134.19 1102.6 2155.66 1112.62 2167.11 1133.73C2178.56 1154.48 2175.34 1178.45 2160.31 1186.67C2144.93 1194.9 2123.46 1184.88 2112.01 1163.78C2100.56 1143.03 2103.78 1119.06 2118.81 1110.83Z" fill="url(#paint1_linear_102_182)"/>
<path fill-rule="evenodd" clip-rule="evenodd" d="M2217.56 3506.36C2378.2 3440.17 2351.73 3220.87 2456.2 3058.09C2605.04 2825.19 2950.66 3014.09 3129.19 2856.32C3335.64 2673.86 3569.99 3026.25 3770.35 3020.53C4043.69 3012.3 3880.54 2145.82 4332.78 2246.7C4550.68 2295.36 4725.99 1858.18 5009 1912.92V3506.36H2217.56Z" fill="url(#paint2_linear_102_182)"/>
<path fill-rule="evenodd" clip-rule="evenodd" d="M0 1703.63C66.1904 1543 72.6305 1341.22 198.571 1221.38C398.931 1030.69 843.301 1205.28 1025.41 1051.8C1106.99 983.111 985.342 824.268 1131.32 749.855C1223.63 702.989 1088.74 530.193 1088.74 442.543C1089.82 219.304 1424.7 145.964 1592.5 0.357666H0V1703.63Z" fill="url(#paint3_linear_102_182)"/>
<path fill-rule="evenodd" clip-rule="evenodd" d="M873.256 893.508C886.136 893.508 896.512 883.133 896.512 870.254C896.512 857.375 886.136 847 873.256 847C860.376 847 850 857.375 850 870.254C850 883.133 860.376 893.508 873.256 893.508Z" fill="white"/>
<path fill-rule="evenodd" clip-rule="evenodd" d="M680.151 1299.01C693.031 1299.01 703.407 1288.63 703.407 1275.75C703.407 1262.88 693.031 1252.5 680.151 1252.5C667.27 1252.5 656.895 1262.88 656.895 1275.75C656.895 1288.63 667.628 1299.01 680.151 1299.01Z" fill="white"/>
<path fill-rule="evenodd" clip-rule="evenodd" d="M3812.26 1799.51C3825.14 1799.51 3835.51 1789.13 3835.51 1776.25C3835.51 1763.37 3825.14 1753 3812.26 1753C3799.38 1753 3789 1763.37 3789 1776.25C3789 1789.13 3799.73 1799.51 3812.26 1799.51Z" fill="white"/>
<path fill-rule="evenodd" clip-rule="evenodd" d="M4027.26 1161.51C4040.14 1161.51 4050.51 1151.13 4050.51 1138.25C4050.51 1125.37 4040.14 1115 4027.26 1115C4014.38 1115 4004 1125.37 4004 1138.25C4004.36 1151.13 4014.73 1161.51 4027.26 1161.51Z" fill="white"/>
<path fill-rule="evenodd" clip-rule="evenodd" d="M231 1650.01C243.88 1650.01 254.256 1639.63 254.256 1626.75C254.256 1613.87 243.88 1603.5 231 1603.5C218.119 1603.5 207.744 1613.87 207.744 1626.75C208.101 1639.63 218.477 1650.01 231 1650.01Z" fill="white"/>
<path fill-rule="evenodd" clip-rule="evenodd" d="M1033.29 1878.57C1039.73 1878.57 1045.09 1873.56 1045.09 1867.12C1045.09 1860.68 1039.73 1855.32 1033.29 1855.32C1026.85 1855.32 1021.84 1860.68 1021.84 1867.12C1021.48 1873.21 1026.85 1878.57 1033.29 1878.57Z" fill="white"/>
<path fill-rule="evenodd" clip-rule="evenodd" d="M284.44 454.349C290.88 454.349 295.889 449.34 295.889 442.901C295.889 436.461 290.88 431.095 284.44 431.095C278 431.095 272.633 436.461 272.633 442.901C272.633 449.34 278 454.349 284.44 454.349Z" fill="white"/>
<path fill-rule="evenodd" clip-rule="evenodd" d="M1669.07 248.997C1675.51 248.997 1680.88 243.631 1680.88 237.192C1680.88 230.752 1675.51 225.743 1669.07 225.743C1662.63 225.743 1657.62 230.752 1657.62 237.192C1657.62 243.989 1662.99 248.997 1669.07 248.997Z" fill="white"/>
<path fill-rule="evenodd" clip-rule="evenodd" d="M1496.98 692.972C1503.42 692.972 1508.78 687.963 1508.78 681.524C1508.78 675.084 1503.42 669.718 1496.98 669.718C1490.54 669.718 1485.53 675.084 1485.53 681.524C1485.53 687.963 1490.54 692.972 1496.98 692.972Z" fill="white"/>
<path fill-rule="evenodd" clip-rule="evenodd" d="M2941.36 269.032C2947.8 269.032 2953.16 263.666 2953.16 257.226C2953.16 250.786 2947.8 245.778 2941.36 245.778C2934.92 245.778 2929.91 250.786 2929.91 257.226C2929.91 263.666 2934.92 269.032 2941.36 269.032Z" fill="white"/>
<path fill-rule="evenodd" clip-rule="evenodd" d="M1888.04 1607.04C1894.48 1607.04 1899.48 1601.67 1899.48 1595.23C1899.48 1588.79 1894.48 1583.78 1888.04 1583.78C1881.6 1583.78 1876.23 1588.79 1876.23 1595.23C1876.23 1601.67 1881.6 1607.04 1888.04 1607.04Z" fill="white"/>
<path fill-rule="evenodd" clip-rule="evenodd" d="M191.773 2282.48C198.213 2282.48 203.222 2277.47 203.222 2271.03C203.222 2264.59 198.213 2259.22 191.773 2259.22C185.333 2259.22 179.966 2264.59 179.966 2271.03C179.966 2277.47 185.333 2282.48 191.773 2282.48Z" fill="white"/>
<path fill-rule="evenodd" clip-rule="evenodd" d="M3694.81 3052.25C3701.25 3052.25 3706.26 3047.25 3706.26 3040.81C3706.26 3034.37 3701.25 3029 3694.81 3029C3688.37 3029 3683 3034.37 3683 3040.81C3683.36 3046.89 3688.72 3052.25 3694.81 3052.25Z" fill="white"/>
<path fill-rule="evenodd" clip-rule="evenodd" d="M685.725 1919.45C688.945 1919.45 691.449 1916.94 691.449 1913.72C691.449 1910.5 688.945 1908 685.725 1908C682.505 1908 680 1910.5 680 1913.72C680 1916.94 682.505 1919.45 685.725 1919.45Z" fill="white"/>
<path fill-rule="evenodd" clip-rule="evenodd" d="M3868.72 1979.45C3871.94 1979.45 3874.45 1976.94 3874.45 1973.72C3874.45 1970.5 3871.94 1968 3868.72 1968C3865.5 1968 3863 1970.5 3863 1973.72C3863 1976.94 3865.5 1979.45 3868.72 1979.45Z" fill="white"/>
<path fill-rule="evenodd" clip-rule="evenodd" d="M1284.81 2103.6C1288.03 2103.6 1290.53 2101.1 1290.53 2097.88C1290.53 2094.66 1288.03 2092.15 1284.81 2092.15C1281.59 2092.15 1279.08 2094.66 1279.08 2097.88C1279.08 2101.1 1281.95 2103.6 1284.81 2103.6Z" fill="white"/>
<path fill-rule="evenodd" clip-rule="evenodd" d="M867.63 1414.92C870.85 1414.92 873.355 1412.42 873.355 1409.2C873.355 1405.98 870.85 1403.47 867.63 1403.47C864.41 1403.47 861.906 1405.98 861.906 1409.2C861.906 1412.42 864.41 1414.92 867.63 1414.92Z" fill="white"/>
<path fill-rule="evenodd" clip-rule="evenodd" d="M278 1335.14C281.22 1335.14 283.724 1332.64 283.724 1329.42C283.724 1326.2 281.22 1323.69 278 1323.69C274.779 1323.69 272.275 1326.2 272.275 1329.42C271.917 1332.64 274.779 1335.14 278 1335.14Z" fill="white"/>
<path fill-rule="evenodd" clip-rule="evenodd" d="M1781.77 1103.67C1784.99 1103.67 1787.5 1101.17 1787.5 1097.95C1787.5 1094.73 1784.99 1092.23 1781.77 1092.23C1778.55 1092.23 1776.05 1094.73 1776.05 1097.95C1776.05 1100.81 1778.55 1103.67 1781.77 1103.67Z" fill="white"/>
<path fill-rule="evenodd" clip-rule="evenodd" d="M3540.72 1528.45C3543.94 1528.45 3546.45 1525.94 3546.45 1522.72C3546.45 1519.5 3543.94 1517 3540.72 1517C3537.5 1517 3535 1519.5 3535 1522.72C3535 1525.59 3537.5 1528.45 3540.72 1528.45Z" fill="white"/>
<path fill-rule="evenodd" clip-rule="evenodd" d="M1907.71 156.339C1910.93 156.339 1913.44 153.835 1913.44 150.615C1913.44 147.395 1910.93 144.891 1907.71 144.891C1904.49 144.891 1901.99 147.395 1901.99 150.615C1901.99 153.835 1904.49 156.339 1907.71 156.339Z" fill="white"/>
<path fill-rule="evenodd" clip-rule="evenodd" d="M3345.65 2209.5C3348.87 2209.5 3351.38 2206.99 3351.38 2203.77C3351.38 2200.55 3348.87 2198.05 3345.65 2198.05C3342.43 2198.05 3339.93 2200.55 3339.93 2203.77C3339.93 2206.99 3342.43 2209.5 3345.65 2209.5Z" fill="white"/>
<path fill-rule="evenodd" clip-rule="evenodd" d="M350.63 189.61C353.85 189.61 356.355 187.106 356.355 183.886C356.355 180.666 353.85 178.162 350.63 178.162C347.41 178.162 344.906 180.666 344.906 183.886C344.906 186.748 347.41 189.61 350.63 189.61Z" fill="white"/>
<path fill-rule="evenodd" clip-rule="evenodd" d="M3869.72 1403.45C3872.94 1403.45 3875.45 1400.94 3875.45 1397.72C3875.45 1394.5 3872.94 1392 3869.72 1392C3866.5 1392 3864 1394.5 3864 1397.72C3864 1400.94 3866.5 1403.45 3869.72 1403.45Z" fill="white"/>
<path fill-rule="evenodd" clip-rule="evenodd" d="M1296.72 1449.45C1299.94 1449.45 1302.45 1446.94 1302.45 1443.72C1302.45 1440.5 1299.94 1438 1296.72 1438C1293.5 1438 1291 1440.5 1291 1443.72C1291 1446.94 1293.5 1449.45 1296.72 1449.45Z" fill="white"/>
<path fill-rule="evenodd" clip-rule="evenodd" d="M3621.86 1082.57C3625.08 1082.57 3627.59 1080.06 3627.59 1076.84C3627.59 1073.62 3625.08 1071.12 3621.86 1071.12C3618.64 1071.12 3616.14 1073.62 3616.14 1076.84C3616.14 1079.7 3619 1082.57 3621.86 1082.57Z" fill="white"/>
<path fill-rule="evenodd" clip-rule="evenodd" d="M1097.69 1161.99C1100.91 1161.99 1103.41 1159.48 1103.41 1156.26C1103.41 1153.04 1100.91 1150.54 1097.69 1150.54C1094.47 1150.54 1091.96 1153.04 1091.96 1156.26C1091.6 1159.48 1094.47 1161.99 1097.69 1161.99Z" fill="white"/>
<path fill-rule="evenodd" clip-rule="evenodd" d="M753.139 2917.14C756.359 2917.14 758.864 2914.63 758.864 2911.41C758.864 2908.19 756.359 2905.69 753.139 2905.69C749.919 2905.69 747.415 2908.19 747.415 2911.41C747.415 2914.63 749.919 2917.14 753.139 2917.14Z" fill="white"/>
<path fill-rule="evenodd" clip-rule="evenodd" d="M1839.73 3281.33C1842.95 3281.33 1845.46 3278.83 1845.46 3275.61C1845.46 3272.39 1842.95 3269.88 1839.73 3269.88C1836.51 3269.88 1834.01 3272.39 1834.01 3275.61C1834.01 3278.83 1836.51 3281.33 1839.73 3281.33Z" fill="white"/>
<path fill-rule="evenodd" clip-rule="evenodd" d="M3933.5 2917.14C3936.72 2917.14 3939.22 2914.63 3939.22 2911.41C3939.22 2908.19 3936.72 2905.69 3933.5 2905.69C3930.28 2905.69 3927.77 2908.19 3927.77 2911.41C3927.77 2914.63 3930.28 2917.14 3933.5 2917.14Z" fill="white"/>
<path fill-rule="evenodd" clip-rule="evenodd" d="M289.807 3052.61C296.247 3052.61 301.256 3047.25 301.256 3040.81C301.256 3034.37 296.247 3029 289.807 3029C283.367 3029 278 3034.37 278 3040.81C278 3047.6 283.367 3052.61 289.807 3052.61Z" fill="white"/>
<path fill-rule="evenodd" clip-rule="evenodd" d="M3384.3 3146.46C3390.74 3146.46 3395.74 3141.09 3395.74 3134.65C3395.74 3128.21 3390.74 3123.2 3384.3 3123.2C3377.86 3123.2 3372.49 3128.21 3372.49 3134.65C3372.85 3141.09 3377.86 3146.46 3384.3 3146.46Z" fill="white"/>
<path fill-rule="evenodd" clip-rule="evenodd" d="M3874.46 2550.44C3880.9 2550.44 3886.27 2545.43 3886.27 2538.99C3886.27 2532.55 3880.9 2527.18 3874.46 2527.18C3868.02 2527.18 3863.01 2532.55 3863.01 2538.99C3863.01 2545.07 3868.02 2550.44 3874.46 2550.44Z" fill="white"/>
<path fill-rule="evenodd" clip-rule="evenodd" d="M4623.31 2782.26C4629.75 2782.26 4635.11 2777.25 4635.11 2770.81C4635.11 2764.37 4629.75 2759.01 4623.31 2759.01C4616.87 2759.01 4611.5 2764.37 4611.5 2770.81C4611.5 2776.9 4616.87 2782.26 4623.31 2782.26Z" fill="white"/>
<path fill-rule="evenodd" clip-rule="evenodd" d="M3212.2 1894.67C3218.64 1894.67 3223.65 1889.3 3223.65 1882.87C3223.65 1876.43 3218.64 1871.06 3212.2 1871.06C3205.76 1871.06 3200.39 1876.43 3200.39 1882.87C3200.39 1889.3 3205.76 1894.67 3212.2 1894.67Z" fill="white"/>
<path fill-rule="evenodd" clip-rule="evenodd" d="M4391.46 1371.28C4397.9 1371.28 4403.27 1366.27 4403.27 1359.83C4403.27 1353.39 4397.9 1348.02 4391.46 1348.02C4385.02 1348.02 4379.65 1353.39 4379.65 1359.83C4379.65 1366.27 4385.02 1371.28 4391.46 1371.28Z" fill="white"/>
<path fill-rule="evenodd" clip-rule="evenodd" d="M3777.45 669.612C3783.89 669.612 3789.26 664.246 3789.26 657.806C3789.26 651.366 3783.89 646 3777.45 646C3771.01 646 3766 651.366 3766 657.806C3766 664.246 3771.01 669.612 3777.45 669.612Z" fill="white"/>
<path fill-rule="evenodd" clip-rule="evenodd" d="M1469.43 1046.79C1475.87 1046.79 1480.88 1041.78 1480.88 1035.34C1480.88 1028.9 1475.87 1023.54 1469.43 1023.54C1462.99 1023.54 1457.62 1028.9 1457.62 1035.34C1457.62 1041.78 1462.99 1046.79 1469.43 1046.79Z" fill="white"/>
<path fill-rule="evenodd" clip-rule="evenodd" d="M2542.78 3206.2C2549.22 3206.2 2554.59 3200.83 2554.59 3194.4C2554.59 3187.96 2549.22 3182.95 2542.78 3182.95C2536.34 3182.95 2531.33 3187.96 2531.33 3194.4C2531.33 3200.83 2536.34 3206.2 2542.78 3206.2Z" fill="white"/>
<path fill-rule="evenodd" clip-rule="evenodd" d="M4679.48 3206.2C4692.36 3206.2 4702.74 3195.83 4702.74 3182.95C4702.74 3170.07 4692.36 3159.69 4679.48 3159.69C4666.6 3159.69 4656.22 3170.07 4656.22 3182.95C4656.58 3195.83 4666.96 3206.2 4679.48 3206.2Z" fill="white"/>
<path fill-rule="evenodd" clip-rule="evenodd" d="M4349.24 1444.25C4362.12 1444.25 4372.5 1433.88 4372.5 1421C4372.5 1408.12 4362.12 1397.75 4349.24 1397.75C4336.36 1397.75 4325.99 1408.12 4325.99 1421C4325.99 1433.88 4336.36 1444.25 4349.24 1444.25Z" fill="white"/>
<path fill-rule="evenodd" clip-rule="evenodd" d="M1045.26 1727.51C1058.14 1727.51 1068.51 1717.13 1068.51 1704.25C1068.51 1691.37 1058.14 1681 1045.26 1681C1032.38 1681 1022 1691.37 1022 1704.25C1022 1717.13 1032.38 1727.51 1045.26 1727.51Z" fill="white"/>
<path fill-rule="evenodd" clip-rule="evenodd" d="M353.134 2093.22C366.015 2093.22 376.391 2082.85 376.391 2069.97C376.391 2057.09 366.015 2046.72 353.134 2046.72C340.254 2046.72 329.878 2057.09 329.878 2069.97C329.878 2082.85 340.254 2093.22 353.134 2093.22Z" fill="white"/>
<path fill-rule="evenodd" clip-rule="evenodd" d="M4822.24 3361.39C4825.46 3361.39 4827.96 3358.89 4827.96 3355.67C4827.96 3352.45 4825.46 3349.95 4822.24 3349.95C4819.02 3349.95 4816.51 3352.45 4816.51 3355.67C4816.15 3358.89 4819.02 3361.39 4822.24 3361.39Z" fill="white"/>
<path fill-rule="evenodd" clip-rule="evenodd" d="M366.372 2644.17C326.3 2662.06 303.044 2504.65 276.568 2508.22C249.376 2511.44 241.147 2747.2 306.622 2847.02C376.748 2954.34 597.86 2999.06 613.602 2979.03C630.061 2958.28 490.882 2926.8 496.964 2892.45C503.047 2856.32 653.674 2864.19 657.252 2834.85C659.399 2816.25 577.108 2822.69 571.741 2777.26C563.155 2705.7 1197.15 2334.71 1180.34 2304.66C1159.58 2268.53 527.734 2694.61 494.46 2629.14C475.139 2590.51 483.368 2538.27 464.763 2537.2C447.948 2536.49 412.885 2623.42 366.372 2644.17ZM1275.51 2251C1292.32 2276.04 1739.2 1998.78 1720.95 1969.44C1709.5 1950.48 1252.97 2217.37 1275.51 2251Z" fill="url(#paint4_linear_102_182)"/>
<path fill-rule="evenodd" clip-rule="evenodd" d="M378.537 2727.17C399.647 2721.09 473.708 2748.63 473.708 2785.13C473.708 2821.62 415.031 2859.54 378.537 2859.54C342.043 2859.54 294.815 2823.05 312.347 2793.35C329.878 2763.66 357.786 2733.25 378.537 2727.17Z" fill="url(#paint5_linear_102_182)"/>
<path fill-rule="evenodd" clip-rule="evenodd" d="M369.95 2799.08C390.702 2799.08 415.747 2789.78 415.747 2810.53C415.747 2831.28 386.05 2846.3 365.299 2846.3C344.547 2846.3 327.731 2829.49 327.731 2808.74C327.731 2787.99 348.841 2799.08 369.95 2799.08ZM403.94 2781.55C415.031 2781.55 428.269 2786.56 428.269 2775.47C428.269 2764.38 412.527 2756.51 401.435 2756.51C390.344 2756.51 381.399 2765.45 381.399 2776.54C381.399 2787.27 393.206 2781.55 403.94 2781.55Z" fill="url(#paint6_linear_102_182)"/>
</g>
<defs>
<linearGradient id="paint0_linear_102_182" x1="2504.5" y1="3506.36" x2="2504.5" y2="0.357666" gradientUnits="userSpaceOnUse">
<stop stop-color="#BA2BA0"/>
<stop offset="1" stop-color="#470B96"/>
</linearGradient>
<linearGradient id="paint1_linear_102_182" x1="1539.6" y1="2708.1" x2="1539.6" y2="0.357649" gradientUnits="userSpaceOnUse">
<stop stop-color="#BA2BA0"/>
<stop offset="1" stop-color="#470B96"/>
</linearGradient>
<linearGradient id="paint2_linear_102_182" x1="3613.31" y1="3506.36" x2="3613.31" y2="1908.08" gradientUnits="userSpaceOnUse">
<stop stop-color="#BA2BA0"/>
<stop offset="1" stop-color="#470B96"/>
</linearGradient>
<linearGradient id="paint3_linear_102_182" x1="796.23" y1="1703.67" x2="796.23" y2="0.357666" gradientUnits="userSpaceOnUse">
<stop stop-color="#BA2BA0"/>
<stop offset="1" stop-color="#470B96"/>
</linearGradient>
<linearGradient id="paint4_linear_102_182" x1="989.149" y1="2983.78" x2="989.149" y2="1968.57" gradientUnits="userSpaceOnUse">
<stop stop-color="#FFB977"/>
<stop offset="1" stop-color="#8C22F7"/>
</linearGradient>
<linearGradient id="paint5_linear_102_182" x1="391.317" y1="2859.47" x2="391.317" y2="2726.15" gradientUnits="userSpaceOnUse">
<stop stop-color="#FF7C58"/>
<stop offset="1" stop-color="#720BDA"/>
</linearGradient>
<linearGradient id="paint6_linear_102_182" x1="377.866" y1="2846.07" x2="377.866" y2="2756.45" gradientUnits="userSpaceOnUse">
<stop stop-color="#FF4998"/>
<stop offset="1" stop-color="#5600AC"/>
</linearGradient>
<clipPath id="clip0_102_182">
<rect width="5009" height="3506" fill="white"/>
</clipPath>
</defs>
</svg>
