<svg width="1402" height="1080" viewBox="0 0 1402 1080" fill="none" xmlns="http://www.w3.org/2000/svg">
<path fill-rule="evenodd" clip-rule="evenodd" d="M856.708 525.9C868.515 536.275 800.178 632.153 703.934 740.195C607.69 848.237 520.39 927.301 508.583 916.569C496.776 906.194 565.113 810.315 661.358 702.273C757.244 594.589 844.902 515.525 856.708 525.9Z" fill="url(#paint0_linear_102_475)"/>
<path fill-rule="evenodd" clip-rule="evenodd" d="M936.853 637.52C942.22 642.17 911.45 685.459 867.8 734.471C824.508 783.126 784.794 818.901 779.785 814.251C774.418 809.6 805.188 765.954 848.838 717.299C892.13 668.286 931.486 632.869 936.853 637.52Z" fill="url(#paint1_linear_102_475)"/>
<path fill-rule="evenodd" clip-rule="evenodd" d="M1048.48 387.449C1052.06 390.668 1030.59 421.078 1000.18 455.064C969.769 489.409 942.22 514.094 938.284 510.874C934.706 507.654 956.173 477.245 986.585 443.258C1017 408.914 1044.55 383.871 1048.48 387.449Z" fill="url(#paint2_linear_102_475)"/>
<path fill-rule="evenodd" clip-rule="evenodd" d="M1259.93 363.121C1267.8 369.919 1222.37 433.241 1159.04 504.435C1095.71 575.628 1038.11 627.86 1030.24 621.063C1022.36 614.265 1067.8 550.943 1131.13 479.749C1194.46 408.556 1252.06 356.324 1259.93 363.121Z" fill="url(#paint3_linear_102_475)"/>
<path fill-rule="evenodd" clip-rule="evenodd" d="M678.531 535.559C681.393 538.064 663.862 563.106 639.175 590.654C614.488 618.558 591.947 638.951 588.727 636.088C585.865 633.584 603.396 608.541 628.083 580.636C652.771 553.089 675.311 532.697 678.531 535.559Z" fill="url(#paint4_linear_102_475)"/>
<path fill-rule="evenodd" clip-rule="evenodd" d="M875.314 279.764C877.103 281.195 867.085 295.148 853.131 310.889C839.177 326.273 826.655 338.078 824.866 336.29C823.077 334.501 833.095 320.906 847.049 305.165C861.36 289.782 873.883 278.333 875.314 279.764Z" fill="url(#paint5_linear_102_475)"/>
<path fill-rule="evenodd" clip-rule="evenodd" d="M1158.32 223.597C1160.11 225.028 1150.09 238.98 1136.14 254.722C1122.19 270.463 1109.66 281.911 1107.87 280.122C1106.09 278.691 1116.1 264.739 1130.06 248.998C1144.01 233.614 1156.53 221.808 1158.32 223.597Z" fill="url(#paint6_linear_102_475)"/>
<path fill-rule="evenodd" clip-rule="evenodd" d="M1017 0.357666C998.392 22.5385 977.64 47.2236 955.815 71.9087C859.571 179.951 772.271 259.015 760.464 248.282C748.657 237.907 816.995 142.029 913.239 33.9866C923.615 22.1807 933.633 8.94379 944.008 0.357666H1017V0.357666Z" fill="url(#paint7_linear_102_475)"/>
<path fill-rule="evenodd" clip-rule="evenodd" d="M483.538 455.78C491.41 462.935 445.971 525.9 382.643 597.093C319.315 668.287 261.711 720.519 253.84 713.721C246.326 706.924 291.407 643.601 354.736 572.408C418.064 501.215 476.025 448.983 483.538 455.78Z" fill="url(#paint8_linear_102_475)"/>
<path fill-rule="evenodd" clip-rule="evenodd" d="M635.239 382.082C638.817 385.302 617.35 415.711 586.938 450.056C556.526 484.043 528.977 509.086 525.041 505.866C521.463 502.646 542.931 472.237 573.342 437.892C603.754 403.906 631.304 378.863 635.239 382.082Z" fill="url(#paint9_linear_102_475)"/>
<path fill-rule="evenodd" clip-rule="evenodd" d="M314.306 731.967C317.884 735.187 296.417 765.596 266.005 799.94C235.951 833.927 208.043 858.97 204.466 855.392C200.888 852.173 222.355 821.764 252.767 787.419C283.178 753.075 310.728 728.747 314.306 731.967Z" fill="url(#paint10_linear_102_475)"/>
<path fill-rule="evenodd" clip-rule="evenodd" d="M158.669 630.007C164.036 634.658 133.266 677.946 89.6162 726.601C46.3241 775.255 6.60987 811.031 1.24308 806.38C-4.1237 801.729 27.0037 758.083 70.2957 709.428C113.946 660.774 153.302 625.356 158.669 630.007Z" fill="url(#paint11_linear_102_475)"/>
<path fill-rule="evenodd" clip-rule="evenodd" d="M521.822 198.196C527.188 202.847 496.061 246.493 452.769 295.148C409.477 343.803 369.763 379.578 364.396 374.927C359.029 370.276 389.799 326.988 433.448 278.333C477.098 228.963 516.455 193.545 521.822 198.196Z" fill="url(#paint12_linear_102_475)"/>
<path fill-rule="evenodd" clip-rule="evenodd" d="M434.164 1023.18C435.953 1024.61 425.935 1038.56 411.981 1053.95C398.028 1069.69 385.505 1081.14 383.716 1079.35C381.927 1077.92 391.945 1063.96 405.899 1048.22C419.852 1033.2 432.375 1021.75 434.164 1023.18Z" fill="url(#paint13_linear_102_475)"/>
<path fill-rule="evenodd" clip-rule="evenodd" d="M662.073 130.223C663.862 132.012 653.844 145.606 639.89 161.348C625.937 177.089 613.414 188.537 611.625 186.748C609.836 185.317 619.854 171.365 633.808 155.623C647.762 140.24 660.642 128.792 662.073 130.223Z" fill="url(#paint14_linear_102_475)"/>
<path fill-rule="evenodd" clip-rule="evenodd" d="M293.912 260.088C295.701 261.519 285.683 275.471 271.729 290.855C257.776 306.596 245.253 318.044 243.464 316.256C241.675 314.824 251.693 300.872 265.647 285.131C279.601 270.105 292.123 258.657 293.912 260.088Z" fill="url(#paint15_linear_102_475)"/>
<path fill-rule="evenodd" clip-rule="evenodd" d="M858.497 1015.31C860.286 1016.74 850.268 1030.69 836.315 1046.43C822.361 1061.82 809.839 1073.62 808.05 1071.83C806.261 1070.05 816.279 1056.45 830.232 1040.71C843.828 1024.97 856.709 1013.88 858.497 1015.31Z" fill="url(#paint16_linear_102_475)"/>
<path fill-rule="evenodd" clip-rule="evenodd" d="M1401.62 119.848C1403.41 121.279 1393.39 135.231 1379.43 150.615C1365.48 166.356 1352.96 177.804 1351.17 176.015C1349.38 174.584 1359.4 160.632 1373.35 145.248C1387.31 129.865 1399.83 118.417 1401.62 119.848Z" fill="url(#paint17_linear_102_475)"/>
<defs>
<linearGradient id="paint0_linear_102_475" x1="682.6" y1="917.809" x2="682.6" y2="525.057" gradientUnits="userSpaceOnUse">
<stop stop-color="#FF4998"/>
<stop offset="1" stop-color="#5600AC"/>
</linearGradient>
<linearGradient id="paint1_linear_102_475" x1="858.156" y1="814.513" x2="858.156" y2="637.073" gradientUnits="userSpaceOnUse">
<stop stop-color="#FF4998"/>
<stop offset="1" stop-color="#5600AC"/>
</linearGradient>
<linearGradient id="paint2_linear_102_475" x1="993.381" y1="511.135" x2="993.381" y2="386.984" gradientUnits="userSpaceOnUse">
<stop stop-color="#FF4998"/>
<stop offset="1" stop-color="#5600AC"/>
</linearGradient>
<linearGradient id="paint3_linear_102_475" x1="1145.06" y1="621.711" x2="1145.06" y2="362.626" gradientUnits="userSpaceOnUse">
<stop stop-color="#FF4998"/>
<stop offset="1" stop-color="#5600AC"/>
</linearGradient>
<linearGradient id="paint4_linear_102_475" x1="633.642" y1="636.621" x2="633.642" y2="535.363" gradientUnits="userSpaceOnUse">
<stop stop-color="#FF4998"/>
<stop offset="1" stop-color="#5600AC"/>
</linearGradient>
<linearGradient id="paint5_linear_102_475" x1="850.381" y1="336.478" x2="850.381" y2="279.638" gradientUnits="userSpaceOnUse">
<stop stop-color="#FF4998"/>
<stop offset="1" stop-color="#5600AC"/>
</linearGradient>
<linearGradient id="paint6_linear_102_475" x1="1133.16" y1="280.154" x2="1133.16" y2="223.314" gradientUnits="userSpaceOnUse">
<stop stop-color="#FF4998"/>
<stop offset="1" stop-color="#5600AC"/>
</linearGradient>
<linearGradient id="paint7_linear_102_475" x1="888.161" y1="249.439" x2="888.161" y2="0.357666" gradientUnits="userSpaceOnUse">
<stop stop-color="#FF4998"/>
<stop offset="1" stop-color="#5600AC"/>
</linearGradient>
<linearGradient id="paint8_linear_102_475" x1="368.9" y1="714.335" x2="368.9" y2="455.146" gradientUnits="userSpaceOnUse">
<stop stop-color="#FF4998"/>
<stop offset="1" stop-color="#5600AC"/>
</linearGradient>
<linearGradient id="paint9_linear_102_475" x1="580.116" y1="506.107" x2="580.116" y2="381.872" gradientUnits="userSpaceOnUse">
<stop stop-color="#FF4998"/>
<stop offset="1" stop-color="#5600AC"/>
</linearGradient>
<linearGradient id="paint10_linear_102_475" x1="259.405" y1="855.824" x2="259.405" y2="731.589" gradientUnits="userSpaceOnUse">
<stop stop-color="#FF4998"/>
<stop offset="1" stop-color="#5600AC"/>
</linearGradient>
<linearGradient id="paint11_linear_102_475" x1="80.0307" y1="807.004" x2="80.0307" y2="629.563" gradientUnits="userSpaceOnUse">
<stop stop-color="#FF4998"/>
<stop offset="1" stop-color="#5600AC"/>
</linearGradient>
<linearGradient id="paint12_linear_102_475" x1="443.136" y1="375.073" x2="443.136" y2="197.632" gradientUnits="userSpaceOnUse">
<stop stop-color="#FF4998"/>
<stop offset="1" stop-color="#5600AC"/>
</linearGradient>
<linearGradient id="paint13_linear_102_475" x1="409.093" y1="1079.85" x2="409.093" y2="1023.13" gradientUnits="userSpaceOnUse">
<stop stop-color="#FF4998"/>
<stop offset="1" stop-color="#5600AC"/>
</linearGradient>
<linearGradient id="paint14_linear_102_475" x1="637.023" y1="187.03" x2="637.023" y2="130.19" gradientUnits="userSpaceOnUse">
<stop stop-color="#FF4998"/>
<stop offset="1" stop-color="#5600AC"/>
</linearGradient>
<linearGradient id="paint15_linear_102_475" x1="268.608" y1="316.828" x2="268.608" y2="260.112" gradientUnits="userSpaceOnUse">
<stop stop-color="#FF4998"/>
<stop offset="1" stop-color="#5600AC"/>
</linearGradient>
<linearGradient id="paint16_linear_102_475" x1="833.151" y1="1071.96" x2="833.151" y2="1015.12" gradientUnits="userSpaceOnUse">
<stop stop-color="#FF4998"/>
<stop offset="1" stop-color="#5600AC"/>
</linearGradient>
<linearGradient id="paint17_linear_102_475" x1="1376.45" y1="176.391" x2="1376.45" y2="119.674" gradientUnits="userSpaceOnUse">
<stop stop-color="#FF4998"/>
<stop offset="1" stop-color="#5600AC"/>
</linearGradient>
</defs>
</svg>
