<svg width="1239" height="1401" viewBox="0 0 1239 1401" fill="none" xmlns="http://www.w3.org/2000/svg">
<path opacity="0.01" fill-rule="evenodd" clip-rule="evenodd" d="M6.07063 0.357666H1239V1395.96C547.758 1344.44 4.6394 768.816 4.6394 65.8268C4.6394 43.646 4.99728 22.1807 6.07063 0.357666Z" fill="url(#paint0_linear_102_244)"/>
<path opacity="0.0196078" fill-rule="evenodd" clip-rule="evenodd" d="M10.0061 0.357666H1239V1391.31C549.905 1340.15 8.93262 765.954 8.93262 65.4691C8.93262 43.646 8.93279 22.1807 10.0061 0.357666Z" fill="url(#paint1_linear_102_244)"/>
<path opacity="0.0294118" fill-rule="evenodd" clip-rule="evenodd" d="M13.9417 0.357666H1239V1386.66C552.052 1335.5 12.8687 763.449 12.8687 65.1113C12.8687 43.2883 12.8684 22.1807 13.9417 0.357666Z" fill="url(#paint2_linear_102_244)"/>
<path opacity="0.0392157" fill-rule="evenodd" clip-rule="evenodd" d="M17.8773 0.357666H1239V1382.01C555.629 1331.21 16.8042 760.945 16.8042 64.7536C16.8042 43.2883 16.8039 22.1807 17.8773 0.357666Z" fill="url(#paint3_linear_102_244)"/>
<path opacity="0.0490196" fill-rule="evenodd" clip-rule="evenodd" d="M21.813 0.357666H1239V1377.71C556.703 1326.91 20.7395 758.798 20.7395 64.7536C20.7395 43.2883 21.0975 22.1807 21.813 0.357666Z" fill="url(#paint4_linear_102_244)"/>
<path opacity="0.0588235" fill-rule="evenodd" clip-rule="evenodd" d="M26.1062 0.357666H1239V1373.06C558.849 1322.62 25.0327 755.936 25.0327 64.3958C25.0327 42.9305 25.0329 21.823 26.1062 0.357666Z" fill="url(#paint5_linear_102_244)"/>
<path opacity="0.0686274" fill-rule="evenodd" clip-rule="evenodd" d="M30.0421 0.357666H1239V1368.41C560.996 1317.97 28.969 753.432 28.969 64.3958C28.969 42.9305 28.9687 21.823 30.0421 0.357666Z" fill="url(#paint6_linear_102_244)"/>
<path opacity="0.0784314" fill-rule="evenodd" clip-rule="evenodd" d="M33.9774 0.357666H1239V1363.76C563.5 1313.68 32.9043 750.928 32.9043 64.0381C32.9043 42.5728 32.904 21.823 33.9774 0.357666Z" fill="url(#paint7_linear_102_244)"/>
<path opacity="0.0882353" fill-rule="evenodd" clip-rule="evenodd" d="M37.9134 0.357666H1239V1359.47C565.647 1309.38 36.8398 748.781 36.8398 64.0381C36.8398 42.5728 37.1978 21.823 37.9134 0.357666Z" fill="url(#paint8_linear_102_244)"/>
<path opacity="0.0980392" fill-rule="evenodd" clip-rule="evenodd" d="M41.8492 0.357666H1239V1354.82C567.794 1305.09 40.7756 745.919 40.7756 63.6803C40.7756 42.5728 41.1336 21.4652 41.8492 0.357666Z" fill="url(#paint9_linear_102_244)"/>
<path opacity="0.1078" fill-rule="evenodd" clip-rule="evenodd" d="M46.1422 0.357666H1239V1350.17C569.941 1300.44 45.0691 743.415 45.0691 63.3226C45.0691 42.215 45.0688 21.4652 46.1422 0.357666Z" fill="url(#paint10_linear_102_244)"/>
<path opacity="0.1176" fill-rule="evenodd" clip-rule="evenodd" d="M50.078 0.357666H1239V1345.52C572.445 1295.79 49.0049 740.911 49.0049 62.9648C49.0049 42.215 49.0046 21.4652 50.078 0.357666Z" fill="url(#paint11_linear_102_244)"/>
<path opacity="0.1275" fill-rule="evenodd" clip-rule="evenodd" d="M54.014 0.357666H1239V1341.22C574.592 1291.85 52.9404 738.406 52.9404 63.3226C52.9404 41.8573 53.2984 21.4652 54.014 0.357666Z" fill="url(#paint12_linear_102_244)"/>
<path opacity="0.1373" fill-rule="evenodd" clip-rule="evenodd" d="M57.9495 0.357666H1239V1336.57C576.739 1287.2 56.876 735.902 56.876 62.9648C56.876 41.8573 57.2339 21.1075 57.9495 0.357666Z" fill="url(#paint13_linear_102_244)"/>
<path opacity="0.1471" fill-rule="evenodd" clip-rule="evenodd" d="M61.8851 0.357666H1239V1331.92C578.885 1282.91 61.1697 733.398 61.1697 62.6071C61.1697 41.8573 61.1695 21.1075 61.8851 0.357666Z" fill="url(#paint14_linear_102_244)"/>
<path opacity="0.1569" fill-rule="evenodd" clip-rule="evenodd" d="M65.8206 0.357666H1239V1327.27C581.39 1278.26 65.1052 730.894 65.1052 62.2493C65.1052 41.4995 65.105 21.1075 65.8206 0.357666Z" fill="url(#paint15_linear_102_244)"/>
<path opacity="0.1667" fill-rule="evenodd" clip-rule="evenodd" d="M70.1143 0.357666H1239V1322.98C583.537 1274.32 69.0408 728.389 69.0408 62.2493C69.0408 41.4995 69.3987 21.1075 70.1143 0.357666Z" fill="url(#paint16_linear_102_244)"/>
<path opacity="0.1765" fill-rule="evenodd" clip-rule="evenodd" d="M74.0496 0.357666H1239V1318.33C585.683 1269.67 72.9761 725.885 72.9761 61.8915C72.9761 41.1417 73.334 20.7497 74.0496 0.357666V0.357666Z" fill="url(#paint17_linear_102_244)"/>
<path opacity="0.1863" fill-rule="evenodd" clip-rule="evenodd" d="M77.9854 0.357755H1239V1313.68C587.83 1265.38 77.27 723.381 77.27 61.5339C77.27 40.7841 77.6275 20.392 78.3431 0H77.9854V0.357755Z" fill="url(#paint18_linear_102_244)"/>
<path opacity="0.1961" fill-rule="evenodd" clip-rule="evenodd" d="M81.921 0.357666H1239V1309.03C590.335 1260.73 81.2056 720.876 81.2056 61.5338C81.2056 41.1417 81.5631 20.7497 82.2787 0.357666H81.921V0.357666Z" fill="url(#paint19_linear_102_244)"/>
<path opacity="0.2059" fill-rule="evenodd" clip-rule="evenodd" d="M85.8563 0.357666H1239V1304.73C592.481 1256.79 85.1409 718.372 85.1409 61.5338C85.1409 41.1418 85.4988 20.7497 86.2144 0.715421H85.8563V0.357666Z" fill="url(#paint20_linear_102_244)"/>
<path opacity="0.2157" fill-rule="evenodd" clip-rule="evenodd" d="M90.1502 0.357666H1239V1300.08C594.628 1252.14 89.0767 715.868 89.0767 61.176C89.0767 40.784 89.4346 20.7497 90.1502 0.357666Z" fill="url(#paint21_linear_102_244)"/>
<path opacity="0.2255" fill-rule="evenodd" clip-rule="evenodd" d="M94.0857 0.357666H1239V1295.43C596.775 1247.85 93.0122 713.364 93.0122 60.8183C93.0122 40.4262 93.3701 20.392 94.4434 0.357666H94.0857V0.357666Z" fill="url(#paint22_linear_102_244)"/>
<path opacity="0.2353" fill-rule="evenodd" clip-rule="evenodd" d="M98.0211 0.357755H1239V1290.78C599.279 1243.2 97.3057 710.502 97.3057 60.4606C97.3057 40.0686 97.6635 20.0343 98.7369 0H98.0211V0.357755Z" fill="url(#paint23_linear_102_244)"/>
<path opacity="0.2451" fill-rule="evenodd" clip-rule="evenodd" d="M101.957 0.357666H1239V1286.49C601.426 1239.26 101.241 708.355 101.241 60.4605C101.241 40.4262 101.599 20.392 102.673 0.357666H101.957V0.357666Z" fill="url(#paint24_linear_102_244)"/>
<path opacity="0.2549" fill-rule="evenodd" clip-rule="evenodd" d="M105.893 0.357666H1239V1281.84C603.573 1234.61 105.177 705.851 105.177 60.4605C105.177 40.4262 105.535 20.392 106.608 0.357666H105.893V0.357666Z" fill="url(#paint25_linear_102_244)"/>
<path opacity="0.2647" fill-rule="evenodd" clip-rule="evenodd" d="M109.828 0.357666H1239V1277.19C605.719 1229.96 109.113 703.346 109.113 60.1028C109.113 40.0685 109.47 20.0342 110.544 0.357666H109.828V0.357666Z" fill="url(#paint26_linear_102_244)"/>
<path opacity="0.2745" fill-rule="evenodd" clip-rule="evenodd" d="M114.122 0.357666H1239V1272.53C607.866 1225.67 113.406 700.484 113.406 59.745C113.406 39.7107 113.764 20.0342 114.837 0.357666H114.122V0.357666Z" fill="url(#paint27_linear_102_244)"/>
<path opacity="0.2843" fill-rule="evenodd" clip-rule="evenodd" d="M118.057 0.357666H1239V1268.24C610.371 1221.38 117.342 698.338 117.342 59.745C117.342 39.7107 117.7 20.0342 118.773 0.357666H118.057V0.357666Z" fill="url(#paint28_linear_102_244)"/>
<path opacity="0.2941" fill-rule="evenodd" clip-rule="evenodd" d="M121.993 0.357666H1239V1263.59C612.517 1217.08 121.277 695.834 121.277 59.3873C121.277 39.7107 121.635 19.6764 122.709 0.357666H121.993Z" fill="url(#paint29_linear_102_244)"/>
<path opacity="0.3039" fill-rule="evenodd" clip-rule="evenodd" d="M125.929 0.357755H1239V1258.94C614.664 1212.43 125.213 693.329 125.213 59.0296C125.213 39.3531 125.571 19.6765 126.644 0H125.929V0.357755Z" fill="url(#paint30_linear_102_244)"/>
<path opacity="0.3137" fill-rule="evenodd" clip-rule="evenodd" d="M129.864 0.357666H1239V1254.65C616.811 1208.5 129.507 690.825 129.507 59.0295C129.507 39.353 129.864 19.6764 130.938 0.357666H129.864V0.357666Z" fill="url(#paint31_linear_102_244)"/>
<path opacity="0.3235" fill-rule="evenodd" clip-rule="evenodd" d="M133.8 0.357666H1239V1250C619.315 1203.85 133.442 688.321 133.442 59.0295C133.442 39.353 133.8 19.6764 134.873 0.715421H133.8V0.357666Z" fill="url(#paint32_linear_102_244)"/>
<path opacity="0.3333" fill-rule="evenodd" clip-rule="evenodd" d="M138.094 0.357666H1239V1245.35C621.462 1199.55 137.378 685.816 137.378 58.6717C137.378 38.9952 137.736 19.6764 138.809 0.357666H138.094V0.357666Z" fill="url(#paint33_linear_102_244)"/>
<path opacity="0.3431" fill-rule="evenodd" clip-rule="evenodd" d="M142.029 0.357666H1239V1240.69C623.609 1194.9 141.313 682.954 141.313 58.314C141.313 38.6375 141.671 19.3187 142.744 0.357666H142.029V0.357666Z" fill="url(#paint34_linear_102_244)"/>
<path opacity="0.3529" fill-rule="evenodd" clip-rule="evenodd" d="M145.965 0.357666H1239V1236.4C625.755 1190.97 145.249 680.808 145.249 58.314C145.249 38.9952 145.607 19.3187 146.68 0.357666H145.965V0.357666Z" fill="url(#paint35_linear_102_244)"/>
<path opacity="0.3627" fill-rule="evenodd" clip-rule="evenodd" d="M149.9 0.357666H1239V1231.75C628.26 1186.32 149.543 678.304 149.543 57.9562C149.543 38.6375 149.901 19.3187 150.974 0.357666H149.9V0.357666Z" fill="url(#paint36_linear_102_244)"/>
<path opacity="0.3725" fill-rule="evenodd" clip-rule="evenodd" d="M153.836 0.357666H1239V1227.1C630.406 1182.02 153.478 675.799 153.478 57.5985C153.478 38.2797 153.836 18.9609 154.909 0.357666H153.836Z" fill="url(#paint37_linear_102_244)"/>
<path opacity="0.3824" fill-rule="evenodd" clip-rule="evenodd" d="M158.129 0.357666H1239V1222.45C632.553 1177.37 157.414 673.295 157.414 57.5985C157.414 38.2797 157.771 18.9609 158.845 0.357666H158.129Z" fill="url(#paint38_linear_102_244)"/>
<path opacity="0.3922" fill-rule="evenodd" clip-rule="evenodd" d="M162.065 0.357666H1239V1218.16C634.7 1173.44 161.349 670.791 161.349 57.5985C161.349 38.2797 161.707 19.3187 162.78 0.715421H162.065V0.357666Z" fill="url(#paint39_linear_102_244)"/>
<path opacity="0.402" fill-rule="evenodd" clip-rule="evenodd" d="M166.001 0.357666H1239V1213.51C637.204 1168.79 165.643 668.286 165.643 57.2407C165.643 38.2797 166.001 18.9609 167.074 0.357666H166.001V0.357666Z" fill="url(#paint40_linear_102_244)"/>
<path opacity="0.4118" fill-rule="evenodd" clip-rule="evenodd" d="M169.936 0.357666H1239V1208.85C639.351 1164.14 169.578 665.782 169.578 56.883C169.578 37.922 169.936 18.6032 171.01 0.357666H169.936V0.357666Z" fill="url(#paint41_linear_102_244)"/>
<path opacity="0.4216" fill-rule="evenodd" clip-rule="evenodd" d="M173.872 0.357666H1239V1204.2C641.498 1159.84 173.514 662.92 173.514 56.5252C173.514 37.5642 173.872 18.6032 174.945 0.357666H173.872V0.357666Z" fill="url(#paint42_linear_102_244)"/>
<path opacity="0.4314" fill-rule="evenodd" clip-rule="evenodd" d="M177.808 0.357666H1239V1199.91C643.645 1155.55 177.45 660.774 177.45 56.5252C177.45 37.5642 177.807 18.6032 178.881 0.357666H177.808V0.357666Z" fill="url(#paint43_linear_102_244)"/>
<path opacity="0.4412" fill-rule="evenodd" clip-rule="evenodd" d="M182.101 0.357666H1239V1195.26C646.149 1151.26 181.743 658.269 181.743 56.5252C181.743 37.5642 182.101 18.9609 183.174 0.715421H182.101V0.357666Z" fill="url(#paint44_linear_102_244)"/>
<path opacity="0.451" fill-rule="evenodd" clip-rule="evenodd" d="M186.036 0.357666H1239V1190.61C648.296 1146.61 185.679 655.407 185.679 56.1675C185.679 37.5642 186.037 18.6032 187.11 0.357666H186.036V0.357666Z" fill="url(#paint45_linear_102_244)"/>
<path opacity="0.4608" fill-rule="evenodd" clip-rule="evenodd" d="M189.973 0.357666H1239V1185.96C650.443 1142.31 189.615 652.903 189.615 55.8097C189.615 37.2064 189.972 18.2454 191.046 0.357666H189.973Z" fill="url(#paint46_linear_102_244)"/>
<path opacity="0.4706" fill-rule="evenodd" clip-rule="evenodd" d="M193.908 0.357666H1239V1181.67C652.589 1138.02 193.55 650.756 193.55 55.8097C193.55 37.2064 193.908 18.6032 194.981 0.357666H193.908Z" fill="url(#paint47_linear_102_244)"/>
<path opacity="0.4804" fill-rule="evenodd" clip-rule="evenodd" d="M197.844 0.357666H1239V1177.01C655.094 1133.73 197.486 648.252 197.486 55.452C197.486 36.8487 197.844 18.2454 198.917 0.357666H197.844V0.357666Z" fill="url(#paint48_linear_102_244)"/>
<path opacity="0.4902" fill-rule="evenodd" clip-rule="evenodd" d="M202.137 0.357666H1239V1172.36C657.241 1129.08 201.779 645.39 201.779 55.0942C201.779 36.4909 202.137 17.8877 203.211 0.357666H202.137V0.357666Z" fill="url(#paint49_linear_102_244)"/>
<path opacity="0.5" fill-rule="evenodd" clip-rule="evenodd" d="M206.073 0.357755H1239V1167.71C659.387 1124.78 205.715 642.886 205.715 54.7365C205.715 36.491 206.072 17.8878 207.146 0H206.073V0.357755Z" fill="url(#paint50_linear_102_244)"/>
<path fill-rule="evenodd" clip-rule="evenodd" d="M207.146 0.357666H1239V1167.71C660.46 1124.78 206.43 642.886 206.43 54.7364C206.43 36.4909 206.43 17.8877 207.146 0.357666Z" fill="url(#paint51_linear_102_244)"/>
<path fill-rule="evenodd" clip-rule="evenodd" d="M1239 1117.98C1075.49 1115.84 1080.14 1013.88 984.972 981.68C917.709 959.141 710.193 981.322 701.248 895.461C695.166 835.716 727.724 770.604 690.514 716.941C642.571 647.894 481.21 686.174 447.22 605.679C388.901 467.586 447.936 397.824 436.845 276.545C420.029 97.667 1013.6 362.764 1239 193.545V1117.98Z" fill="url(#paint52_linear_102_244)"/>
<path fill-rule="evenodd" clip-rule="evenodd" d="M274.052 0.357666H1239V456.853C1199.29 418.573 1136.32 410.703 1090.88 441.112C1040.07 475.456 1029.7 544.503 1067.98 596.02C1106.26 647.537 1178.89 661.489 1229.7 627.145C1232.56 624.998 1234.35 622.852 1238.64 620.705V821.048C1057.6 749.855 936.671 785.272 826.831 684.743C747.403 612.119 750.265 514.452 652.232 439.681C569.225 376.001 401.066 396.035 341.673 317.329C275.483 228.248 283.712 119.49 274.052 0.357666ZM926.653 807.811C917.708 813.535 905.186 811.388 898.388 802.445C891.59 793.501 893.379 781.337 902.324 775.255C911.268 769.531 923.791 771.678 930.589 780.622C937.387 789.565 935.598 801.729 926.653 807.811ZM851.16 829.634C837.207 838.936 817.171 835.358 806.437 821.048C795.703 806.738 798.566 787.777 812.52 778.475C826.473 769.173 846.509 773.109 857.243 787.061C867.976 801.371 865.114 820.332 851.16 829.634ZM623.609 601.029C615.737 606.395 604.646 604.248 598.921 596.378C593.197 588.507 594.628 578.132 602.499 572.766C610.371 567.4 621.104 569.546 627.187 577.417C632.911 585.287 631.48 595.662 623.609 601.029ZM513.769 479.392C536.309 464.366 568.152 470.448 584.968 492.986C601.784 515.525 597.49 546.292 574.95 561.318C552.409 576.343 520.566 570.262 503.75 547.723C486.935 524.827 491.586 494.417 513.769 479.392ZM387.112 246.493C400.708 237.192 420.029 241.127 430.047 254.722C440.422 268.316 437.56 286.919 423.964 295.863C410.726 304.807 391.406 301.23 381.03 287.635C371.012 274.04 373.874 255.437 387.112 246.493ZM382.103 91.943C395.699 82.6413 414.662 86.5766 425.038 100.171C435.056 113.766 410.726 164.21 397.13 173.511C383.892 182.455 359.205 153.835 376.021 133.085C392.837 112.335 368.507 100.887 382.103 91.943Z" fill="url(#paint53_linear_102_244)"/>
<path fill-rule="evenodd" clip-rule="evenodd" d="M447.578 0.357755H932.02C927.368 31.1247 934.524 62.6071 953.845 90.1543C992.128 144.175 1064.4 158.843 1115.21 123.068C1154.2 95.5206 1168.87 44.3616 1156.71 0H1238.64V386.018C1114.85 352.389 1064.4 405.694 982.825 373.139C922.36 349.169 912.699 259.73 829.335 206.425C774.594 171.007 662.249 223.955 612.517 148.826C554.556 60.8184 451.156 84.4302 447.578 0.357755ZM586.041 262.592C578.527 267.959 568.152 265.454 562.427 257.584C556.703 249.713 558.134 238.98 565.647 233.614C573.161 228.248 583.537 230.752 589.261 238.623C594.986 246.493 593.554 257.226 586.041 262.592ZM837.206 375.285C829.693 380.651 819.317 378.505 813.593 370.634C807.868 362.764 809.299 352.031 816.813 346.665C824.326 341.298 834.702 343.445 840.426 351.673C846.151 359.544 844.72 370.276 837.206 375.285ZM986.761 518.745C979.247 524.111 968.872 521.607 963.147 513.736C957.423 505.866 958.854 495.133 966.367 489.767C973.881 484.4 984.256 486.905 989.981 494.775C995.706 502.646 994.274 513.379 986.761 518.745ZM840.069 308.385C827.546 317.329 809.657 313.751 799.997 300.156C790.695 286.92 793.199 268.674 805.721 259.73C818.244 250.786 836.133 254.364 845.793 267.959C855.453 281.553 852.591 299.799 840.069 308.385ZM1055.81 320.906C1043.29 329.85 1025.4 326.273 1015.74 312.678C1006.08 299.441 1008.59 281.195 1021.11 272.252C1033.63 263.308 1051.52 266.885 1061.18 280.48C1070.84 294.075 1068.34 312.32 1055.81 320.906Z" fill="url(#paint54_linear_102_244)"/>
<defs>
<linearGradient id="paint0_linear_102_244" x1="621.892" y1="1395.83" x2="621.892" y2="0.357666" gradientUnits="userSpaceOnUse">
<stop stop-color="#BA2BA0"/>
<stop offset="1" stop-color="#470B96"/>
</linearGradient>
<linearGradient id="paint1_linear_102_244" x1="623.901" y1="1391.27" x2="623.901" y2="0.357666" gradientUnits="userSpaceOnUse">
<stop stop-color="#BA2BA0"/>
<stop offset="1" stop-color="#470B96"/>
</linearGradient>
<linearGradient id="paint2_linear_102_244" x1="625.91" y1="1386.71" x2="625.91" y2="0.357666" gradientUnits="userSpaceOnUse">
<stop stop-color="#BA2BA0"/>
<stop offset="1" stop-color="#470B96"/>
</linearGradient>
<linearGradient id="paint3_linear_102_244" x1="627.919" y1="1382.15" x2="627.919" y2="0.357666" gradientUnits="userSpaceOnUse">
<stop stop-color="#BA2BA0"/>
<stop offset="1" stop-color="#470B96"/>
</linearGradient>
<linearGradient id="paint4_linear_102_244" x1="629.927" y1="1377.59" x2="629.927" y2="0.357666" gradientUnits="userSpaceOnUse">
<stop stop-color="#BA2BA0"/>
<stop offset="1" stop-color="#470B96"/>
</linearGradient>
<linearGradient id="paint5_linear_102_244" x1="631.936" y1="1373.03" x2="631.936" y2="0.357666" gradientUnits="userSpaceOnUse">
<stop stop-color="#BA2BA0"/>
<stop offset="1" stop-color="#470B96"/>
</linearGradient>
<linearGradient id="paint6_linear_102_244" x1="633.946" y1="1368.47" x2="633.946" y2="0.357666" gradientUnits="userSpaceOnUse">
<stop stop-color="#BA2BA0"/>
<stop offset="1" stop-color="#470B96"/>
</linearGradient>
<linearGradient id="paint7_linear_102_244" x1="635.955" y1="1363.91" x2="635.955" y2="0.357666" gradientUnits="userSpaceOnUse">
<stop stop-color="#BA2BA0"/>
<stop offset="1" stop-color="#470B96"/>
</linearGradient>
<linearGradient id="paint8_linear_102_244" x1="637.963" y1="1359.35" x2="637.963" y2="0.357666" gradientUnits="userSpaceOnUse">
<stop stop-color="#BA2BA0"/>
<stop offset="1" stop-color="#470B96"/>
</linearGradient>
<linearGradient id="paint9_linear_102_244" x1="639.972" y1="1354.79" x2="639.972" y2="0.357666" gradientUnits="userSpaceOnUse">
<stop stop-color="#BA2BA0"/>
<stop offset="1" stop-color="#470B96"/>
</linearGradient>
<linearGradient id="paint10_linear_102_244" x1="641.981" y1="1350.23" x2="641.981" y2="0.357666" gradientUnits="userSpaceOnUse">
<stop stop-color="#BA2BA0"/>
<stop offset="1" stop-color="#470B96"/>
</linearGradient>
<linearGradient id="paint11_linear_102_244" x1="643.991" y1="1345.67" x2="643.991" y2="0.357666" gradientUnits="userSpaceOnUse">
<stop stop-color="#BA2BA0"/>
<stop offset="1" stop-color="#470B96"/>
</linearGradient>
<linearGradient id="paint12_linear_102_244" x1="645.999" y1="1341.11" x2="645.999" y2="0.357666" gradientUnits="userSpaceOnUse">
<stop stop-color="#BA2BA0"/>
<stop offset="1" stop-color="#470B96"/>
</linearGradient>
<linearGradient id="paint13_linear_102_244" x1="648.008" y1="1336.55" x2="648.008" y2="0.357666" gradientUnits="userSpaceOnUse">
<stop stop-color="#BA2BA0"/>
<stop offset="1" stop-color="#470B96"/>
</linearGradient>
<linearGradient id="paint14_linear_102_244" x1="650.017" y1="1331.99" x2="650.017" y2="0.357666" gradientUnits="userSpaceOnUse">
<stop stop-color="#BA2BA0"/>
<stop offset="1" stop-color="#470B96"/>
</linearGradient>
<linearGradient id="paint15_linear_102_244" x1="652.026" y1="1327.43" x2="652.026" y2="0.357666" gradientUnits="userSpaceOnUse">
<stop stop-color="#BA2BA0"/>
<stop offset="1" stop-color="#470B96"/>
</linearGradient>
<linearGradient id="paint16_linear_102_244" x1="654.035" y1="1322.87" x2="654.035" y2="0.357666" gradientUnits="userSpaceOnUse">
<stop stop-color="#BA2BA0"/>
<stop offset="1" stop-color="#470B96"/>
</linearGradient>
<linearGradient id="paint17_linear_102_244" x1="656.044" y1="1318.31" x2="656.044" y2="0.357666" gradientUnits="userSpaceOnUse">
<stop stop-color="#BA2BA0"/>
<stop offset="1" stop-color="#470B96"/>
</linearGradient>
<linearGradient id="paint18_linear_102_244" x1="658.053" y1="1313.75" x2="658.053" y2="0.35776" gradientUnits="userSpaceOnUse">
<stop stop-color="#BA2BA0"/>
<stop offset="1" stop-color="#470B96"/>
</linearGradient>
<linearGradient id="paint19_linear_102_244" x1="660.062" y1="1309.19" x2="660.062" y2="0.357666" gradientUnits="userSpaceOnUse">
<stop stop-color="#BA2BA0"/>
<stop offset="1" stop-color="#470B96"/>
</linearGradient>
<linearGradient id="paint20_linear_102_244" x1="662.071" y1="1304.63" x2="662.071" y2="0.357666" gradientUnits="userSpaceOnUse">
<stop stop-color="#BA2BA0"/>
<stop offset="1" stop-color="#470B96"/>
</linearGradient>
<linearGradient id="paint21_linear_102_244" x1="664.08" y1="1300.07" x2="664.08" y2="0.357666" gradientUnits="userSpaceOnUse">
<stop stop-color="#BA2BA0"/>
<stop offset="1" stop-color="#470B96"/>
</linearGradient>
<linearGradient id="paint22_linear_102_244" x1="666.088" y1="1295.51" x2="666.088" y2="0.357666" gradientUnits="userSpaceOnUse">
<stop stop-color="#BA2BA0"/>
<stop offset="1" stop-color="#470B96"/>
</linearGradient>
<linearGradient id="paint23_linear_102_244" x1="668.098" y1="1290.95" x2="668.098" y2="0.357703" gradientUnits="userSpaceOnUse">
<stop stop-color="#BA2BA0"/>
<stop offset="1" stop-color="#470B96"/>
</linearGradient>
<linearGradient id="paint24_linear_102_244" x1="670.107" y1="1286.39" x2="670.107" y2="0.357666" gradientUnits="userSpaceOnUse">
<stop stop-color="#BA2BA0"/>
<stop offset="1" stop-color="#470B96"/>
</linearGradient>
<linearGradient id="paint25_linear_102_244" x1="672.116" y1="1281.83" x2="672.116" y2="0.357666" gradientUnits="userSpaceOnUse">
<stop stop-color="#BA2BA0"/>
<stop offset="1" stop-color="#470B96"/>
</linearGradient>
<linearGradient id="paint26_linear_102_244" x1="674.125" y1="1277.27" x2="674.125" y2="0.357666" gradientUnits="userSpaceOnUse">
<stop stop-color="#BA2BA0"/>
<stop offset="1" stop-color="#470B96"/>
</linearGradient>
<linearGradient id="paint27_linear_102_244" x1="676.133" y1="1272.71" x2="676.133" y2="0.357666" gradientUnits="userSpaceOnUse">
<stop stop-color="#BA2BA0"/>
<stop offset="1" stop-color="#470B96"/>
</linearGradient>
<linearGradient id="paint28_linear_102_244" x1="678.143" y1="1268.15" x2="678.143" y2="0.357666" gradientUnits="userSpaceOnUse">
<stop stop-color="#BA2BA0"/>
<stop offset="1" stop-color="#470B96"/>
</linearGradient>
<linearGradient id="paint29_linear_102_244" x1="680.152" y1="1263.59" x2="680.152" y2="0.357666" gradientUnits="userSpaceOnUse">
<stop stop-color="#BA2BA0"/>
<stop offset="1" stop-color="#470B96"/>
</linearGradient>
<linearGradient id="paint30_linear_102_244" x1="682.161" y1="1259.03" x2="682.161" y2="0.357709" gradientUnits="userSpaceOnUse">
<stop stop-color="#BA2BA0"/>
<stop offset="1" stop-color="#470B96"/>
</linearGradient>
<linearGradient id="paint31_linear_102_244" x1="684.17" y1="1254.47" x2="684.17" y2="0.357666" gradientUnits="userSpaceOnUse">
<stop stop-color="#BA2BA0"/>
<stop offset="1" stop-color="#470B96"/>
</linearGradient>
<linearGradient id="paint32_linear_102_244" x1="686.178" y1="1249.91" x2="686.178" y2="0.357666" gradientUnits="userSpaceOnUse">
<stop stop-color="#BA2BA0"/>
<stop offset="1" stop-color="#470B96"/>
</linearGradient>
<linearGradient id="paint33_linear_102_244" x1="688.188" y1="1245.35" x2="688.188" y2="0.357666" gradientUnits="userSpaceOnUse">
<stop stop-color="#BA2BA0"/>
<stop offset="1" stop-color="#470B96"/>
</linearGradient>
<linearGradient id="paint34_linear_102_244" x1="690.196" y1="1240.79" x2="690.196" y2="0.357666" gradientUnits="userSpaceOnUse">
<stop stop-color="#BA2BA0"/>
<stop offset="1" stop-color="#470B96"/>
</linearGradient>
<linearGradient id="paint35_linear_102_244" x1="692.205" y1="1236.23" x2="692.205" y2="0.357666" gradientUnits="userSpaceOnUse">
<stop stop-color="#BA2BA0"/>
<stop offset="1" stop-color="#470B96"/>
</linearGradient>
<linearGradient id="paint36_linear_102_244" x1="694.214" y1="1231.67" x2="694.214" y2="0.357666" gradientUnits="userSpaceOnUse">
<stop stop-color="#BA2BA0"/>
<stop offset="1" stop-color="#470B96"/>
</linearGradient>
<linearGradient id="paint37_linear_102_244" x1="696.223" y1="1227.11" x2="696.223" y2="0.357666" gradientUnits="userSpaceOnUse">
<stop stop-color="#BA2BA0"/>
<stop offset="1" stop-color="#470B96"/>
</linearGradient>
<linearGradient id="paint38_linear_102_244" x1="698.232" y1="1222.55" x2="698.232" y2="0.357666" gradientUnits="userSpaceOnUse">
<stop stop-color="#BA2BA0"/>
<stop offset="1" stop-color="#470B96"/>
</linearGradient>
<linearGradient id="paint39_linear_102_244" x1="700.241" y1="1217.99" x2="700.241" y2="0.357666" gradientUnits="userSpaceOnUse">
<stop stop-color="#BA2BA0"/>
<stop offset="1" stop-color="#470B96"/>
</linearGradient>
<linearGradient id="paint40_linear_102_244" x1="702.25" y1="1213.43" x2="702.25" y2="0.357666" gradientUnits="userSpaceOnUse">
<stop stop-color="#BA2BA0"/>
<stop offset="1" stop-color="#470B96"/>
</linearGradient>
<linearGradient id="paint41_linear_102_244" x1="704.259" y1="1208.87" x2="704.259" y2="0.357666" gradientUnits="userSpaceOnUse">
<stop stop-color="#BA2BA0"/>
<stop offset="1" stop-color="#470B96"/>
</linearGradient>
<linearGradient id="paint42_linear_102_244" x1="706.268" y1="1204.31" x2="706.268" y2="0.357666" gradientUnits="userSpaceOnUse">
<stop stop-color="#BA2BA0"/>
<stop offset="1" stop-color="#470B96"/>
</linearGradient>
<linearGradient id="paint43_linear_102_244" x1="708.277" y1="1199.75" x2="708.277" y2="0.357666" gradientUnits="userSpaceOnUse">
<stop stop-color="#BA2BA0"/>
<stop offset="1" stop-color="#470B96"/>
</linearGradient>
<linearGradient id="paint44_linear_102_244" x1="710.286" y1="1195.19" x2="710.286" y2="0.357666" gradientUnits="userSpaceOnUse">
<stop stop-color="#BA2BA0"/>
<stop offset="1" stop-color="#470B96"/>
</linearGradient>
<linearGradient id="paint45_linear_102_244" x1="712.295" y1="1190.63" x2="712.295" y2="0.357666" gradientUnits="userSpaceOnUse">
<stop stop-color="#BA2BA0"/>
<stop offset="1" stop-color="#470B96"/>
</linearGradient>
<linearGradient id="paint46_linear_102_244" x1="714.304" y1="1186.07" x2="714.304" y2="0.357666" gradientUnits="userSpaceOnUse">
<stop stop-color="#BA2BA0"/>
<stop offset="1" stop-color="#470B96"/>
</linearGradient>
<linearGradient id="paint47_linear_102_244" x1="716.313" y1="1181.51" x2="716.313" y2="0.357666" gradientUnits="userSpaceOnUse">
<stop stop-color="#BA2BA0"/>
<stop offset="1" stop-color="#470B96"/>
</linearGradient>
<linearGradient id="paint48_linear_102_244" x1="718.322" y1="1176.95" x2="718.322" y2="0.357666" gradientUnits="userSpaceOnUse">
<stop stop-color="#BA2BA0"/>
<stop offset="1" stop-color="#470B96"/>
</linearGradient>
<linearGradient id="paint49_linear_102_244" x1="720.331" y1="1172.39" x2="720.331" y2="0.357666" gradientUnits="userSpaceOnUse">
<stop stop-color="#BA2BA0"/>
<stop offset="1" stop-color="#470B96"/>
</linearGradient>
<linearGradient id="paint50_linear_102_244" x1="722.34" y1="1167.83" x2="722.34" y2="0.357816" gradientUnits="userSpaceOnUse">
<stop stop-color="#BA2BA0"/>
<stop offset="1" stop-color="#470B96"/>
</linearGradient>
<linearGradient id="paint51_linear_102_244" x1="722.68" y1="1167.83" x2="722.68" y2="0.357666" gradientUnits="userSpaceOnUse">
<stop stop-color="#BA2BA0"/>
<stop offset="1" stop-color="#470B96"/>
</linearGradient>
<linearGradient id="paint52_linear_102_244" x1="829.951" y1="1118.14" x2="829.951" y2="193.406" gradientUnits="userSpaceOnUse">
<stop stop-color="#BA2BA0"/>
<stop offset="1" stop-color="#470B96"/>
</linearGradient>
<linearGradient id="paint53_linear_102_244" x1="756.53" y1="834.911" x2="756.53" y2="0.357666" gradientUnits="userSpaceOnUse">
<stop stop-color="#BA2BA0"/>
<stop offset="1" stop-color="#470B96"/>
</linearGradient>
<linearGradient id="paint54_linear_102_244" x1="843.362" y1="521.561" x2="843.362" y2="0.357758" gradientUnits="userSpaceOnUse">
<stop stop-color="#BA2BA0"/>
<stop offset="1" stop-color="#470B96"/>
</linearGradient>
</defs>
</svg>
