<svg width="977" height="978" viewBox="0 0 977 978" fill="none" xmlns="http://www.w3.org/2000/svg">
<path fill-rule="evenodd" clip-rule="evenodd" d="M848.07 360.17C860.268 394.364 867.907 430.184 869.903 464.591C874.436 534.924 858.782 603.894 827.393 664.772C805.073 707.853 773.746 747.295 735.638 779.734C701.547 809.027 661.217 832.836 616.386 848.829C610.307 850.998 603.468 853.437 597.118 854.846C587.729 857.339 577.58 860.103 568.19 862.596C495.791 878.145 421.662 872.041 355.301 846.891C330.612 837.71 306.63 825.708 283.625 811.645C266.806 800.514 250.747 789.112 235.665 775.648C232.03 772.662 228.124 768.916 224.489 765.93C224.489 765.93 224.489 765.93 224.218 765.17C220.312 761.424 216.677 758.438 213.531 754.421C202.573 742.912 192.103 730.372 182.394 717.561C175.559 708.008 168.725 698.454 162.651 688.629C158.42 681.573 154.19 674.516 150.448 666.429C142.205 650.525 134.722 634.351 128.487 616.874C124.963 606.996 121.439 597.118 119.435 586.698C118.026 580.348 116.618 573.998 115.209 567.648C107.028 530.308 104.979 493.351 108.302 457.046C109.719 439.41 112.656 421.231 116.895 404.3C123.689 375.324 133.305 347.053 146.773 319.978C188.862 233.869 263.94 163.401 361.202 128.704C365.001 127.349 368.8 125.993 372.6 124.638C376.399 123.283 380.958 121.656 385.028 121.061C406.087 115.262 427.687 110.982 449.07 108.494C461.552 107.467 474.034 106.44 486.027 106.444C494.439 106.013 502.362 106.613 511.045 106.942C517.177 107.324 523.309 107.706 529.441 108.088C530.472 108.577 531.232 108.306 533.023 108.523C573.94 112.771 613.986 124.182 651.099 141.778C656.254 144.222 661.408 146.666 666.834 149.87C670.198 152.096 674.051 153.291 677.414 155.517C683.6 158.45 689.297 162.414 694.722 165.617C715.665 178.704 734.871 194.123 752.828 210.844C773.66 230.822 792.754 253.133 809.08 277.289C823.127 302.257 837.227 329.776 848.07 360.17Z" fill="url(#paint0_radial_102_17)"/>
<path fill-rule="evenodd" clip-rule="evenodd" d="M530.473 108.578C528.953 109.12 528.193 109.391 526.944 110.693C523.416 112.808 519.346 113.404 515.276 113.999C511.965 114.324 509.903 113.346 506.104 114.702C501.274 115.568 496.932 115.404 492.102 116.27C487.272 117.137 482.93 116.973 477.829 117.079C473.488 116.915 472.239 118.217 469.471 120.061C466.703 121.905 463.881 121.199 460.57 121.523C456.989 121.088 453.189 122.443 449.879 122.768C440.219 124.501 430.016 124.714 420.085 125.687C414.224 126.065 408.904 127.963 402.826 130.131C398.267 131.758 395.009 134.633 390.45 136.259C387.411 137.343 384.86 137.397 381.821 138.481C378.51 138.805 375.742 140.65 372.703 141.734C367.872 142.6 365.322 142.654 361.305 145.8C357.776 147.915 355.497 148.728 351.969 150.843C348.17 152.199 344.152 155.345 340.624 157.46C334.328 161.42 327.271 165.65 320.432 168.09C315.873 169.716 309.252 170.365 305.995 173.24C303.987 174.813 303.551 178.395 301.814 180.727C299.37 185.882 296.655 190.277 294.971 195.16C293.287 200.044 291.874 205.687 293.771 211.006C295.398 215.566 299.575 220.071 303.21 223.057C307.116 226.803 309.231 230.332 305.756 234.997C301.792 240.694 296.038 246.173 290.772 250.621C286.755 253.767 283.227 255.883 279.104 253.928C277.313 253.71 275.74 251.701 273.678 250.724C271.887 250.506 269.879 252.079 268.63 253.381C264.613 256.527 260.596 259.673 256.308 262.06C253.54 263.904 251.802 266.237 248.763 267.321C245.994 269.165 242.902 267.699 239.373 269.814C235.085 272.2 230.58 276.377 226.021 278.004C222.221 279.359 217.12 279.466 213.538 279.03C211.748 278.813 210.446 277.564 208.437 279.137C206.917 279.679 205.451 282.772 205.233 284.563C204.256 286.625 205.069 288.904 204.091 290.966C203.385 293.788 203.167 295.579 202.461 298.4C201.537 303.013 200.612 307.625 199.688 312.238C198.982 315.059 198.817 319.401 197.351 322.494C197.133 324.284 195.125 325.857 193.876 327.159C190.89 330.794 188.175 335.189 185.189 338.824C180.248 346.583 175.578 355.101 170.636 362.86C166.673 368.557 159.887 373.547 154.893 378.755C151.636 381.63 148.379 384.505 145.121 387.38C143.873 388.682 141.593 389.495 141.376 391.286C140.398 393.348 140.18 395.139 140.234 397.689C138.55 402.573 136.377 408.487 135.723 413.86C135.288 417.441 135.341 419.992 134.906 423.573C134.742 427.915 133.817 432.527 134.684 437.358C134.626 446.8 137.879 455.918 137.062 465.632C137.168 470.733 135.755 476.377 135.102 481.749C134.014 490.703 136.507 500.092 138.729 508.722C139.595 513.552 142.524 519.36 144.91 523.648C147.567 528.696 149.465 534.015 151.362 539.334C153.26 544.653 151.629 552.087 149.945 556.971C148.261 561.854 143.484 565.271 141.04 570.426C139.085 574.55 136.37 578.944 136.477 584.046C136.259 585.837 137.832 587.845 138.645 590.125C139.512 594.955 139.348 599.296 140.974 603.855C142.112 609.445 144.009 614.764 146.178 620.843C147.262 623.883 148.075 626.162 149.159 629.202C150.244 632.241 151.817 634.25 153.39 636.258C153.932 637.778 154.745 640.057 155.287 641.577C156.1 643.857 158.433 645.594 158.976 647.114C162.393 651.891 164.779 656.179 167.436 661.227C169.823 665.515 173.729 669.261 176.115 673.549C180.563 678.814 183.491 684.622 187.451 690.919C189.837 695.207 191.735 700.526 194.121 704.814C196.236 708.342 198.351 711.87 199.707 715.669C201.875 721.748 202.253 727.609 204.422 733.688C207.946 743.566 215.269 752.089 221.072 761.154C222.916 763.922 224.489 765.931 226.333 768.699C183.91 729.014 150.444 678.424 129.572 619.915C104.091 548.488 101.024 475.062 116.949 406.852C123.743 377.875 133.359 349.605 147.098 323.29C189.187 237.181 264.265 166.713 361.527 132.016C369.125 129.305 377.484 126.323 385.353 124.372C432.193 106.806 482.122 102.7 530.473 108.578Z" fill="url(#paint1_linear_102_17)"/>
<path opacity="0.1" fill-rule="evenodd" clip-rule="evenodd" d="M570.874 649.214C570.874 649.214 621.928 686.677 681.126 710.956C740.324 735.235 756.161 760.422 756.161 760.422C756.161 760.422 828.036 695.379 858.247 590.381C888.729 486.142 570.874 649.214 570.874 649.214Z" fill="black" fill-opacity="0.5"/>
<path opacity="0.4" fill-rule="evenodd" clip-rule="evenodd" d="M446.521 108.547C425.139 111.036 404.298 115.044 382.48 121.115C378.681 122.47 373.85 123.337 370.051 124.692C380.036 126.269 391.376 131.646 396.149 140.222C404.61 154.335 414.808 166.115 422.238 179.739C430.428 193.092 436.173 211.599 433.943 226.956C433.125 236.67 430.246 245.406 425.847 254.685C422.914 260.87 419.439 265.536 418.568 272.699C417.698 279.862 415.796 286.537 413.894 293.211C411.557 303.467 408.46 313.994 404.332 324.032C403.137 327.885 401.399 330.218 400.204 334.07C399.28 338.683 399.115 343.024 397.16 347.148C392.761 356.426 384.509 364.509 377.235 370.531C367.464 379.156 359.212 387.239 350.743 397.113C338.527 410.892 329.134 425.379 311.928 432.373C305.849 434.542 299.499 435.95 293.692 438.879C286.364 442.349 280.61 447.828 274.313 451.788C268.777 455.476 262.209 458.676 256.672 462.364C246.576 467.679 239.573 474.46 230.508 480.263C218.675 487.911 204.727 492.03 191.863 499.189C180.247 505.046 170.911 510.089 157.669 511.387C137.806 513.334 124.946 508.499 121.698 487.388C119.369 473.657 115.085 464.05 105.754 457.1C102.43 493.404 104.75 531.122 112.66 567.702C122.374 568.519 132.794 566.515 141.424 564.293C169.103 557.845 193.64 535.387 214.703 517.594C225.234 508.698 235.712 497.251 248.847 490.852C262.743 484.182 275.442 481.365 288.795 473.175C333.089 443.669 374.996 409.874 409.851 368.317C424.293 351.174 426.47 333.266 433.966 313.46C439.725 295.988 448.847 280.742 457.699 264.736C466.55 248.73 474.153 234.026 476.33 216.118C478.996 197.179 479.329 176.503 476.894 157.671C473.645 136.559 461.821 120.22 446.521 108.547ZM461.59 157.991C462.186 162.061 463.052 166.892 463.648 170.962C464.132 181.924 461.577 193.971 454.085 201.783C451.099 205.418 444.478 206.067 440.843 203.081C438.511 201.343 437.426 198.304 436.613 196.024C433.956 190.976 431.569 186.688 429.672 181.369C425.335 169.212 420.998 157.054 415.141 145.439C419.1 151.735 411.346 134.801 420.358 126.446C424.863 122.269 433.275 121.838 438.43 124.282C444.886 127.975 449.388 135.791 453.076 141.328C457.035 147.624 460.182 151.641 461.59 157.991Z" fill="url(#paint2_linear_102_17)" fill-opacity="0.5"/>
<path opacity="0.4" fill-rule="evenodd" clip-rule="evenodd" d="M614.358 751.905C613.598 752.176 612.35 753.478 611.59 753.749L618.7 752.069C618.429 751.309 616.638 751.091 614.358 751.905ZM614.358 751.905C613.598 752.176 612.35 753.478 611.59 753.749L618.7 752.069C618.429 751.309 616.638 751.091 614.358 751.905ZM806.259 276.582C809.512 285.7 809.996 296.662 813.249 305.781C817.857 318.698 819.101 329.389 820.399 342.631C821.101 351.803 818.711 359.508 819.413 368.68C819.627 378.882 818.049 388.867 816.472 398.852C813.317 418.822 809.674 439.822 812.651 460.174C815.086 479.006 819.477 493.714 816.811 512.653C813.874 530.832 806.324 548.087 802.628 566.537C801.268 574.731 798.229 575.815 793.016 582.814C788.075 590.572 783.947 600.611 779.006 608.369C768.635 624.917 757.939 638.155 742.142 651.499C732.371 660.125 722.817 666.959 711.201 672.816C704.145 677.046 696.004 678.237 688.948 682.468C677.604 689.084 667.29 696.19 656.488 704.326C639.66 717.182 621.259 728.029 604.431 740.884C592.109 749.563 580.276 757.211 567.412 764.369C559.595 768.871 554.383 775.87 545.483 777.332C536.582 778.794 527.139 778.736 517.697 778.679C505.974 779.434 496.585 781.927 485.187 785.993C469.99 791.415 452.567 800.2 435.526 802.853C416.965 806.048 398.35 806.693 379.789 809.888C368.338 811.403 359.113 809.555 347.88 809.28C337.135 807.973 327.746 810.466 316.783 810.951C305.821 811.435 294.317 810.4 283.625 811.644C305.87 825.979 329.853 837.981 355.301 846.89C421.663 872.04 495.031 878.416 568.191 862.596C577.58 860.103 587.24 858.37 597.118 854.846C616.008 842.968 633.596 829.841 651.943 816.443C682.342 793.607 704.657 762.519 735.327 740.443C746.889 732.035 756.932 724.17 766.161 714.025C773.653 706.213 782.5 702.2 789.503 695.419C816.537 670.357 829.25 631.56 832.844 596.015C834.044 580.169 834.702 562.804 843.064 547.828C845.997 541.643 850.991 536.435 852.893 529.761C855.555 522.815 856.426 515.652 858.816 507.947C862.891 495.358 865.935 482.28 869.249 469.963C869.467 468.172 869.956 467.141 870.174 465.35C867.907 430.183 860.539 395.123 848.341 360.93C837.227 329.776 823.127 302.257 806.259 276.582ZM605.293 757.708C606.542 756.406 607.52 754.344 608.768 753.042C610.017 751.74 612.567 751.687 614.358 751.905C617.127 750.06 619.406 749.247 622.228 749.954C624.019 750.171 626.84 750.878 628.142 752.127C629.444 753.375 628.956 754.406 627.978 756.468C627.001 758.53 626.241 758.801 623.961 759.614C620.433 761.729 616.905 763.845 612.075 764.711C609.795 765.524 605.725 766.12 603.663 765.142C602.578 762.103 604.316 759.77 605.293 757.708ZM645.655 796.416C644.46 800.268 643.265 804.121 640.768 806.725C638.541 810.089 635.773 811.933 634.307 815.026C628.063 821.536 622.091 828.806 615.306 833.796C612.538 835.64 608.738 836.995 605.699 838.08C602.171 840.195 597.612 841.821 593.812 843.177C589.253 844.803 584.205 847.46 579.917 849.847C575.358 851.473 570.31 854.131 565.751 855.757C557.664 859.499 550.283 860.419 541.6 860.09C533.948 860.25 525.754 858.89 518.32 857.259C512.677 855.846 507.522 853.403 503.127 850.688C498.244 849.004 494.609 846.017 490.703 842.272C489.401 841.023 488.099 839.774 488.045 837.224C487.774 836.464 488.263 835.433 488.263 835.433C489.512 834.131 490.489 832.069 491.249 831.798C492.986 829.465 496.026 828.381 498.794 826.537C505.362 823.337 512.472 821.657 519.581 819.978C523.381 818.622 527.451 818.027 530.979 815.911C536.027 813.254 540.804 809.837 544.821 806.691C555.894 799.314 566.968 791.938 578.854 786.841C590.47 780.984 603.605 774.585 616.576 772.527C621.406 771.661 628.027 771.012 632.64 771.936C636.492 773.131 639.856 775.358 642.46 777.855C646.908 783.12 647.557 789.741 645.655 796.416ZM730.283 731.107C728.817 734.2 726.32 736.804 724.093 740.167C721.378 744.562 718.121 747.437 715.135 751.072C712.909 754.436 709.652 757.311 707.154 759.915C703.897 762.79 701.4 765.394 698.414 769.029C695.157 771.904 691.9 774.779 688.643 777.654C685.874 779.499 683.377 782.102 680.067 782.427C677.516 782.48 674.205 782.805 672.143 781.827C668.02 779.872 667.695 776.561 667.913 774.771C667.1 772.491 664.985 768.963 664.66 765.652C664.878 763.862 665.585 761.04 665.802 759.249C666.673 752.086 669.877 746.66 672.81 740.475C675.254 735.32 678.728 730.654 683.234 726.477C688.5 722.029 695.827 718.559 701.635 715.63C708.203 712.431 720.089 707.334 726.87 714.337C731.047 718.843 732.185 724.433 730.283 731.107ZM619.189 751.038C618.429 751.309 616.638 751.091 614.847 750.874C614.087 751.145 612.839 752.447 612.079 752.718L619.189 751.038Z" fill="url(#paint3_linear_102_17)" fill-opacity="0.5"/>
<path opacity="0.4" fill-rule="evenodd" clip-rule="evenodd" d="M750.009 210.136L750.551 211.656C753.315 221.805 751.956 229.999 751.409 240.472C751.08 249.155 750.209 256.318 748.85 264.512C746.837 278.079 747.593 289.801 747.642 304.345C746.82 326.052 751.1 347.652 745.936 369.195C741.751 388.676 745.488 408.757 743.853 428.184C741.511 450.434 731.682 468.501 721.365 487.6C716.694 496.119 713.326 505.886 709.687 514.893C705.288 524.171 703.982 534.916 697.792 543.977C685.412 562.098 670.211 579.513 658.102 598.394C650.935 609.516 647.891 622.594 638.662 632.739C630.464 643.372 619.932 652.269 611.463 662.142C603.753 671.745 596.044 681.348 587.032 689.702C576.501 698.598 566.081 700.603 553.434 705.971C540.028 711.61 526.946 720.559 515.655 729.727C506.372 737.321 498.609 744.373 485.856 744.64C477.444 745.071 469.468 741.921 461.327 743.112C441.735 745.818 423.335 756.665 404.827 762.411C390.119 766.801 373.837 769.183 358.316 771.294C343.825 773.894 328.904 768.082 314.631 768.891C296.287 770.295 278.646 780.871 261.281 780.214C253.629 780.374 245.652 777.224 238.978 775.322C237.187 775.104 236.156 774.615 234.366 774.398C230.731 771.412 226.825 767.666 223.19 764.68C227.531 764.844 231.873 765.008 236.485 765.932C260.525 768.492 285.818 757.756 309.209 753.694C335.911 749.308 363.155 746.441 389.314 740.535C400.494 738.26 410.101 733.976 420.468 729.421C434.363 722.751 448.8 717.601 462.424 710.171C485.113 696.938 505.363 676.866 531.522 670.96C536.353 670.093 542.485 670.475 547.044 668.849C553.882 666.409 557.033 658.433 560.997 652.736C568.706 643.133 579.615 640.098 585.752 628.487C591.128 617.147 599.109 608.304 607.849 599.19C630.325 575.754 644.228 545.097 658.403 515.2C670.134 490.458 680.834 465.227 685.131 438.854C689.427 412.481 677.66 386.699 678.646 360.651C679.522 341.495 679.419 324.4 684.907 306.168C687.786 297.432 691.696 289.184 694.576 280.448C698.215 271.441 698.544 262.758 700.121 252.773C701.427 242.028 705.555 231.99 705.831 220.757C706.377 210.283 702.907 202.956 699.383 193.077C695.859 183.199 692.064 172.561 688.269 161.923C712.087 178.267 732.052 193.415 750.009 210.136Z" fill="url(#paint4_linear_102_17)" fill-opacity="0.5"/>
<path opacity="0.4" fill-rule="evenodd" clip-rule="evenodd" d="M664.013 149.164C658.858 146.72 653.432 143.516 648.278 141.072C611.164 123.476 571.389 112.825 530.201 107.818C529.17 107.329 528.411 107.6 526.62 107.382C520.488 107 514.355 106.618 508.223 106.236C499.54 105.908 491.617 105.308 483.206 105.739C486.027 106.445 489.609 106.881 490.369 106.61C495.741 107.263 500.083 107.427 504.477 110.142C508.872 112.857 511.476 115.355 513.373 120.673C515 125.233 517.657 130.281 520.044 134.569C522.43 138.857 526.065 141.843 528.451 146.131C530.024 148.139 530.837 150.419 532.682 153.187C536.37 158.724 540.818 163.99 544.506 169.526C550.852 180.111 548.026 191.398 547.75 202.631C547.364 220.757 549.257 238.069 549.902 256.683C550.711 270.956 548.48 286.313 542.126 299.715C535.501 312.357 521.877 319.787 517.042 332.647C512.697 344.476 506.56 356.088 497.548 364.442C487.559 374.858 475.509 384.296 463.946 392.703C455.912 398.996 446.034 402.52 436.969 408.323C425.896 415.7 417.426 425.574 408.415 433.928C398.155 443.584 389.685 453.458 379.425 463.114C369.165 472.77 360.967 483.404 350.435 492.3C345.17 496.748 339.633 500.436 334.856 503.853C324.325 512.75 315.638 524.414 303.263 530.542C298.974 532.928 294.686 535.315 290.127 536.941C286.328 538.296 283.56 540.141 280.791 541.985C271.02 550.61 268.518 565.207 255.872 570.575C243.714 574.912 232.045 578.219 221.189 583.804C215.382 586.733 209.792 587.87 204.744 590.528C203.224 591.07 201.216 592.643 199.425 592.425C197.634 592.208 194.812 591.501 191.991 590.795C186.618 590.141 181.735 588.457 176.851 586.773C167.084 583.405 158.561 590.728 149.39 591.431C146.839 591.484 143.311 593.599 140.489 592.893C134.086 591.751 124.807 587.352 118.893 585.179C121.657 595.328 124.421 605.477 127.945 615.355C134.18 632.832 141.663 649.007 149.906 664.91C153.377 672.238 157.607 679.294 162.109 687.11C168.183 696.935 175.288 707.249 181.852 716.043C191.561 728.853 202.031 741.393 212.989 752.902C223.409 750.898 233.829 748.894 243.165 743.85C256.789 736.42 269.653 729.261 284.362 724.871C298.31 720.751 312.094 720.973 325.825 718.645C341.076 715.774 357.086 712.632 372.554 707.97C386.502 703.851 400.722 700.491 414.182 697.403C424.602 695.399 435.782 693.123 445.931 690.359C473.068 682.392 496.464 666.337 521.486 654.841C533.861 648.713 545.694 641.065 557.528 633.417C564.584 629.187 571.369 624.197 576.582 617.198C583.531 607.866 586.628 597.339 591.787 587.79C598.195 576.939 604.602 566.087 611.281 555.996C616.711 547.206 621.87 537.657 628.331 529.356C633.054 523.388 638.267 516.389 642.719 509.662C650.864 496.477 656.947 482.315 662.759 467.394C670.744 446.557 668.202 422.624 666.473 400.97C665.286 380.836 662.091 362.275 666.006 342.035C667.854 332.81 668.401 322.336 667.427 312.405C667.05 306.544 665.37 299.434 665.752 293.302C666.569 283.588 672.488 273.767 674.337 264.542C675.967 257.108 678.358 249.403 677.927 240.991C678.366 225.416 677.286 210.384 674.145 194.373C671.869 183.193 671.874 171.2 671.118 159.478C671.336 157.687 670.522 155.407 670.74 153.616C670.469 152.857 667.105 150.63 664.013 149.164ZM283.009 562.608C283.227 560.817 295.007 550.619 296.255 549.317C296.255 549.317 296.255 549.317 295.495 549.588L287.732 556.64C296.526 550.076 317.527 553.72 312.963 567.34C311.768 571.192 305.472 575.152 301.943 577.267C298.415 579.382 295.593 578.676 292.23 576.449C288.866 574.223 285.72 570.206 284.364 566.407C284.093 565.647 283.28 563.367 283.009 562.608ZM210.295 697.33C198.573 698.086 190.379 696.726 181.047 689.776C174.319 685.324 169.383 681.089 165.423 674.793C162.495 668.985 158.589 665.239 157.94 658.618C157.073 653.788 157.456 647.656 158.38 643.043C159.033 637.671 160.935 630.996 160.392 629.477C170.759 624.922 180.366 620.638 190.245 617.114C201.642 613.048 214.342 610.231 225.74 606.165C231.059 604.267 236.378 602.37 241.426 599.712C246.474 597.055 250.491 593.909 255.539 591.251C264.115 586.479 272.202 582.737 281.916 583.555C289.079 584.426 294.829 590.94 300.037 595.934C302.912 599.192 305.245 600.929 306.872 605.488C308.769 610.807 310.395 615.366 311.262 620.196C311.804 621.716 311.858 624.267 312.4 625.787C310.494 644.454 292.635 656.821 279.606 668.321C260.064 685.572 235.259 695.277 210.295 697.33ZM384.614 674.545C384.392 688.329 365.991 699.177 354.864 704.003C349.545 705.9 342.435 707.58 336.032 706.438C332.45 706.002 329.087 703.776 325.723 701.55C323.39 699.813 319.755 696.827 314.218 700.515C313.298 693.134 312.649 686.513 313.52 679.35C314.716 675.497 316.942 672.133 318.897 668.01C322.589 661.553 327.042 654.825 332.036 649.617C340.017 640.774 352.01 640.779 362.755 642.085C370.678 642.685 376.864 645.618 380.823 651.914C386.084 659.459 384.942 665.863 384.614 674.545ZM517.535 624.557C516.717 634.271 512.212 638.448 506.24 645.718C498.748 653.53 487.945 661.666 478.067 665.19C472.748 667.088 466.616 666.706 461.244 666.053C457.662 665.617 453.592 666.213 450.499 664.746C441.221 660.347 436.448 651.771 441.549 651.665C436.341 646.67 432.653 641.133 429.725 635.325C430.973 634.023 431.191 632.233 430.649 630.713C432.009 622.519 436.679 614 442.922 607.49C452.64 596.315 468.055 589.102 483.901 590.302C490.793 590.413 495.676 592.097 501.102 595.301C504.195 596.767 507.016 597.474 510.38 599.7C514.828 604.966 517.375 616.906 517.535 624.557ZM557.265 608.671C555.528 611.004 552.813 615.399 550.533 616.212C547.982 616.265 542.828 613.821 541.744 610.782L539.682 609.804C540.824 603.401 542.237 597.758 543.379 591.354C548.751 592.007 553.039 589.621 557.976 593.856C563.673 597.82 559.98 604.276 557.265 608.671ZM574.458 332.722C572.557 339.396 569.135 346.613 563.869 351.061C557.355 356.811 547.801 363.646 542.704 351.759C540.265 344.92 539.127 339.33 539.998 332.167C541.304 321.422 544.29 317.788 551.782 309.976C554.822 308.891 559.163 309.056 561.714 309.002C566.815 308.896 573 311.828 575.658 316.876C578.315 321.924 576.142 327.839 574.458 332.722ZM651.278 247.928C651.816 261.441 650.563 274.736 649.039 287.272C647.84 303.118 652.23 317.826 653.581 333.619C655.043 342.519 653.737 353.264 647.223 359.014C643.966 361.889 640.655 362.214 636.856 363.569C633.057 364.924 627.52 368.613 628.604 371.652C624.156 366.386 618.406 359.872 614.718 354.335C610.758 348.039 607.288 340.711 603.817 333.384C599.587 326.327 596.876 318.729 593.406 311.401C590.206 304.834 585.976 297.777 583.536 290.939C575.133 267.383 578.239 232.869 596.479 214.37C602.234 208.891 608.53 204.932 616.4 202.981C625.3 201.519 631.433 201.901 638.214 208.904C646.839 218.676 649.981 234.686 651.278 247.928Z" fill="url(#paint5_linear_102_17)" fill-opacity="0.5"/>
<path opacity="0.4" fill-rule="evenodd" clip-rule="evenodd" d="M554.279 307.371C553.79 308.402 552.27 308.945 551.782 309.975C549.502 310.789 547.711 310.571 546.463 311.873L554.279 307.371Z" fill="url(#paint6_linear_102_17)" fill-opacity="0.5"/>
<path opacity="0.4" fill-rule="evenodd" clip-rule="evenodd" d="M159.635 629.746C158.876 630.017 158.116 630.288 158.116 630.288C159.365 628.986 159.364 628.987 159.635 629.746Z" fill="url(#paint7_linear_102_17)" fill-opacity="0.5"/>
<path opacity="0.3" fill-rule="evenodd" clip-rule="evenodd" d="M388.458 858.19C388.458 858.19 425.469 858.692 446.585 843.45C446.585 843.45 428.325 763.452 381.831 724.362C335.337 685.272 312.511 777.357 312.511 777.357L317.92 828.534C317.92 828.534 356.931 851.45 388.458 858.19Z" fill="black" fill-opacity="0.5"/>
<path fill-rule="evenodd" clip-rule="evenodd" d="M314.637 903.37C315.668 903.859 316.699 904.348 317.241 905.868C315.721 906.41 315.45 905.65 314.908 904.13C314.366 902.611 315.397 903.099 315.615 901.309C315.615 901.309 315.614 901.309 316.374 901.038L314.637 903.37Z" fill="#0EDBFF"/>
<defs>
<radialGradient id="paint0_radial_102_17" cx="0" cy="0" r="1" gradientUnits="userSpaceOnUse" gradientTransform="translate(204.7 399.582) rotate(-19.6333) scale(613.955)">
<stop offset="0.00558659" stop-color="#60DBFF"/>
<stop offset="0.0937306" stop-color="#60D5FF"/>
<stop offset="0.211" stop-color="#5FC4FF"/>
<stop offset="0.3446" stop-color="#5DA9FF"/>
<stop offset="0.4903" stop-color="#5A82FF"/>
<stop offset="0.6442" stop-color="#5751FF"/>
<stop offset="0.6844" stop-color="#5643FF"/>
<stop offset="0.7432" stop-color="#563DF8"/>
<stop offset="0.8282" stop-color="#552EE5"/>
<stop offset="0.9287" stop-color="#5315C6"/>
<stop offset="1" stop-color="#5200AB"/>
</radialGradient>
<linearGradient id="paint1_linear_102_17" x1="92.4909" y1="518.088" x2="610.33" y2="333.355" gradientUnits="userSpaceOnUse">
<stop offset="0.0111732" stop-color="#81E0FF"/>
<stop offset="0.3224" stop-color="#82DDFF"/>
<stop offset="0.5506" stop-color="#86D4FF"/>
<stop offset="0.7523" stop-color="#8BC4FF"/>
<stop offset="0.9375" stop-color="#94ADFF"/>
<stop offset="1" stop-color="#97A4FF"/>
</linearGradient>
<linearGradient id="paint2_linear_102_17" x1="59.4261" y1="415.022" x2="512.154" y2="253.516" gradientUnits="userSpaceOnUse">
<stop stop-color="#B8C2FF"/>
<stop offset="1" stop-color="#7D72B3"/>
</linearGradient>
<linearGradient id="paint3_linear_102_17" x1="253.118" y1="725.795" x2="896.335" y2="496.334" gradientUnits="userSpaceOnUse">
<stop stop-color="#B8C2FF"/>
<stop offset="1" stop-color="#7D72B3"/>
</linearGradient>
<linearGradient id="paint4_linear_102_17" x1="167.666" y1="606.303" x2="809.592" y2="377.302" gradientUnits="userSpaceOnUse">
<stop stop-color="#B8C2FF"/>
<stop offset="1" stop-color="#7D72B3"/>
</linearGradient>
<linearGradient id="paint5_linear_102_17" x1="96.9088" y1="530.423" x2="727.892" y2="305.326" gradientUnits="userSpaceOnUse">
<stop stop-color="#B8C2FF"/>
<stop offset="1" stop-color="#7D72B3"/>
</linearGradient>
<linearGradient id="paint6_linear_102_17" x1="545.817" y1="311.648" x2="554.479" y2="308.558" gradientUnits="userSpaceOnUse">
<stop stop-color="#E8DDFF"/>
<stop offset="1" stop-color="#AA8AD8"/>
</linearGradient>
<linearGradient id="paint7_linear_102_17" x1="158.022" y1="630.413" x2="159.821" y2="629.771" gradientUnits="userSpaceOnUse">
<stop stop-color="#E8DDFF"/>
<stop offset="1" stop-color="#AA8AD8"/>
</linearGradient>
</defs>
</svg>
