<svg width="1105" height="585" viewBox="0 0 1105 585" fill="none" xmlns="http://www.w3.org/2000/svg">
<g filter="url(#filter0_f_0_1)">
<path fill-rule="evenodd" clip-rule="evenodd" d="M855.756 -216.905C879.89 -187.366 899.122 -155.963 912.928 -123.339C941.587 -56.8066 950.873 14.8472 940.848 85.1454C934.104 134.559 917.384 183.557 891.681 228.114C868.783 268.239 837.951 305.208 800.064 336.163C794.927 340.361 789.148 345.083 783.486 348.638C775.256 354.291 766.383 360.47 758.153 366.123C693.421 406.162 619.543 425.831 546.613 424.381C519.542 424.012 492.181 420.667 465.054 414.989C445.454 410.658 425.446 404.518 406.197 396.687C401.647 395.05 396.573 392.771 392.023 391.135C386.949 388.856 382.399 387.219 377.967 384.415C363.386 377.054 348.922 368.525 335.101 359.473C325.187 352.581 315.273 345.69 306.002 338.273C299.471 332.901 292.94 327.529 286.526 320.99C273.057 308.437 260.231 295.359 248.164 280.589C241.343 272.241 234.522 263.893 228.986 254.496C225.431 248.834 221.234 243.697 218.321 237.51C197.515 204.181 182.778 169.106 173.468 132.81C168.754 115.245 165.324 96.6303 163.586 78.7756C160.165 48.3758 159.719 17.6863 163.416 -13.1754C174.452 -111.07 222.826 -205.205 305.022 -272.361C308.233 -274.984 311.443 -277.608 314.654 -280.231C317.865 -282.854 321.718 -286.002 325.453 -287.983C343.841 -300.865 363.277 -312.462 382.479 -321.725C394.21 -327.027 405.941 -332.328 417.554 -336.463C425.55 -339.783 433.428 -341.936 441.948 -344.614C448.017 -346.36 454.086 -348.106 460.155 -349.853C461.322 -349.735 461.964 -350.26 463.773 -350.667C504.854 -360.674 547.564 -363.445 589.57 -359.215C595.404 -358.628 601.238 -358.04 607.072 -357.453C611.097 -356.458 615.239 -356.63 619.264 -355.636C626.265 -354.931 633.149 -353.059 639.507 -351.829C664.3 -346.386 688.216 -338.085 711.372 -328.092C738.435 -315.938 764.621 -300.925 788.764 -283.172C812.146 -263.727 835.294 -241.949 855.756 -216.905Z" fill="url(#paint0_radial_0_1)"/>
<path fill-rule="evenodd" clip-rule="evenodd" d="M461.438 -350.903C460.154 -349.853 459.512 -349.329 458.752 -347.637C456.066 -344.372 452.331 -342.391 448.595 -340.41C445.502 -338.953 443.169 -339.188 439.958 -336.565C435.58 -334.059 431.32 -332.72 426.942 -330.214C422.565 -327.709 418.305 -326.369 413.403 -324.506C409.142 -323.167 408.383 -321.475 406.339 -318.735C404.295 -315.994 401.319 -315.704 398.226 -314.248C394.608 -313.434 391.397 -310.81 388.304 -309.354C379.549 -304.342 369.745 -300.615 360.465 -296.245C354.92 -293.857 350.425 -290.184 345.288 -285.987C341.435 -282.839 339.274 -278.932 335.421 -275.784C332.852 -273.685 330.401 -272.753 327.833 -270.655C324.739 -269.198 322.695 -266.457 320.127 -264.359C315.749 -261.853 313.298 -260.921 310.494 -256.489C307.808 -253.223 305.882 -251.649 303.196 -248.384C299.985 -245.761 297.181 -241.328 294.495 -238.063C289.765 -232.057 284.393 -225.526 278.614 -220.804C274.761 -217.656 268.574 -214.743 266.413 -210.835C265.011 -208.619 265.825 -205.001 264.948 -202.143C264.361 -196.309 263.249 -191.117 263.303 -185.808C263.358 -180.498 263.938 -174.547 267.61 -170.052C270.758 -166.199 276.357 -163.278 280.907 -161.641C285.981 -159.362 289.247 -156.676 287.492 -150.959C285.621 -144.076 281.94 -136.785 278.377 -130.662C275.573 -126.23 272.887 -122.964 268.22 -123.434C266.411 -123.027 264.195 -124.429 261.861 -124.664C260.052 -124.256 258.65 -122.04 257.891 -120.349C255.087 -115.917 252.284 -111.484 248.955 -107.694C246.911 -104.953 246.034 -102.095 243.466 -99.9965C241.422 -97.2557 237.921 -97.6082 235.235 -94.3427C231.907 -90.5526 228.986 -84.9536 225.133 -81.8056C221.922 -79.1823 217.02 -77.3187 213.402 -76.5043C211.593 -76.0972 209.901 -76.8568 208.5 -74.6407C207.215 -73.5914 206.863 -70.0909 207.27 -68.2819C207.035 -65.9483 208.609 -64.0219 208.374 -61.6883C208.664 -58.7125 209.071 -56.9036 209.361 -53.9278C210.057 -49.1431 210.754 -44.3584 211.451 -39.5736C211.741 -36.5979 213.08 -32.3377 212.727 -28.8373C213.134 -27.0283 211.733 -24.8123 210.973 -23.1209C209.336 -18.5711 208.224 -13.3792 206.587 -8.82948C204.481 0.387505 202.899 10.2467 200.792 19.4637C198.92 26.3471 194.072 33.5201 191.034 40.286C188.872 44.1936 186.711 48.1012 184.55 52.0088C183.79 53.7002 181.863 55.2742 182.271 57.0832C182.036 59.4168 182.443 61.2257 183.375 63.6769C183.429 68.9862 183.366 75.4625 184.588 80.8894C185.402 84.5073 186.334 86.9584 187.148 90.5764C188.487 94.8364 189.184 99.621 191.69 103.999C194.893 113.161 201.189 120.867 203.749 130.554C205.613 135.456 206.192 141.408 207.414 146.834C209.45 155.879 215.103 164.11 220.232 171.698C222.738 176.075 227.578 180.688 231.368 184.016C235.682 187.987 239.355 192.482 243.028 196.977C246.7 201.472 247.687 209.232 247.741 214.542C247.796 219.851 244.35 224.808 243.763 230.642C243.293 235.309 242.181 240.501 244.044 245.404C244.452 247.213 246.668 248.614 248.242 250.541C250.748 254.918 252.087 259.178 255.235 263.031C258.265 268.051 261.938 272.546 266.135 277.683C268.233 280.252 269.807 282.178 271.906 284.747C274.005 287.316 276.221 288.717 278.437 290.119C279.486 291.403 281.06 293.33 282.11 294.614C283.684 296.541 286.542 297.418 287.591 298.702C292.548 302.148 296.338 305.476 300.653 309.446C304.443 312.775 309.518 315.054 313.308 318.382C319.431 321.945 324.271 326.558 330.277 331.288C334.067 334.616 337.74 339.111 341.53 342.439C344.795 345.125 348.061 347.811 350.684 351.022C354.881 356.159 357.27 361.704 361.467 366.841C368.287 375.189 378.319 380.914 387.066 387.688C389.806 389.732 392.023 391.133 394.763 393.177C339.994 369.393 290.135 331.96 249.737 282.515C200.419 222.152 172.112 152.119 163.993 80.5835C160.571 50.1836 160.126 19.4941 164.347 -10.7255C175.383 -108.62 223.757 -202.755 305.953 -269.911C312.374 -275.158 319.438 -280.929 326.384 -285.533C365.673 -318.704 413.121 -339.267 461.438 -350.903Z" fill="url(#paint1_linear_0_1)"/>
<path fill-rule="evenodd" clip-rule="evenodd" d="M407.938 75.0885C409.857 85.3001 409.551 105.896 421.156 113.547C426.113 116.992 432.471 118.222 438.07 121.143C452.127 127.862 471.32 130.384 477.868 112.185C485.292 91.1282 465.754 80.321 449.889 74.0088C443.647 71.6124 436.239 69.0985 429.646 70.2025C426.028 71.0168 421.126 72.8805 418.032 74.3369C411.321 76.6078 412.433 71.4159 407.938 75.0885Z" fill="#FF9F84"/>
<path fill-rule="evenodd" clip-rule="evenodd" d="M528.304 155.572C527.372 153.121 522.768 146.175 522.596 142.032C522.306 139.057 524.467 135.149 525.987 131.766C529.55 125.642 535.854 121.562 542.855 122.267C555.807 122.393 563.56 133.192 562.267 146.027C561.68 151.861 559.808 158.744 555.313 162.417C552.744 164.516 550.7 167.256 547.725 167.546C544.107 168.36 540.082 167.366 537.341 165.322C532.384 161.876 530.403 158.141 529.823 152.189L528.304 155.572Z" fill="#FF9F84"/>
<path fill-rule="evenodd" clip-rule="evenodd" d="M469.814 198.006C472.438 201.217 477.332 211.139 483.518 208.226C486.612 206.769 486.557 201.46 484.983 199.533C484.051 197.082 480.786 194.396 478.57 192.994C475.187 191.475 471.044 191.647 471.216 195.79L469.29 197.364L469.814 198.006Z" fill="#FF9F84"/>
<path fill-rule="evenodd" clip-rule="evenodd" d="M291.831 244.909C296.67 249.522 303.491 257.87 310.374 259.742C313.233 260.619 316.091 261.496 319.184 260.039C322.278 258.583 322.513 256.249 322.223 253.273C322.168 247.964 320.594 246.038 317.446 242.185C314.823 238.974 310.391 236.17 306.483 234.009C303.625 233.132 300.124 232.779 297.791 232.544C295.457 232.309 293.648 232.716 291.08 234.815C287.869 237.438 291.659 240.767 293.115 243.86L291.831 244.909Z" fill="#FF9F84"/>
<path fill-rule="evenodd" clip-rule="evenodd" d="M468.194 178.986C468.194 178.986 465.163 173.966 464.756 172.157C464.874 170.99 465.516 170.465 466.158 169.941C466.918 168.249 468.844 166.675 470.653 166.268C473.629 165.978 477.654 166.973 479.11 170.066C480.567 173.16 479.455 178.352 476.886 180.45C474.318 182.549 468.601 180.795 467.787 177.177L468.194 178.986Z" fill="#FF9F84"/>
<path fill-rule="evenodd" clip-rule="evenodd" d="M652.543 121.524C652.543 121.524 649.512 116.504 649.105 114.695C649.223 113.528 649.865 113.004 650.507 112.479C651.266 110.788 653.193 109.214 655.002 108.806C657.978 108.517 662.003 109.511 663.459 112.605C664.916 115.698 663.804 120.89 661.235 122.988C658.666 125.087 652.95 123.333 652.136 119.715L652.543 121.524Z" fill="#FF9F84"/>
<path fill-rule="evenodd" clip-rule="evenodd" d="M645.819 311.199C645.819 311.199 642.789 306.179 642.382 304.37C642.499 303.203 643.141 302.679 643.783 302.154C644.543 300.463 646.47 298.888 648.279 298.481C651.254 298.192 655.279 299.186 656.736 302.28C658.192 305.373 657.08 310.565 654.512 312.663C651.943 314.762 646.226 313.008 645.412 309.39L645.819 311.199Z" fill="#FF9F84"/>
<path fill-rule="evenodd" clip-rule="evenodd" d="M730.928 250.229C733.497 248.13 724.507 255.476 724.507 255.476C725.031 256.118 726.081 257.402 726.605 258.044C727.655 259.329 728.297 258.804 729.464 258.921C731.797 259.156 734.131 259.391 736.057 257.817C737.984 256.243 738.744 254.552 737.17 252.626C736.645 251.983 736.762 250.817 735.596 250.699C733.379 249.297 730.404 249.587 729.12 250.636L730.928 250.229Z" fill="#FFEF84"/>
<path fill-rule="evenodd" clip-rule="evenodd" d="M704.923 227.573C702.942 223.838 710.984 237.613 712.151 237.73C713.435 236.681 714.72 235.631 716.004 234.582C717.288 233.533 716.881 231.724 717.641 230.032C718.635 226.007 719.512 223.149 716.889 219.938C714.79 217.37 712.574 215.968 708.956 216.782C707.147 217.189 706.505 217.714 705.221 218.763C703.177 221.504 703.349 225.647 704.164 229.265L704.923 227.573Z" fill="#FF9F84"/>
<g opacity="0.25">
<path opacity="0.4" fill-rule="evenodd" clip-rule="evenodd" d="M178.351 28.4305C178.28 46.6923 178.969 63.2627 183.683 80.8276C187.465 95.9415 196.031 110.358 204.073 124.133C208.56 132.246 213.689 139.835 218.701 148.59C223.305 155.536 226.626 163.531 232.514 169.428C241.144 177.369 249.656 186.477 260.447 190.51C271.763 195.185 282.553 199.218 294.629 202.202C306.179 204.544 316.391 202.626 326.548 195.398C332.21 191.843 336.298 186.361 341.959 182.806C349.548 177.677 357.661 173.19 365.774 168.703C382 159.729 398.053 146.613 398.884 126.66C399.362 110.207 393.771 95.5 389.465 79.744C385.275 62.8212 384.469 47.4178 387.923 30.6753C390.907 18.6 392.199 5.76497 394.016 -6.42779C395.129 -11.6197 394.432 -16.4044 396.186 -22.1209C398.465 -27.1953 398.293 -31.3379 398.88 -37.1719C399.992 -42.3638 401.629 -46.9135 401.574 -52.2229C401.872 -61.0327 399.836 -70.0775 397.041 -77.4309C394.363 -85.951 389.758 -92.8973 385.272 -101.01C380.667 -107.956 373.494 -112.804 366.321 -117.651C353.024 -126.062 336.454 -125.374 321.693 -125.092C302.789 -124.638 285.513 -116.949 268.763 -108.617C253.821 -100.692 237.243 -88.2181 225.856 -74.6316C213.827 -60.5205 201.274 -47.0515 193.153 -30.7789C187.193 -18.414 186.136 -7.91282 184.201 5.44675C182.972 11.8055 180.575 18.0468 179.87 25.0477C179.572 33.8575 179.799 43.3094 178.351 28.4305Z" fill="black"/>
<path opacity="0.4" fill-rule="evenodd" clip-rule="evenodd" d="M428.703 -134.353C426.949 -128.637 424.552 -122.395 423.322 -116.037C421.975 -108.511 421.795 -100.868 422.14 -92.5828C422.366 -83.1308 421.834 -71.9875 429.938 -64.6888C437.519 -58.0323 445.859 -53.0673 455.835 -52.652C468.145 -52.0017 479.062 -60.921 490.558 -63.8886C500.245 -66.4491 510.511 -63.058 519.493 -58.6176C533.025 -52.5405 546.158 -60.0579 558.006 -66.526C565.477 -70.4883 573.065 -75.6174 580.536 -79.5797C590.575 -85.6406 600.615 -91.7016 610.654 -97.7625C628.4 -110.119 648.243 -119.907 663.89 -134.833C680.821 -150.808 691.628 -170.346 697.361 -192.163C702.741 -210.479 701.708 -235.335 692.852 -252.727C683.471 -270.762 664.168 -283.903 645.562 -292.259C621.239 -302.369 596.564 -308.979 570.604 -314.54C556.195 -317.759 542.194 -319.169 527.667 -321.221C514.95 -323.68 503.281 -324.855 490.971 -325.505C462.733 -325.991 432.74 -320.761 409.858 -304.207C400.985 -298.029 393.687 -289.924 387.962 -279.892C382.997 -271.552 381.008 -263.502 380.592 -253.526C378.767 -229.547 385.869 -206.438 394.256 -184.378C398.508 -173.931 403.284 -162.843 411.389 -155.544C413.488 -152.975 416.988 -152.623 419.087 -150.054C421.185 -147.486 422.759 -145.559 424.858 -142.991C425.907 -141.706 426.957 -140.422 427.364 -138.613C427.771 -136.804 427.419 -133.304 428.703 -134.353Z" fill="black"/>
<path opacity="0.4" fill-rule="evenodd" clip-rule="evenodd" d="M408.669 -17.3272C404.518 -5.3694 398.676 5.82862 398.55 18.781C398.315 21.1146 398.605 24.0905 400.821 25.4923C403.037 26.8941 406.655 26.0797 409.106 25.1478C417.626 22.4699 426.381 17.4583 432.396 10.4027C437.768 3.87186 442.326 -6.277 440.815 -14.6796C439.539 -25.4159 424.957 -32.7774 416.492 -24.79C415.208 -23.7407 414.448 -22.0492 413.164 -20.9998C411.879 -19.9505 411.237 -19.4259 409.953 -18.3766C408.669 -17.3272 408.669 -17.3273 407.909 -15.6358C407.674 -13.3022 407.439 -10.9685 408.669 -17.3272Z" fill="black"/>
<path opacity="0.4" fill-rule="evenodd" clip-rule="evenodd" d="M328.732 243.943C328.144 249.777 326.39 255.493 327.612 260.92C328.833 266.347 330.697 271.249 333.727 276.269C336.233 280.647 338.097 285.549 342.529 288.352C345.794 291.038 350.344 292.675 354.776 295.479C359.733 298.925 364.808 301.203 369.122 305.174C375.129 309.904 380.728 312.825 387.494 315.864C394.259 318.902 400.5 321.299 407.384 323.17C414.792 325.684 420.626 326.272 428.151 327.619C453.821 330.204 483.109 331.974 505.757 317.754C517.08 310.643 525.898 299.156 527.308 285.154C528.835 269.985 524.529 254.229 517.011 241.097C510.426 230.415 501.389 220.665 489.431 216.515C479.165 213.124 468.899 209.733 459.04 208.151C452.039 207.446 445.563 207.383 437.92 207.202C430.919 206.497 423.918 205.793 417.324 206.897C404.897 207.413 393.111 207.405 381.208 208.564C369.947 209.198 358.044 210.356 348.122 215.251C341.293 218.688 333.822 222.65 330.142 229.941C328.622 233.324 327.22 235.54 327.51 238.516C327.917 240.325 328.207 243.3 329.256 244.585C326.923 244.35 326.281 244.874 328.732 243.943Z" fill="black"/>
<path opacity="0.4" fill-rule="evenodd" clip-rule="evenodd" d="M371.654 186.386C373.753 188.954 376.494 190.998 378.068 192.924C378.592 193.567 379.759 193.684 380.809 194.968C381.975 195.086 383.902 193.512 384.544 192.987C387.113 190.889 388.632 187.506 389.509 184.647C390.621 179.455 387.708 173.269 382.399 173.324C378.898 172.971 374.638 174.31 371.952 177.576C371.192 179.267 366.752 188.249 371.419 188.719L371.654 186.386Z" fill="black"/>
<path opacity="0.4" fill-rule="evenodd" clip-rule="evenodd" d="M785.299 -41.2812C787.163 -36.379 789.551 -30.8346 790.773 -25.4077C792.519 -19.3386 793.74 -13.9116 795.486 -7.8426C799.91 6.74658 807.31 21.046 813.544 35.228C820.301 50.0521 828.868 64.4692 837.552 77.7193C842.157 84.6655 846.119 92.1364 852.008 98.0332C855.68 102.528 860.402 108.308 866.001 111.229C869.384 112.748 875.625 115.145 879.243 114.33C884.67 113.109 886.542 106.225 888.179 101.676C895.133 85.2856 898.704 67.3762 900.467 49.874C902.229 32.3719 904.516 15.5119 903.945 -2.22524C903.601 -10.5104 903.781 -18.1535 902.27 -26.5561C901.166 -33.1498 898.895 -39.861 897.149 -45.93C895.403 -51.9991 893.656 -58.0679 891.91 -64.1369C890.281 -71.3728 887.486 -78.7261 884.69 -86.0795C878.982 -99.6193 873.274 -113.159 860.502 -120.928C849.421 -127.937 835.944 -128.705 824.096 -122.237C817.909 -119.324 810.438 -115.361 805.301 -111.164C800.688 -106.324 795.958 -100.318 792.395 -94.1945C789.474 -88.5955 786.553 -82.9964 784.799 -77.2799C783.921 -74.4216 783.569 -70.9214 783.217 -67.4209C782.629 -61.5869 782.684 -56.2775 783.263 -50.326C783.553 -47.3502 783.96 -45.5411 783.083 -42.6828C785.064 -38.9474 786.403 -34.6875 785.299 -41.2812Z" fill="black"/>
<path opacity="0.4" fill-rule="evenodd" clip-rule="evenodd" d="M852.038 138.699C847.715 146.514 844.152 152.638 842.045 161.855C839.821 172.239 837.071 181.98 838.348 192.716C838.52 196.859 838.457 203.335 843.649 204.447C847.674 205.442 851.527 202.294 854.738 199.671C859.233 195.998 863.203 191.683 865.482 186.609C868.286 182.177 869.398 176.985 872.201 172.552C875.005 168.12 878.044 161.354 877.989 156.045C877.699 153.069 876.885 149.452 876.595 146.476C876.305 143.5 875.781 142.858 873.682 140.289C871.584 137.721 867.034 136.084 864.7 135.849C862.366 135.614 857.582 136.311 856.18 138.527C854.896 139.576 854.136 141.267 853.377 142.959C850.808 145.057 851.505 149.842 852.038 138.699Z" fill="black"/>
<path opacity="0.4" fill-rule="evenodd" clip-rule="evenodd" d="M813.902 107.75C808.42 103.663 804.513 101.501 800.315 96.364C797.285 91.3443 794.137 87.4912 792.916 82.0644C792.626 79.0886 790.997 71.8529 792.399 69.6368C793.041 69.1121 794.968 67.5381 795.61 67.0135C799.345 65.0323 804.42 67.3112 807.685 69.9973C812.642 73.443 815.555 79.6296 820.394 84.2422C823.542 88.0951 825.523 91.8305 826.862 96.0906C827.677 99.7085 825.751 101.282 823.182 103.381C820.613 105.479 818.804 105.887 815.304 105.534C814.137 105.417 812.852 106.466 811.686 106.349C809.352 106.114 808.303 104.829 813.902 107.75Z" fill="black"/>
<path opacity="0.4" fill-rule="evenodd" clip-rule="evenodd" d="M531.511 366.314C530.29 360.887 529.068 355.46 529.014 350.151C529.076 343.675 529.664 337.841 530.251 332.006C531.598 324.481 532.946 316.955 534.817 310.072C536.689 303.189 537.919 296.83 539.791 289.947C543.299 278.513 549.024 268.482 555.391 257.926C560.356 249.586 567.537 242.648 576.292 237.637C585.047 232.625 596.425 230.824 605.76 231.764C615.094 232.704 626.12 234.404 634.578 238.202C652.659 245.916 662.04 263.951 668.563 281.109C671.883 289.104 673.159 299.84 671.695 308.533C670.583 313.725 668.421 317.632 665.093 321.422C661.765 325.212 658.201 331.336 654.348 334.484C637.825 352.268 618.153 366.199 595.568 373.943C586.406 377.146 577.361 379.181 567.674 381.742C560.438 383.371 553.32 383.832 546.437 381.961C541.245 380.849 535.646 377.927 531.973 373.432C530.399 371.506 529.467 369.055 528.535 366.604C530.869 366.839 530.987 365.672 531.511 366.314Z" fill="black"/>
<path opacity="0.4" fill-rule="evenodd" clip-rule="evenodd" d="M675.753 262.385C677.092 266.645 679.598 271.023 681.579 274.758C683.388 274.351 684.962 276.277 686.653 277.037C688.987 277.272 690.154 277.39 692.08 275.816C694.006 274.242 695.933 272.668 697.217 271.618C699.261 268.878 699.379 267.711 699.089 264.735C698.799 261.759 698.392 259.95 696.293 257.382C694.719 255.455 692.503 254.053 690.17 253.818C688.478 253.059 686.145 252.824 684.336 253.231C680.193 253.403 679.316 256.261 678.439 259.12L675.753 262.385Z" fill="black"/>
</g>
</g>
<path fill-rule="evenodd" clip-rule="evenodd" d="M826.842 -197.014C848.918 -169.994 866.51 -141.27 879.138 -111.428C905.353 -50.5701 913.847 14.9724 904.676 79.2751C898.508 124.474 883.214 169.293 859.704 210.05C838.758 246.753 810.556 280.569 775.9 308.884C771.201 312.723 765.915 317.043 760.736 320.295C753.208 325.466 745.092 331.118 737.563 336.289C678.352 372.912 610.775 390.905 544.066 389.578C519.303 389.24 494.275 386.181 469.463 380.987C451.534 377.026 433.232 371.41 415.625 364.246C411.464 362.749 406.822 360.664 402.66 359.167C398.019 357.082 393.857 355.585 389.803 353.021C376.465 346.287 363.235 338.486 350.593 330.205C341.524 323.902 332.456 317.598 323.975 310.814C318.001 305.9 312.027 300.986 306.161 295.005C293.841 283.522 282.108 271.56 271.07 258.05C264.831 250.414 258.592 242.778 253.528 234.182C250.276 229.003 246.437 224.304 243.772 218.645C224.741 188.159 211.261 156.075 202.745 122.874C198.433 106.807 195.296 89.7804 193.706 73.4485C190.577 45.6414 190.169 17.5693 193.551 -10.6603C203.645 -100.206 247.894 -186.312 323.079 -247.74C326.016 -250.14 328.953 -252.54 331.89 -254.939C334.827 -257.339 338.351 -260.218 341.768 -262.03C358.587 -273.813 376.366 -284.421 393.93 -292.895C404.66 -297.744 415.391 -302.593 426.014 -306.375C433.327 -309.412 440.533 -311.381 448.327 -313.831C453.878 -315.428 459.43 -317.026 464.981 -318.623C466.049 -318.515 466.636 -318.995 468.29 -319.368C505.868 -328.521 544.936 -331.056 583.358 -327.187C588.695 -326.65 594.031 -326.112 599.368 -325.575C603.049 -324.665 606.839 -324.823 610.521 -323.913C616.924 -323.268 623.22 -321.556 629.037 -320.431C651.715 -315.452 673.591 -307.859 694.772 -298.718C719.527 -287.601 743.48 -273.868 765.564 -257.629C786.952 -239.843 808.126 -219.922 826.842 -197.014Z" fill="url(#paint2_radial_0_1)"/>
<path fill-rule="evenodd" clip-rule="evenodd" d="M466.155 -319.584C464.98 -318.624 464.393 -318.144 463.698 -316.597C461.241 -313.61 457.824 -311.798 454.407 -309.986C451.578 -308.653 449.443 -308.868 446.506 -306.469C442.502 -304.177 438.605 -302.952 434.601 -300.66C430.597 -298.368 426.7 -297.143 422.216 -295.438C418.319 -294.213 417.625 -292.666 415.755 -290.159C413.885 -287.652 411.164 -287.387 408.334 -286.055C405.025 -285.31 402.088 -282.91 399.258 -281.578C391.25 -276.994 382.282 -273.585 373.793 -269.588C368.722 -267.403 364.61 -264.044 359.911 -260.204C356.387 -257.325 354.41 -253.751 350.885 -250.871C348.536 -248.952 346.294 -248.099 343.944 -246.18C341.115 -244.847 339.245 -242.34 336.895 -240.421C332.891 -238.129 330.649 -237.276 328.085 -233.222C325.628 -230.235 323.866 -228.795 321.409 -225.808C318.472 -223.409 315.907 -219.355 313.45 -216.368C309.124 -210.874 304.21 -204.9 298.923 -200.581C295.399 -197.701 289.74 -195.037 287.763 -191.462C286.481 -189.435 287.225 -186.126 286.423 -183.511C285.886 -178.175 284.869 -173.426 284.919 -168.569C284.969 -163.713 285.499 -158.269 288.858 -154.157C291.737 -150.633 296.859 -147.961 301.021 -146.463C305.662 -144.379 308.649 -141.922 307.045 -136.693C305.332 -130.397 301.966 -123.728 298.706 -118.127C296.142 -114.072 293.685 -111.085 289.416 -111.515C287.761 -111.143 285.734 -112.425 283.599 -112.64C281.945 -112.268 280.662 -110.24 279.967 -108.693C277.403 -104.639 274.839 -100.585 271.794 -97.1179C269.925 -94.6109 269.122 -91.9963 266.773 -90.0767C264.903 -87.5697 261.701 -87.892 259.244 -84.9051C256.2 -81.4382 253.528 -76.3167 250.003 -73.4373C247.067 -71.0377 242.582 -69.333 239.273 -68.5881C237.618 -68.2157 236.071 -68.9105 234.789 -66.8834C233.614 -65.9236 233.292 -62.7216 233.664 -61.067C233.449 -58.9324 234.889 -57.1702 234.674 -55.0357C234.939 -52.3137 235.311 -50.659 235.576 -47.9371C236.214 -43.5604 236.851 -39.1838 237.489 -34.8071C237.754 -32.0852 238.978 -28.1883 238.656 -24.9864C239.028 -23.3318 237.746 -21.3048 237.051 -19.7576C235.554 -15.5959 234.537 -10.8468 233.04 -6.68508C231.113 1.74581 229.665 10.7642 227.738 19.1951C226.026 25.4914 221.592 32.0526 218.813 38.2414C216.836 41.8158 214.859 45.3901 212.881 48.9644C212.187 50.5116 210.424 51.9514 210.797 53.6061C210.582 55.7407 210.954 57.3953 211.807 59.6374C211.857 64.4939 211.799 70.4179 212.917 75.3819C213.661 78.6913 214.514 80.9333 215.259 84.2427C216.483 88.1394 217.121 92.5159 219.413 96.5201C222.343 104.901 228.101 111.95 230.444 120.811C232.148 125.295 232.678 130.739 233.796 135.703C235.658 143.976 240.829 151.504 245.521 158.446C247.813 162.45 252.24 166.669 255.706 169.713C259.653 173.345 263.013 177.457 266.372 181.568C269.731 185.68 270.634 192.779 270.684 197.635C270.734 202.492 267.582 207.026 267.045 212.363C266.615 216.632 265.597 221.381 267.302 225.865C267.675 227.52 269.702 228.802 271.141 230.564C273.434 234.568 274.658 238.465 277.538 241.989C280.31 246.581 283.669 250.693 287.508 255.392C289.428 257.741 290.868 259.503 292.788 261.853C294.707 264.202 296.734 265.485 298.761 266.767C299.721 267.942 301.161 269.704 302.121 270.879C303.561 272.641 306.175 273.443 307.135 274.618C311.669 277.77 315.136 280.814 319.083 284.446C322.55 287.49 327.191 289.575 330.658 292.619C336.259 295.878 340.686 300.098 346.18 304.424C349.647 307.469 353.006 311.58 356.473 314.625C359.46 317.082 362.447 319.539 364.847 322.476C368.686 327.175 370.87 332.246 374.71 336.945C380.949 344.581 390.124 349.818 398.125 356.014C400.632 357.884 402.66 359.166 405.167 361.035C355.069 339.28 309.462 305.039 272.509 259.811C227.397 204.597 201.504 140.537 194.078 75.1021C190.948 47.2949 190.541 19.2229 194.402 -8.41935C204.497 -97.9647 248.745 -184.071 323.93 -245.5C329.804 -250.299 336.266 -255.578 342.619 -259.79C378.557 -290.131 421.959 -308.94 466.155 -319.584Z" fill="url(#paint3_linear_0_1)"/>
<path fill-rule="evenodd" clip-rule="evenodd" d="M417.218 70.0757C418.973 79.4164 418.693 98.2553 429.308 105.254C433.843 108.406 439.659 109.53 444.78 112.202C457.638 118.349 475.195 120.656 481.183 104.009C487.974 84.7474 470.103 74.8619 455.591 69.0881C449.882 66.8961 443.105 64.5966 437.074 65.6064C433.765 66.3513 429.281 68.056 426.451 69.3883C420.312 71.4654 421.33 66.7163 417.218 70.0757Z" fill="#FF9F84"/>
<path fill-rule="evenodd" clip-rule="evenodd" d="M527.318 143.695C526.466 141.453 522.254 135.1 522.097 131.31C521.832 128.588 523.808 125.014 525.198 121.92C528.458 116.318 534.224 112.586 540.628 113.231C552.475 113.346 559.567 123.224 558.385 134.964C557.847 140.301 556.135 146.597 552.023 149.956C549.674 151.876 547.804 154.383 545.082 154.648C541.773 155.393 538.091 154.483 535.584 152.614C531.05 149.462 529.238 146.045 528.708 140.601L527.318 143.695Z" fill="#FF9F84"/>
<path fill-rule="evenodd" clip-rule="evenodd" d="M473.817 182.51C476.216 185.447 480.693 194.522 486.352 191.858C489.181 190.526 489.131 185.669 487.691 183.907C486.839 181.665 483.852 179.208 481.825 177.926C478.731 176.536 474.941 176.694 475.099 180.483L473.337 181.922L473.817 182.51Z" fill="#FF9F84"/>
<path fill-rule="evenodd" clip-rule="evenodd" d="M311.012 225.413C315.439 229.632 321.678 237.268 327.974 238.98C330.589 239.783 333.203 240.585 336.033 239.253C338.862 237.92 339.077 235.786 338.812 233.064C338.762 228.207 337.322 226.445 334.443 222.921C332.043 219.984 327.989 217.419 324.415 215.442C321.8 214.64 318.598 214.318 316.464 214.103C314.329 213.888 312.675 214.26 310.325 216.18C307.388 218.579 310.855 221.624 312.187 224.453L311.012 225.413Z" fill="#FF9F84"/>
<path fill-rule="evenodd" clip-rule="evenodd" d="M472.334 165.112C472.334 165.112 469.562 160.52 469.19 158.865C469.297 157.798 469.885 157.318 470.472 156.838C471.167 155.291 472.929 153.851 474.584 153.479C477.306 153.214 480.988 154.124 482.32 156.953C483.652 159.783 482.635 164.532 480.285 166.451C477.936 168.371 472.707 166.766 471.962 163.457L472.334 165.112Z" fill="#FF9F84"/>
<path fill-rule="evenodd" clip-rule="evenodd" d="M640.961 112.551C640.961 112.551 638.189 107.959 637.816 106.305C637.924 105.237 638.511 104.757 639.098 104.278C639.793 102.73 641.555 101.291 643.21 100.918C645.932 100.653 649.614 101.563 650.946 104.392C652.278 107.222 651.261 111.971 648.912 113.891C646.562 115.81 641.333 114.206 640.588 110.896L640.961 112.551Z" fill="#FF9F84"/>
<path fill-rule="evenodd" clip-rule="evenodd" d="M634.81 286.049C634.81 286.049 632.038 281.457 631.666 279.802C631.773 278.735 632.361 278.255 632.948 277.775C633.643 276.228 635.405 274.788 637.06 274.416C639.782 274.151 643.464 275.061 644.796 277.89C646.128 280.72 645.111 285.469 642.761 287.388C640.412 289.308 635.183 287.703 634.438 284.394L634.81 286.049Z" fill="#FF9F84"/>
<path fill-rule="evenodd" clip-rule="evenodd" d="M712.661 230.279C715.01 228.359 706.787 235.078 706.787 235.078C707.267 235.665 708.227 236.84 708.706 237.428C709.666 238.602 710.254 238.122 711.321 238.23C713.456 238.445 715.59 238.66 717.352 237.22C719.114 235.78 719.809 234.233 718.37 232.471C717.89 231.884 717.997 230.816 716.93 230.709C714.903 229.427 712.181 229.692 711.006 230.651L712.661 230.279Z" fill="#FFEF84"/>
<path fill-rule="evenodd" clip-rule="evenodd" d="M688.874 209.555C687.061 206.139 694.417 218.739 695.485 218.846C696.66 217.886 697.834 216.926 699.009 215.967C700.184 215.007 699.811 213.352 700.506 211.805C701.416 208.123 702.218 205.509 699.819 202.572C697.899 200.222 695.872 198.94 692.563 199.685C690.908 200.057 690.321 200.537 689.146 201.497C687.276 204.004 687.434 207.793 688.179 211.103L688.874 209.555Z" fill="#FF9F84"/>
<g opacity="0.25">
<path opacity="0.4" fill-rule="evenodd" clip-rule="evenodd" d="M207.211 27.3976C207.147 44.1019 207.777 59.259 212.088 75.3258C215.548 89.1507 223.384 102.338 230.74 114.938C234.844 122.359 239.536 129.3 244.12 137.309C248.332 143.662 251.369 150.976 256.755 156.37C264.649 163.633 272.435 171.964 282.306 175.653C292.656 179.93 302.527 183.619 313.572 186.349C324.138 188.491 333.478 186.736 342.769 180.125C347.948 176.873 351.687 171.859 356.866 168.607C363.807 163.915 371.228 159.811 378.649 155.707C393.491 147.498 408.176 135.5 408.936 117.249C409.373 102.199 404.259 88.7468 400.32 74.3346C396.488 58.8551 395.75 44.7654 398.909 29.4509C401.639 18.4055 402.821 6.66511 404.483 -4.48775C405.501 -9.23684 404.863 -13.6134 406.468 -18.8424C408.552 -23.4841 408.395 -27.2733 408.932 -32.6098C409.949 -37.3589 411.447 -41.5206 411.397 -46.3771C411.669 -54.4356 409.807 -62.7089 407.25 -69.4351C404.8 -77.2286 400.588 -83.5824 396.484 -91.0035C392.272 -97.3572 385.711 -101.791 379.15 -106.225C366.987 -113.919 351.83 -113.289 338.328 -113.031C321.036 -112.616 305.234 -105.582 289.912 -97.9613C276.245 -90.7126 261.08 -79.3023 250.665 -66.8746C239.662 -53.967 228.179 -41.6467 220.751 -26.762C215.3 -15.4517 214.332 -5.84611 212.563 6.37404C211.438 12.1904 209.246 17.8995 208.601 24.3032C208.329 32.3617 208.536 41.0075 207.211 27.3976Z" fill="black"/>
<path opacity="0.4" fill-rule="evenodd" clip-rule="evenodd" d="M436.212 -121.503C434.607 -116.274 432.415 -110.565 431.29 -104.748C430.058 -97.8645 429.893 -90.8733 430.208 -83.2948C430.415 -74.6489 429.928 -64.456 437.342 -57.7798C444.275 -51.691 451.904 -47.1495 461.03 -46.7696C472.29 -46.1748 482.276 -54.3333 492.791 -57.0479C501.652 -59.39 511.043 -56.2881 519.258 -52.2264C531.636 -46.6676 543.649 -53.5439 554.487 -59.4603C561.32 -63.0847 568.262 -67.7763 575.095 -71.4007C584.278 -76.9447 593.462 -82.4887 602.645 -88.0327C618.877 -99.3357 637.028 -108.289 651.34 -121.941C666.827 -136.554 676.713 -154.425 681.956 -174.382C686.878 -191.136 685.933 -213.872 677.832 -229.781C669.251 -246.278 651.594 -258.298 634.575 -265.941C612.326 -275.189 589.756 -281.235 566.01 -286.322C552.83 -289.266 540.023 -290.556 526.735 -292.433C515.103 -294.682 504.429 -295.757 493.169 -296.352C467.339 -296.796 439.905 -292.012 418.974 -276.87C410.858 -271.219 404.182 -263.805 398.945 -254.629C394.404 -247.001 392.584 -239.637 392.204 -230.511C390.535 -208.578 397.031 -187.439 404.702 -167.261C408.592 -157.705 412.961 -147.562 420.375 -140.886C422.294 -138.537 425.496 -138.214 427.416 -135.865C429.335 -133.515 430.775 -131.753 432.695 -129.403C433.654 -128.229 434.614 -127.054 434.987 -125.399C435.359 -123.745 435.037 -120.543 436.212 -121.503Z" fill="black"/>
<path opacity="0.4" fill-rule="evenodd" clip-rule="evenodd" d="M417.886 -14.4576C414.089 -3.51968 408.745 6.72329 408.63 18.571C408.415 20.7056 408.68 23.4276 410.707 24.7099C412.734 25.9921 416.044 25.2472 418.286 24.3948C426.079 21.9452 434.088 17.3611 439.589 10.9073C444.503 4.93341 448.672 -4.34987 447.29 -12.0359C446.123 -21.8565 432.785 -28.5901 425.042 -21.284C423.867 -20.3241 423.172 -18.7769 421.997 -17.817C420.823 -16.8572 420.235 -16.3773 419.06 -15.4175C417.886 -14.4577 417.886 -14.4577 417.191 -12.9105C416.976 -10.7759 416.761 -8.64121 417.886 -14.4576Z" fill="black"/>
<path opacity="0.4" fill-rule="evenodd" clip-rule="evenodd" d="M344.767 224.529C344.23 229.865 342.625 235.094 343.742 240.058C344.86 245.022 346.564 249.506 349.336 254.098C351.628 258.102 353.333 262.586 357.387 265.151C360.374 267.608 364.536 269.105 368.59 271.67C373.124 274.821 377.766 276.906 381.713 280.538C387.207 284.864 392.328 287.536 398.517 290.316C404.706 293.095 410.415 295.287 416.711 296.999C423.487 299.299 428.824 299.836 435.707 301.068C459.188 303.433 485.978 305.052 506.694 292.045C517.052 285.541 525.118 275.033 526.407 262.225C527.804 248.35 523.865 233.938 516.989 221.926C510.965 212.155 502.699 203.237 491.761 199.44C482.37 196.338 472.98 193.236 463.961 191.789C457.557 191.144 451.634 191.087 444.643 190.922C438.239 190.277 431.835 189.632 425.804 190.642C414.436 191.115 403.655 191.107 392.768 192.167C382.467 192.747 371.579 193.807 362.503 198.284C356.257 201.428 349.424 205.052 346.057 211.721C344.667 214.816 343.385 216.843 343.65 219.565C344.022 221.219 344.287 223.941 345.247 225.116C343.112 224.901 342.525 225.381 344.767 224.529Z" fill="black"/>
<path opacity="0.4" fill-rule="evenodd" clip-rule="evenodd" d="M384.028 171.881C385.948 174.23 388.455 176.1 389.894 177.862C390.374 178.449 391.442 178.557 392.401 179.732C393.469 179.839 395.231 178.399 395.818 177.919C398.168 176 399.558 172.905 400.36 170.291C401.377 165.542 398.712 159.883 393.856 159.933C390.654 159.611 386.757 160.835 384.3 163.822C383.606 165.369 379.544 173.585 383.813 174.015L384.028 171.881Z" fill="black"/>
<path opacity="0.4" fill-rule="evenodd" clip-rule="evenodd" d="M762.394 -36.3688C764.099 -31.8847 766.284 -26.8132 767.401 -21.8491C768.998 -16.2977 770.115 -11.3336 771.713 -5.78213C775.759 7.56277 782.528 20.6426 788.23 33.6151C794.411 47.1749 802.247 60.3623 810.191 72.4824C814.403 78.8362 818.027 85.6698 823.413 91.0638C826.773 95.1755 831.092 100.462 836.213 103.134C839.308 104.524 845.017 106.716 848.326 105.971C853.29 104.853 855.002 98.5572 856.499 94.3955C862.861 79.4034 866.128 63.0214 867.74 47.012C869.352 31.0025 871.444 15.5805 870.921 -0.643852C870.606 -8.22239 870.771 -15.2136 869.389 -22.8996C868.379 -28.931 866.302 -35.0697 864.705 -40.6212C863.107 -46.1726 861.51 -51.7238 859.913 -57.2752C858.423 -63.8939 855.866 -70.6202 853.309 -77.3463C848.087 -89.7314 842.866 -102.117 831.183 -109.223C821.047 -115.634 808.72 -116.336 797.882 -110.42C792.223 -107.755 785.389 -104.131 780.69 -100.291C776.471 -95.8647 772.144 -90.3707 768.885 -84.7693C766.213 -79.6478 763.541 -74.5262 761.937 -69.2972C761.134 -66.6827 760.812 -63.4811 760.49 -60.2792C759.952 -54.9427 760.002 -50.0862 760.532 -44.6422C760.797 -41.9202 761.169 -40.2654 760.367 -37.6509C762.179 -34.2341 763.404 -30.3375 762.394 -36.3688Z" fill="black"/>
<path opacity="0.4" fill-rule="evenodd" clip-rule="evenodd" d="M823.441 128.261C819.487 135.41 816.227 141.011 814.3 149.442C812.266 158.94 809.751 167.851 810.918 177.672C811.076 181.461 811.018 187.385 815.767 188.402C819.449 189.312 822.974 186.433 825.911 184.033C830.022 180.674 833.654 176.727 835.738 172.085C838.303 168.031 839.32 163.282 841.885 159.227C844.449 155.173 847.229 148.985 847.179 144.128C846.914 141.406 846.169 138.097 845.904 135.375C845.639 132.653 845.159 132.065 843.239 129.716C841.32 127.366 837.158 125.869 835.023 125.654C832.889 125.439 828.512 126.077 827.23 128.104C826.055 129.064 825.36 130.611 824.665 132.158C822.316 134.077 822.953 138.454 823.441 128.261Z" fill="black"/>
<path opacity="0.4" fill-rule="evenodd" clip-rule="evenodd" d="M788.558 99.9523C783.543 96.2131 779.969 94.2361 776.13 89.537C773.358 84.9455 770.478 81.421 769.361 76.457C769.096 73.735 767.606 67.1165 768.888 65.0893C769.476 64.6094 771.238 63.1697 771.825 62.6898C775.242 60.8776 779.884 62.9621 782.871 65.4191C787.405 68.5709 790.069 74.2299 794.496 78.4491C797.375 81.9734 799.188 85.3902 800.413 89.2869C801.157 92.5963 799.395 94.0358 797.046 95.9555C794.696 97.8751 793.042 98.2477 789.84 97.9253C788.772 97.8178 787.597 98.7777 786.53 98.6702C784.396 98.4553 783.436 97.2804 788.558 99.9523Z" fill="black"/>
<path opacity="0.4" fill-rule="evenodd" clip-rule="evenodd" d="M530.252 336.464C529.134 331.5 528.017 326.535 527.967 321.679C528.025 315.755 528.562 310.419 529.099 305.082C530.331 298.198 531.564 291.315 533.276 285.018C534.988 278.722 536.113 272.906 537.825 266.609C541.034 256.151 546.271 246.976 552.094 237.32C556.636 229.691 563.205 223.345 571.213 218.761C579.221 214.177 589.629 212.53 598.168 213.389C606.706 214.249 616.792 215.804 624.528 219.278C641.067 226.334 649.648 242.831 655.614 258.525C658.651 265.839 659.819 275.659 658.479 283.61C657.462 288.359 655.485 291.934 652.44 295.401C649.396 298.867 646.137 304.469 642.612 307.348C627.498 323.615 609.504 336.358 588.845 343.442C580.465 346.371 572.191 348.234 563.33 350.576C556.712 352.065 550.2 352.488 543.904 350.776C539.155 349.759 534.034 347.086 530.674 342.975C529.234 341.213 528.382 338.971 527.53 336.729C529.664 336.944 529.772 335.876 530.252 336.464Z" fill="black"/>
<path opacity="0.4" fill-rule="evenodd" clip-rule="evenodd" d="M662.191 241.399C663.416 245.295 665.708 249.299 667.52 252.716C669.175 252.344 670.614 254.106 672.162 254.801C674.296 255.016 675.364 255.123 677.126 253.684C678.888 252.244 680.65 250.804 681.825 249.844C683.694 247.337 683.802 246.27 683.537 243.548C683.272 240.826 682.899 239.171 680.98 236.822C679.54 235.06 677.513 233.777 675.378 233.563C673.831 232.868 671.697 232.653 670.042 233.025C666.253 233.183 665.45 235.797 664.648 238.412L662.191 241.399Z" fill="black"/>
</g>
<defs>
<filter id="filter0_f_0_1" x="60.8267" y="-461.125" width="983.923" height="985.581" filterUnits="userSpaceOnUse" color-interpolation-filters="sRGB">
<feFlood flood-opacity="0" result="BackgroundImageFix"/>
<feBlend mode="normal" in="SourceGraphic" in2="BackgroundImageFix" result="shape"/>
<feGaussianBlur stdDeviation="50" result="effect1_foregroundBlur_0_1"/>
</filter>
<radialGradient id="paint0_radial_0_1" cx="0" cy="0" r="1" gradientUnits="userSpaceOnUse" gradientTransform="translate(246.811 43.439) rotate(-39.25) scale(631.058)">
<stop offset="0.00558659" stop-color="#DE6863"/>
<stop offset="0.2018" stop-color="#DB6563"/>
<stop offset="0.3542" stop-color="#D15D62"/>
<stop offset="0.4919" stop-color="#C14F60"/>
<stop offset="0.6209" stop-color="#A93B5E"/>
<stop offset="0.7437" stop-color="#8B225B"/>
<stop offset="0.8606" stop-color="#670357"/>
<stop offset="0.8715" stop-color="#630057"/>
</radialGradient>
<linearGradient id="paint1_linear_0_1" x1="179.063" y1="196.896" x2="616.687" y2="-160.658" gradientUnits="userSpaceOnUse">
<stop offset="0.0111732" stop-color="#FF7D85"/>
<stop offset="0.2983" stop-color="#FC7B84"/>
<stop offset="0.5089" stop-color="#F3757F"/>
<stop offset="0.695" stop-color="#E36B77"/>
<stop offset="0.8659" stop-color="#CC5C6C"/>
<stop offset="1" stop-color="#B54D61"/>
</linearGradient>
<radialGradient id="paint2_radial_0_1" cx="0" cy="0" r="1" gradientUnits="userSpaceOnUse" gradientTransform="translate(269.833 41.1257) rotate(-39.25) scale(577.236)">
<stop offset="0.00558659" stop-color="#DE6863"/>
<stop offset="0.2018" stop-color="#DB6563"/>
<stop offset="0.3542" stop-color="#D15D62"/>
<stop offset="0.4919" stop-color="#C14F60"/>
<stop offset="0.6209" stop-color="#A93B5E"/>
<stop offset="0.7437" stop-color="#8B225B"/>
<stop offset="0.8606" stop-color="#670357"/>
<stop offset="0.8715" stop-color="#630057"/>
</radialGradient>
<linearGradient id="paint3_linear_0_1" x1="207.863" y1="181.494" x2="608.163" y2="-145.564" gradientUnits="userSpaceOnUse">
<stop offset="0.0111732" stop-color="#FF7D85"/>
<stop offset="0.2983" stop-color="#FC7B84"/>
<stop offset="0.5089" stop-color="#F3757F"/>
<stop offset="0.695" stop-color="#E36B77"/>
<stop offset="0.8659" stop-color="#CC5C6C"/>
<stop offset="1" stop-color="#B54D61"/>
</linearGradient>
</defs>
</svg>
