<svg width="547" height="547" viewBox="0 0 547 547" fill="none" xmlns="http://www.w3.org/2000/svg">
<path opacity="0.01" fill-rule="evenodd" clip-rule="evenodd" d="M435.897 55.2086C556.471 145.005 581.158 315.654 491.354 435.86C401.549 556.423 231.243 581.108 110.67 491.312C-9.90411 401.515 -34.5913 231.224 55.2129 110.661C144.659 -9.90282 315.323 -34.5879 435.897 55.2086Z" fill="url(#paint0_linear_102_360)"/>
<path opacity="0.0196078" fill-rule="evenodd" clip-rule="evenodd" d="M435.182 56.2817C555.04 145.721 579.727 315.297 490.281 435.145C400.834 554.993 231.244 580.035 111.386 490.597C-8.47264 401.158 -33.1598 231.582 56.2866 111.734C145.375 -8.47199 314.966 -33.1571 435.182 56.2817Z" fill="url(#paint1_linear_102_360)"/>
<path opacity="0.0294118" fill-rule="evenodd" clip-rule="evenodd" d="M434.466 56.9972C553.967 146.078 578.296 314.939 489.565 434.071C400.476 553.561 231.602 578.247 112.459 489.165C-6.68363 400.084 -31.3708 231.582 57.36 112.091C146.091 -7.04109 314.966 -31.7261 434.466 56.9972Z" fill="url(#paint2_linear_102_360)"/>
<path opacity="0.0392157" fill-rule="evenodd" clip-rule="evenodd" d="M433.75 58.0707C552.535 146.794 577.222 314.581 488.492 433.356C400.118 552.13 231.959 576.816 113.174 488.092C-5.61049 399.369 -30.2978 231.582 58.4331 112.807C146.448 -5.9675 314.608 -30.2948 433.75 58.0707Z" fill="url(#paint3_linear_102_360)"/>
<path opacity="0.0490196" fill-rule="evenodd" clip-rule="evenodd" d="M432.677 59.1439C551.104 147.152 575.434 314.581 487.061 432.64C399.045 551.057 231.602 575.385 113.174 487.019C-4.89483 399.011 -29.5821 231.582 58.791 113.523C147.164 -4.53646 314.608 -28.8638 432.677 59.1439Z" fill="url(#paint4_linear_102_360)"/>
<path opacity="0.0588235" fill-rule="evenodd" clip-rule="evenodd" d="M431.961 60.217C549.673 147.867 574.002 314.581 485.987 431.925C398.329 549.626 231.601 573.953 113.89 486.303C-3.82181 398.653 -28.1511 232.297 59.8641 114.596C147.879 -3.10558 314.25 -27.433 431.961 60.217Z" fill="url(#paint5_linear_102_360)"/>
<path opacity="0.0686274" fill-rule="evenodd" clip-rule="evenodd" d="M431.246 61.2904C548.6 148.583 572.572 314.223 485.272 431.567C397.972 548.553 232.317 572.88 114.964 485.588C-2.03228 397.938 -26.3617 232.297 60.938 115.311C148.238 -2.03234 314.25 -26.0019 431.246 61.2904Z" fill="url(#paint6_linear_102_360)"/>
<path opacity="0.0784314" fill-rule="evenodd" clip-rule="evenodd" d="M430.53 62.0058C547.168 148.94 571.14 313.865 484.198 430.494C397.256 547.122 232.317 571.091 115.679 484.157C-0.959228 397.222 -24.9309 232.297 62.0111 115.669C148.953 -0.601348 313.892 -24.5709 430.53 62.0058Z" fill="url(#paint7_linear_102_360)"/>
<path opacity="0.0882353" fill-rule="evenodd" clip-rule="evenodd" d="M429.815 63.0792C545.737 149.656 569.709 313.866 483.125 429.778C396.541 545.691 232.317 569.66 116.394 483.441C0.471746 396.865 -23.4999 233.013 63.0843 116.743C149.668 0.472095 313.892 -23.1397 429.815 63.0792Z" fill="url(#paint8_linear_102_360)"/>
<path opacity="0.0980392" fill-rule="evenodd" clip-rule="evenodd" d="M429.099 64.1525C544.664 150.371 568.278 313.508 482.409 429.063C396.54 544.617 233.032 568.229 117.468 482.368C1.9028 396.149 -21.711 233.013 64.1575 117.458C150.026 1.903 313.534 -21.7087 429.099 64.1525Z" fill="url(#paint9_linear_102_360)"/>
<path opacity="0.1078" fill-rule="evenodd" clip-rule="evenodd" d="M428.383 65.2257C543.233 151.087 567.204 313.508 481.336 428.347C395.825 543.187 233.032 567.156 118.183 481.295C3.33386 395.434 -20.6378 233.013 65.2308 118.173C150.742 3.33405 313.534 -20.2778 428.383 65.2257Z" fill="url(#paint10_linear_102_360)"/>
<path opacity="0.1176" fill-rule="evenodd" clip-rule="evenodd" d="M427.668 66.2988C542.159 151.445 565.773 313.508 480.263 427.631C395.11 542.113 233.033 565.725 118.899 480.221C4.40749 395.076 -19.2064 233.37 66.3044 118.889C151.457 4.40727 313.177 -18.8468 427.668 66.2988Z" fill="url(#paint11_linear_102_360)"/>
<path opacity="0.1275" fill-rule="evenodd" clip-rule="evenodd" d="M426.953 67.0146C540.728 151.803 564.342 312.792 479.547 426.558C394.752 540.324 233.748 563.936 119.972 479.148C5.83872 394.36 -17.7751 233.371 67.0201 119.605C151.815 5.8385 312.819 -17.4156 426.953 67.0146Z" fill="url(#paint12_linear_102_360)"/>
<path opacity="0.1373" fill-rule="evenodd" clip-rule="evenodd" d="M426.237 68.0878C539.655 152.518 562.911 312.792 478.473 425.843C394.036 539.251 233.748 562.506 120.688 478.075C7.62748 393.645 -15.9864 233.371 68.451 120.32C152.531 7.26954 312.819 -15.9847 426.237 68.0878Z" fill="url(#paint13_linear_102_360)"/>
<path opacity="0.1471" fill-rule="evenodd" clip-rule="evenodd" d="M425.164 69.1609C537.866 153.233 561.122 312.792 477.043 425.127C392.963 537.82 233.748 561.074 120.688 477.002C7.98565 392.929 -15.2704 233.728 68.8092 121.035C153.247 8.34257 312.461 -14.5538 425.164 69.1609Z" fill="url(#paint14_linear_102_360)"/>
<path opacity="0.1569" fill-rule="evenodd" clip-rule="evenodd" d="M424.448 70.2343C536.793 153.949 559.691 312.434 475.969 424.412C392.247 536.389 233.748 559.643 121.404 476.286C9.41663 392.572 -13.8394 234.086 69.8824 122.109C153.604 9.7737 312.461 -13.4804 424.448 70.2343Z" fill="url(#paint15_linear_102_360)"/>
<path opacity="0.1667" fill-rule="evenodd" clip-rule="evenodd" d="M423.732 71.3074C535.362 154.664 558.26 312.434 475.254 423.696C392.247 535.316 234.106 558.212 122.477 475.213C10.8478 391.856 -12.0506 234.444 70.9557 122.824C154.32 11.2044 312.103 -12.0496 423.732 71.3074Z" fill="url(#paint16_linear_102_360)"/>
<path opacity="0.1765" fill-rule="evenodd" clip-rule="evenodd" d="M423.017 72.3806C533.93 155.022 556.829 312.076 474.18 423.338C391.532 534.242 234.464 557.139 123.192 474.497C12.2787 391.856 -10.6196 234.801 72.0289 123.54C155.035 12.2777 312.103 -10.6185 423.017 72.3806Z" fill="url(#paint17_linear_102_360)"/>
<path opacity="0.1863" fill-rule="evenodd" clip-rule="evenodd" d="M422.301 73.0963C532.857 155.38 555.756 311.719 473.107 422.265C390.816 532.812 234.464 555.708 123.908 473.067C13.3524 390.783 -9.54597 234.444 73.1025 123.898C155.393 13.709 311.746 -9.1874 422.301 73.0963Z" fill="url(#paint18_linear_102_360)"/>
<path opacity="0.1961" fill-rule="evenodd" clip-rule="evenodd" d="M421.585 74.1695C531.426 156.095 554.324 311.719 472.391 421.55C390.458 531.381 234.821 554.277 124.981 472.351C15.1408 390.425 -7.75738 235.159 74.1756 124.971C156.109 15.1399 311.745 -7.75648 421.585 74.1695Z" fill="url(#paint19_linear_102_360)"/>
<path opacity="0.2059" fill-rule="evenodd" clip-rule="evenodd" d="M420.87 75.2427C530.353 156.811 552.893 311.361 471.318 420.834C389.743 530.307 235.179 552.846 125.697 471.278C16.2144 389.71 -6.32613 235.159 75.249 125.686C156.824 16.2132 311.388 -6.32549 420.87 75.2427Z" fill="url(#paint20_linear_102_360)"/>
<path opacity="0.2157" fill-rule="evenodd" clip-rule="evenodd" d="M420.154 76.316C528.921 157.526 551.462 311.361 470.244 420.119C389.027 528.876 235.179 551.415 126.412 470.204C17.6454 388.994 -4.89513 235.159 76.3222 126.402C157.182 17.6441 311.388 -4.89445 420.154 76.316Z" fill="url(#paint21_linear_102_360)"/>
<path opacity="0.2255" fill-rule="evenodd" clip-rule="evenodd" d="M419.439 77.3895C527.848 158.242 550.031 311.361 469.171 419.403C388.669 527.803 235.179 549.984 127.128 469.131C18.719 388.279 -3.46368 235.517 77.3959 127.117C157.898 19.0753 311.03 -3.46317 419.439 77.3895Z" fill="url(#paint22_linear_102_360)"/>
<path opacity="0.2353" fill-rule="evenodd" clip-rule="evenodd" d="M418.723 78.1048C526.417 158.242 548.6 310.646 468.456 418.33C388.312 526.014 235.895 548.195 128.201 468.058C20.5079 387.921 -1.67477 235.517 78.4692 127.833C158.255 20.1486 311.03 -2.03232 418.723 78.1048Z" fill="url(#paint23_linear_102_360)"/>
<path opacity="0.2451" fill-rule="evenodd" clip-rule="evenodd" d="M417.65 79.1783C524.986 158.958 546.811 310.646 467.025 417.614C387.238 524.583 235.537 546.764 128.559 466.984C21.5815 387.205 -0.601181 235.517 79.185 128.548C158.971 21.5797 310.672 -0.601032 417.65 79.1783Z" fill="url(#paint24_linear_102_360)"/>
<path opacity="0.2549" fill-rule="evenodd" clip-rule="evenodd" d="M416.934 80.2516C523.554 159.673 545.737 310.646 465.951 416.899C386.523 523.51 235.537 545.333 128.917 465.912C22.2968 386.49 0.114 235.875 79.9002 129.264C159.686 23.0108 310.314 0.829905 416.934 80.2516Z" fill="url(#paint25_linear_102_360)"/>
<path opacity="0.2647" fill-rule="evenodd" clip-rule="evenodd" d="M416.219 81.3245C522.481 160.388 544.306 310.288 465.236 416.183C386.165 522.079 236.253 544.26 129.99 465.196C24.0858 386.132 1.90312 236.233 80.9738 130.337C160.044 24.0837 310.314 2.26059 416.219 81.3245Z" fill="url(#paint26_linear_102_360)"/>
<path opacity="0.2745" fill-rule="evenodd" clip-rule="evenodd" d="M415.503 82.3979C521.05 161.104 542.875 310.288 464.162 415.826C385.449 521.363 236.253 543.186 130.706 464.48C25.1593 385.774 3.33434 236.59 82.0472 131.053C160.76 25.515 309.957 3.69183 415.503 82.3979Z" fill="url(#paint27_linear_102_360)"/>
<path opacity="0.2843" fill-rule="evenodd" clip-rule="evenodd" d="M414.788 83.4709C519.619 161.819 541.444 310.288 463.089 415.11C384.734 519.932 236.253 541.755 131.421 463.407C26.5903 385.059 4.76534 236.948 83.1204 131.768C161.475 26.5878 309.957 5.12252 414.788 83.4709Z" fill="url(#paint28_linear_102_360)"/>
<path opacity="0.2941" fill-rule="evenodd" clip-rule="evenodd" d="M414.072 84.1867C518.546 161.82 540.013 309.572 462.373 414.037C384.734 518.501 236.968 539.967 132.495 461.976C28.0213 384.343 6.55419 236.59 84.1937 132.126C161.833 28.0192 309.599 6.55386 414.072 84.1867Z" fill="url(#paint29_linear_102_360)"/>
<path opacity="0.3039" fill-rule="evenodd" clip-rule="evenodd" d="M413.356 85.2598C517.114 162.535 538.581 309.572 461.3 413.321C384.018 517.07 236.968 538.536 133.21 461.261C29.4524 383.986 7.98518 236.948 85.2669 133.199C162.549 29.4501 309.599 7.98473 413.356 85.2598Z" fill="url(#paint30_linear_102_360)"/>
<path opacity="0.3137" fill-rule="evenodd" clip-rule="evenodd" d="M412.641 86.3332C516.041 163.251 537.151 309.572 460.227 412.606C383.303 515.639 236.968 537.105 133.926 460.187C30.5259 383.27 9.41656 237.306 86.3405 133.915C163.264 30.5234 309.241 9.41586 412.641 86.3332Z" fill="url(#paint31_linear_102_360)"/>
<path opacity="0.3235" fill-rule="evenodd" clip-rule="evenodd" d="M411.925 87.4066C514.61 163.966 535.719 309.215 459.153 411.891C382.587 514.566 237.326 535.674 134.641 459.114C31.9569 382.554 10.8475 237.306 87.4137 134.63C163.622 31.9547 309.241 10.8471 411.925 87.4066Z" fill="url(#paint32_linear_102_360)"/>
<path opacity="0.3333" fill-rule="evenodd" clip-rule="evenodd" d="M411.21 88.4798C513.536 164.682 534.646 309.215 458.437 411.175C382.229 513.135 237.684 534.243 135.715 458.399C33.388 382.197 12.2787 238.021 88.487 135.703C164.338 33.3855 308.883 12.2779 411.21 88.4798Z" fill="url(#paint33_linear_102_360)"/>
<path opacity="0.3431" fill-rule="evenodd" clip-rule="evenodd" d="M410.137 89.1953C511.748 165.039 532.857 308.499 457.007 410.102C381.156 511.704 237.326 532.811 136.073 456.967C34.4616 381.123 13.3522 237.664 89.2028 136.061C165.053 34.4587 308.883 13.709 410.137 89.1953Z" fill="url(#paint34_linear_102_360)"/>
<path opacity="0.3529" fill-rule="evenodd" clip-rule="evenodd" d="M409.421 90.2685C510.674 165.755 531.426 308.499 455.933 409.386C380.798 510.273 237.684 531.381 136.788 455.894C35.8926 380.408 14.7832 237.664 90.276 136.777C165.411 35.8897 308.525 15.14 409.421 90.2685Z" fill="url(#paint35_linear_102_360)"/>
<path opacity="0.3627" fill-rule="evenodd" clip-rule="evenodd" d="M408.705 91.3417C509.243 166.113 529.994 308.499 455.217 408.671C380.44 509.2 238.041 529.95 137.504 454.821C36.9658 380.05 16.2142 238.021 90.9914 137.492C166.126 37.3208 308.167 16.5709 408.705 91.3417Z" fill="url(#paint36_linear_102_360)"/>
<path opacity="0.3725" fill-rule="evenodd" clip-rule="evenodd" d="M407.99 92.4147C507.812 166.828 528.564 308.141 454.144 407.955C379.725 507.769 238.399 528.519 138.219 454.106C38.3972 379.692 17.6457 238.379 92.0651 138.565C166.842 38.3937 308.168 18.0016 407.99 92.4147Z" fill="url(#paint37_linear_102_360)"/>
<path opacity="0.3824" fill-rule="evenodd" clip-rule="evenodd" d="M407.274 93.4884C506.738 167.544 527.132 308.141 453.071 407.597C379.009 507.053 238.399 527.445 138.935 453.39C39.4703 379.335 19.0765 238.737 93.1382 139.281C167.2 39.8252 307.81 19.4332 407.274 93.4884Z" fill="url(#paint38_linear_102_360)"/>
<path opacity="0.3922" fill-rule="evenodd" clip-rule="evenodd" d="M406.559 94.2036C505.308 167.901 525.701 307.784 451.998 406.524C378.294 505.264 238.4 525.656 139.651 451.959C40.9018 378.261 20.508 238.737 94.2118 139.639C167.916 41.2559 307.81 20.8638 406.559 94.2036Z" fill="url(#paint39_linear_102_360)"/>
<path opacity="0.402" fill-rule="evenodd" clip-rule="evenodd" d="M405.843 95.2769C504.234 168.617 524.628 307.426 451.282 405.808C377.936 503.833 239.115 524.225 140.724 451.243C42.3329 377.904 21.9391 239.094 95.2852 140.712C168.631 42.3289 307.452 22.2948 405.843 95.2769Z" fill="url(#paint40_linear_102_360)"/>
<path opacity="0.4118" fill-rule="evenodd" clip-rule="evenodd" d="M405.128 96.3503C502.803 169.332 523.197 307.426 450.208 405.093C377.22 502.76 239.115 522.794 141.439 450.17C43.7639 377.188 23.3701 239.094 96.3584 141.427C168.989 43.7602 307.452 23.7261 405.128 96.3503Z" fill="url(#paint41_linear_102_360)"/>
<path opacity="0.4216" fill-rule="evenodd" clip-rule="evenodd" d="M404.412 97.4235C501.73 169.69 521.766 307.426 449.135 404.377C376.863 501.329 239.115 521.363 142.155 449.097C44.8375 376.83 24.8015 239.452 97.432 142.143C169.705 45.1913 307.094 25.157 404.412 97.4235Z" fill="url(#paint42_linear_102_360)"/>
<path opacity="0.4314" fill-rule="evenodd" clip-rule="evenodd" d="M403.697 98.4969C500.299 170.406 520.335 307.068 448.42 403.662C376.505 500.256 239.831 520.29 143.229 448.024C46.6265 376.115 26.5905 239.452 98.5054 142.859C170.42 46.2647 307.094 26.2304 403.697 98.4969Z" fill="url(#paint43_linear_102_360)"/>
<path opacity="0.4412" fill-rule="evenodd" clip-rule="evenodd" d="M402.623 99.5702C498.867 171.121 518.546 307.068 446.989 402.947C375.431 498.825 239.473 518.859 143.586 447.308C47.3421 375.757 27.6639 239.81 99.221 143.932C170.778 47.6958 306.737 27.6615 402.623 99.5702Z" fill="url(#paint44_linear_102_360)"/>
<path opacity="0.451" fill-rule="evenodd" clip-rule="evenodd" d="M401.908 100.285C497.436 171.479 517.115 306.71 445.915 401.873C374.716 497.394 239.473 517.07 144.302 445.877C48.7731 374.684 29.0949 239.81 100.294 144.289C171.494 49.1263 306.737 29.092 401.908 100.285Z" fill="url(#paint45_linear_102_360)"/>
<path opacity="0.4608" fill-rule="evenodd" clip-rule="evenodd" d="M401.192 101.359C496.363 172.195 515.684 306.353 445.2 401.158C374.358 495.963 240.189 515.639 145.018 444.804C50.2043 373.968 30.5261 239.81 101.01 145.005C172.209 50.2001 306.379 30.5235 401.192 101.359Z" fill="url(#paint46_linear_102_360)"/>
<path opacity="0.4706" fill-rule="evenodd" clip-rule="evenodd" d="M400.476 102.432C494.931 172.91 514.252 306.353 444.126 400.442C373.642 494.89 240.188 514.208 145.733 443.731C51.2773 373.253 31.9568 239.81 102.083 145.721C172.567 51.631 306.378 31.9545 400.476 102.432Z" fill="url(#paint47_linear_102_360)"/>
<path opacity="0.4804" fill-rule="evenodd" clip-rule="evenodd" d="M399.761 103.505C493.5 173.268 513.179 305.995 443.053 400.084C373.284 493.816 240.188 513.135 146.448 443.373C52.7084 373.611 33.0301 240.883 103.156 146.794C173.282 52.7042 306.021 33.3855 399.761 103.505Z" fill="url(#paint48_linear_102_360)"/>
<path opacity="0.4902" fill-rule="evenodd" clip-rule="evenodd" d="M399.045 104.579C492.427 173.983 511.748 305.995 441.979 399.369C372.569 492.385 240.546 511.704 147.164 442.3C53.7819 372.895 34.4614 240.883 104.23 147.509C173.64 54.1352 305.663 34.8164 399.045 104.579Z" fill="url(#paint49_linear_102_360)"/>
<path opacity="0.5" fill-rule="evenodd" clip-rule="evenodd" d="M398.33 105.294C490.996 174.341 510.316 305.637 441.264 398.295C372.211 490.954 240.904 509.915 148.237 440.868C55.5709 371.822 36.2505 240.883 105.303 147.867C174.356 55.5661 305.663 36.2475 398.33 105.294Z" fill="url(#paint50_linear_102_360)"/>
<path fill-rule="evenodd" clip-rule="evenodd" d="M398.33 105.294C490.996 174.341 510.316 305.637 441.264 398.295C372.211 490.954 240.904 509.915 148.237 440.868C55.5709 371.822 36.2505 240.883 105.303 147.867C174.356 55.5661 305.663 36.2475 398.33 105.294Z" fill="url(#paint51_linear_102_360)"/>
<path fill-rule="evenodd" clip-rule="evenodd" d="M398.329 105.294C490.996 174.341 510.316 305.637 441.264 398.295C409.778 440.511 365.771 467.342 318.185 477.717C297.792 466.269 277.398 453.032 257.362 438.364C158.613 364.667 95.6426 268.788 83.1201 185.789C89.2025 172.91 96.7159 160.031 105.661 148.225C174.355 55.5664 305.663 36.2476 398.329 105.294Z" fill="url(#paint52_linear_102_360)"/>
<path fill-rule="evenodd" clip-rule="evenodd" d="M398.329 105.294C452.713 145.721 481.693 207.255 482.767 270.219C411.925 305.279 283.838 274.512 168.989 189.009C148.237 173.626 129.275 157.169 111.743 140.354C181.869 54.4931 308.525 38.3941 398.329 105.294Z" fill="url(#paint53_linear_102_360)"/>
<path fill-rule="evenodd" clip-rule="evenodd" d="M420.512 421.908C412.283 430.136 403.339 437.649 394.036 444.088C345.735 427.274 296.003 401.158 248.417 365.74C172.925 309.215 117.468 240.168 88.4873 173.625C93.1385 165.039 98.8631 156.453 104.588 148.225C117.11 131.41 131.779 117.458 147.522 105.294C167.558 184.716 229.813 272.724 322.479 341.77C351.102 363.236 380.44 381.124 410.137 395.792C358.615 379.335 304.948 351.788 254.142 313.865C240.546 303.491 227.308 293.116 215.143 282.025C237.326 305.637 262.371 328.176 290.636 349.283C333.213 380.766 377.22 405.093 420.512 421.908Z" fill="url(#paint54_linear_102_360)"/>
<path fill-rule="evenodd" clip-rule="evenodd" d="M368.991 459.472C348.597 469.847 326.772 477.002 304.232 480.222C262.013 463.407 219.437 439.795 178.291 409.386C132.853 375.399 94.5696 336.762 65.2311 296.693C64.5156 290.969 64.1577 284.887 64.1577 279.163C89.5605 309.215 119.972 337.477 155.035 363.593C224.803 415.826 300.654 448.024 368.991 459.472Z" fill="url(#paint55_linear_102_360)"/>
<path fill-rule="evenodd" clip-rule="evenodd" d="M398.329 105.294C428.383 127.475 450.566 156.095 464.52 187.936C435.539 177.561 405.127 161.104 376.147 139.281C346.093 116.742 321.048 91.3415 302.443 65.5831C336.075 70.5917 368.991 83.8288 398.329 105.294Z" fill="url(#paint56_linear_102_360)"/>
<path fill-rule="evenodd" clip-rule="evenodd" d="M481.694 253.047C484.198 277.374 482.052 302.417 475.969 326.387C435.539 309.93 394.394 286.676 355.038 257.34C283.838 204.392 230.528 139.997 200.832 77.0317C209.061 73.8119 218.006 71.3077 226.593 69.5189C255.215 106.725 291.352 142.501 333.928 173.983C381.872 209.401 432.319 236.233 481.694 253.047Z" fill="url(#paint57_linear_102_360)"/>
<defs>
<linearGradient id="paint0_linear_102_360" x1="273.198" y1="545.27" x2="273.198" y2="1.21695" gradientUnits="userSpaceOnUse">
<stop stop-color="#FFB876"/>
<stop offset="1" stop-color="#8B22F6"/>
</linearGradient>
<linearGradient id="paint1_linear_102_360" x1="273.198" y1="544.015" x2="273.198" y2="2.47065" gradientUnits="userSpaceOnUse">
<stop stop-color="#FFB776"/>
<stop offset="1" stop-color="#8B21F6"/>
</linearGradient>
<linearGradient id="paint2_linear_102_360" x1="273.199" y1="542.759" x2="273.199" y2="3.72492" gradientUnits="userSpaceOnUse">
<stop stop-color="#FFB575"/>
<stop offset="1" stop-color="#8A21F5"/>
</linearGradient>
<linearGradient id="paint3_linear_102_360" x1="273.198" y1="541.504" x2="273.198" y2="4.9795" gradientUnits="userSpaceOnUse">
<stop stop-color="#FFB475"/>
<stop offset="1" stop-color="#8A20F5"/>
</linearGradient>
<linearGradient id="paint4_linear_102_360" x1="273.198" y1="540.249" x2="273.198" y2="6.23338" gradientUnits="userSpaceOnUse">
<stop stop-color="#FFB374"/>
<stop offset="1" stop-color="#8920F4"/>
</linearGradient>
<linearGradient id="paint5_linear_102_360" x1="273.198" y1="538.994" x2="273.198" y2="7.48753" gradientUnits="userSpaceOnUse">
<stop stop-color="#FFB273"/>
<stop offset="1" stop-color="#891FF4"/>
</linearGradient>
<linearGradient id="paint6_linear_102_360" x1="273.199" y1="537.738" x2="273.199" y2="8.74151" gradientUnits="userSpaceOnUse">
<stop stop-color="#FFB173"/>
<stop offset="1" stop-color="#881FF3"/>
</linearGradient>
<linearGradient id="paint7_linear_102_360" x1="273.198" y1="536.483" x2="273.198" y2="9.99573" gradientUnits="userSpaceOnUse">
<stop stop-color="#FFAF72"/>
<stop offset="1" stop-color="#881EF2"/>
</linearGradient>
<linearGradient id="paint8_linear_102_360" x1="273.198" y1="535.228" x2="273.198" y2="11.2502" gradientUnits="userSpaceOnUse">
<stop stop-color="#FFAE72"/>
<stop offset="1" stop-color="#871EF2"/>
</linearGradient>
<linearGradient id="paint9_linear_102_360" x1="273.198" y1="533.972" x2="273.198" y2="12.5041" gradientUnits="userSpaceOnUse">
<stop stop-color="#FFAD71"/>
<stop offset="1" stop-color="#871DF1"/>
</linearGradient>
<linearGradient id="paint10_linear_102_360" x1="273.198" y1="532.718" x2="273.198" y2="13.7583" gradientUnits="userSpaceOnUse">
<stop stop-color="#FFAC70"/>
<stop offset="1" stop-color="#861DF1"/>
</linearGradient>
<linearGradient id="paint11_linear_102_360" x1="273.198" y1="531.462" x2="273.198" y2="15.0125" gradientUnits="userSpaceOnUse">
<stop stop-color="#FFAB70"/>
<stop offset="1" stop-color="#861DF0"/>
</linearGradient>
<linearGradient id="paint12_linear_102_360" x1="273.198" y1="530.207" x2="273.198" y2="16.2667" gradientUnits="userSpaceOnUse">
<stop stop-color="#FFA96F"/>
<stop offset="1" stop-color="#851CF0"/>
</linearGradient>
<linearGradient id="paint13_linear_102_360" x1="273.198" y1="528.952" x2="273.198" y2="17.5209" gradientUnits="userSpaceOnUse">
<stop stop-color="#FFA86E"/>
<stop offset="1" stop-color="#851CEF"/>
</linearGradient>
<linearGradient id="paint14_linear_102_360" x1="273.199" y1="527.697" x2="273.199" y2="18.7751" gradientUnits="userSpaceOnUse">
<stop stop-color="#FFA76E"/>
<stop offset="1" stop-color="#841BEE"/>
</linearGradient>
<linearGradient id="paint15_linear_102_360" x1="273.198" y1="526.441" x2="273.198" y2="20.0291" gradientUnits="userSpaceOnUse">
<stop stop-color="#FFA66D"/>
<stop offset="1" stop-color="#841BEE"/>
</linearGradient>
<linearGradient id="paint16_linear_102_360" x1="273.198" y1="525.186" x2="273.198" y2="21.2831" gradientUnits="userSpaceOnUse">
<stop stop-color="#FFA56D"/>
<stop offset="1" stop-color="#831AED"/>
</linearGradient>
<linearGradient id="paint17_linear_102_360" x1="273.198" y1="523.931" x2="273.198" y2="22.5371" gradientUnits="userSpaceOnUse">
<stop stop-color="#FFA36C"/>
<stop offset="1" stop-color="#831AED"/>
</linearGradient>
<linearGradient id="paint18_linear_102_360" x1="273.198" y1="522.676" x2="273.198" y2="23.7915" gradientUnits="userSpaceOnUse">
<stop stop-color="#FFA26B"/>
<stop offset="1" stop-color="#8219EC"/>
</linearGradient>
<linearGradient id="paint19_linear_102_360" x1="273.198" y1="521.421" x2="273.198" y2="25.0458" gradientUnits="userSpaceOnUse">
<stop stop-color="#FFA16B"/>
<stop offset="1" stop-color="#8219EC"/>
</linearGradient>
<linearGradient id="paint20_linear_102_360" x1="273.198" y1="520.166" x2="273.198" y2="26.2997" gradientUnits="userSpaceOnUse">
<stop stop-color="#FFA06A"/>
<stop offset="1" stop-color="#8119EB"/>
</linearGradient>
<linearGradient id="paint21_linear_102_360" x1="273.198" y1="518.91" x2="273.198" y2="27.554" gradientUnits="userSpaceOnUse">
<stop stop-color="#FF9F6A"/>
<stop offset="1" stop-color="#8118EA"/>
</linearGradient>
<linearGradient id="paint22_linear_102_360" x1="273.198" y1="517.655" x2="273.198" y2="28.8084" gradientUnits="userSpaceOnUse">
<stop stop-color="#FF9D69"/>
<stop offset="1" stop-color="#8018EA"/>
</linearGradient>
<linearGradient id="paint23_linear_102_360" x1="273.198" y1="516.4" x2="273.198" y2="30.0623" gradientUnits="userSpaceOnUse">
<stop stop-color="#FF9C68"/>
<stop offset="1" stop-color="#8017E9"/>
</linearGradient>
<linearGradient id="paint24_linear_102_360" x1="273.198" y1="515.145" x2="273.198" y2="31.3168" gradientUnits="userSpaceOnUse">
<stop stop-color="#FF9B68"/>
<stop offset="1" stop-color="#7F17E9"/>
</linearGradient>
<linearGradient id="paint25_linear_102_360" x1="273.198" y1="513.89" x2="273.198" y2="32.571" gradientUnits="userSpaceOnUse">
<stop stop-color="#FF9A67"/>
<stop offset="1" stop-color="#7F16E8"/>
</linearGradient>
<linearGradient id="paint26_linear_102_360" x1="273.198" y1="512.635" x2="273.198" y2="33.8246" gradientUnits="userSpaceOnUse">
<stop stop-color="#FF9967"/>
<stop offset="1" stop-color="#7E16E8"/>
</linearGradient>
<linearGradient id="paint27_linear_102_360" x1="273.198" y1="511.379" x2="273.198" y2="35.0792" gradientUnits="userSpaceOnUse">
<stop stop-color="#FF9866"/>
<stop offset="1" stop-color="#7E15E7"/>
</linearGradient>
<linearGradient id="paint28_linear_102_360" x1="273.198" y1="510.124" x2="273.198" y2="36.3331" gradientUnits="userSpaceOnUse">
<stop stop-color="#FF9665"/>
<stop offset="1" stop-color="#7D15E7"/>
</linearGradient>
<linearGradient id="paint29_linear_102_360" x1="273.198" y1="508.869" x2="273.198" y2="37.5873" gradientUnits="userSpaceOnUse">
<stop stop-color="#FF9565"/>
<stop offset="1" stop-color="#7D14E6"/>
</linearGradient>
<linearGradient id="paint30_linear_102_360" x1="273.198" y1="507.614" x2="273.198" y2="38.8415" gradientUnits="userSpaceOnUse">
<stop stop-color="#FF9464"/>
<stop offset="1" stop-color="#7C14E5"/>
</linearGradient>
<linearGradient id="paint31_linear_102_360" x1="273.198" y1="506.359" x2="273.198" y2="40.0955" gradientUnits="userSpaceOnUse">
<stop stop-color="#FF9364"/>
<stop offset="1" stop-color="#7C14E5"/>
</linearGradient>
<linearGradient id="paint32_linear_102_360" x1="273.198" y1="505.103" x2="273.198" y2="41.35" gradientUnits="userSpaceOnUse">
<stop stop-color="#FF9263"/>
<stop offset="1" stop-color="#7B13E4"/>
</linearGradient>
<linearGradient id="paint33_linear_102_360" x1="273.198" y1="503.848" x2="273.198" y2="42.6041" gradientUnits="userSpaceOnUse">
<stop stop-color="#FF9062"/>
<stop offset="1" stop-color="#7B13E4"/>
</linearGradient>
<linearGradient id="paint34_linear_102_360" x1="273.198" y1="502.593" x2="273.198" y2="43.8581" gradientUnits="userSpaceOnUse">
<stop stop-color="#FF8F62"/>
<stop offset="1" stop-color="#7A12E3"/>
</linearGradient>
<linearGradient id="paint35_linear_102_360" x1="273.198" y1="501.338" x2="273.198" y2="45.1123" gradientUnits="userSpaceOnUse">
<stop stop-color="#FF8E61"/>
<stop offset="1" stop-color="#7A12E3"/>
</linearGradient>
<linearGradient id="paint36_linear_102_360" x1="273.197" y1="500.083" x2="273.197" y2="46.3666" gradientUnits="userSpaceOnUse">
<stop stop-color="#FF8D61"/>
<stop offset="1" stop-color="#7911E2"/>
</linearGradient>
<linearGradient id="paint37_linear_102_360" x1="273.198" y1="498.827" x2="273.198" y2="47.6202" gradientUnits="userSpaceOnUse">
<stop stop-color="#FF8C60"/>
<stop offset="1" stop-color="#7911E1"/>
</linearGradient>
<linearGradient id="paint38_linear_102_360" x1="273.197" y1="497.572" x2="273.197" y2="48.875" gradientUnits="userSpaceOnUse">
<stop stop-color="#FF8A5F"/>
<stop offset="1" stop-color="#7810E1"/>
</linearGradient>
<linearGradient id="paint39_linear_102_360" x1="273.198" y1="496.317" x2="273.198" y2="50.1289" gradientUnits="userSpaceOnUse">
<stop stop-color="#FF895F"/>
<stop offset="1" stop-color="#7810E0"/>
</linearGradient>
<linearGradient id="paint40_linear_102_360" x1="273.198" y1="495.062" x2="273.198" y2="51.3828" gradientUnits="userSpaceOnUse">
<stop stop-color="#FF885E"/>
<stop offset="1" stop-color="#7710E0"/>
</linearGradient>
<linearGradient id="paint41_linear_102_360" x1="273.198" y1="493.806" x2="273.198" y2="52.6373" gradientUnits="userSpaceOnUse">
<stop stop-color="#FF875D"/>
<stop offset="1" stop-color="#770FDF"/>
</linearGradient>
<linearGradient id="paint42_linear_102_360" x1="273.198" y1="492.552" x2="273.198" y2="53.8912" gradientUnits="userSpaceOnUse">
<stop stop-color="#FF865D"/>
<stop offset="1" stop-color="#760FDF"/>
</linearGradient>
<linearGradient id="paint43_linear_102_360" x1="273.198" y1="491.296" x2="273.198" y2="55.1456" gradientUnits="userSpaceOnUse">
<stop stop-color="#FF845C"/>
<stop offset="1" stop-color="#760EDE"/>
</linearGradient>
<linearGradient id="paint44_linear_102_360" x1="273.198" y1="490.041" x2="273.198" y2="56.3999" gradientUnits="userSpaceOnUse">
<stop stop-color="#FF835C"/>
<stop offset="1" stop-color="#750EDD"/>
</linearGradient>
<linearGradient id="paint45_linear_102_360" x1="273.198" y1="488.786" x2="273.198" y2="57.6534" gradientUnits="userSpaceOnUse">
<stop stop-color="#FF825B"/>
<stop offset="1" stop-color="#750DDD"/>
</linearGradient>
<linearGradient id="paint46_linear_102_360" x1="273.198" y1="487.531" x2="273.198" y2="58.9081" gradientUnits="userSpaceOnUse">
<stop stop-color="#FF815A"/>
<stop offset="1" stop-color="#740DDC"/>
</linearGradient>
<linearGradient id="paint47_linear_102_360" x1="273.197" y1="486.276" x2="273.197" y2="60.1624" gradientUnits="userSpaceOnUse">
<stop stop-color="#FF805A"/>
<stop offset="1" stop-color="#740CDC"/>
</linearGradient>
<linearGradient id="paint48_linear_102_360" x1="273.197" y1="485.02" x2="273.197" y2="61.4163" gradientUnits="userSpaceOnUse">
<stop stop-color="#FF7E59"/>
<stop offset="1" stop-color="#730CDB"/>
</linearGradient>
<linearGradient id="paint49_linear_102_360" x1="273.198" y1="483.765" x2="273.198" y2="62.6706" gradientUnits="userSpaceOnUse">
<stop stop-color="#FF7D59"/>
<stop offset="1" stop-color="#730BDB"/>
</linearGradient>
<linearGradient id="paint50_linear_102_360" x1="273.198" y1="482.51" x2="273.198" y2="63.9248" gradientUnits="userSpaceOnUse">
<stop stop-color="#FF7C58"/>
<stop offset="1" stop-color="#720BDA"/>
</linearGradient>
<linearGradient id="paint51_linear_102_360" x1="273.18" y1="482.509" x2="273.18" y2="63.9241" gradientUnits="userSpaceOnUse">
<stop stop-color="#FF7C58"/>
<stop offset="1" stop-color="#720BDA"/>
</linearGradient>
<linearGradient id="paint52_linear_102_360" x1="282.729" y1="477.677" x2="282.729" y2="63.9242" gradientUnits="userSpaceOnUse">
<stop stop-color="#FF7C58"/>
<stop offset="1" stop-color="#720BDA"/>
</linearGradient>
<linearGradient id="paint53_linear_102_360" x1="297.032" y1="284.503" x2="297.032" y2="63.9332" gradientUnits="userSpaceOnUse">
<stop stop-color="#FF7C58"/>
<stop offset="1" stop-color="#720BDA"/>
</linearGradient>
<linearGradient id="paint54_linear_102_360" x1="254.837" y1="444.007" x2="254.837" y2="105.305" gradientUnits="userSpaceOnUse">
<stop stop-color="#FF4998"/>
<stop offset="1" stop-color="#5600AC"/>
</linearGradient>
<linearGradient id="paint55_linear_102_360" x1="216.46" y1="480.18" x2="216.46" y2="279.037" gradientUnits="userSpaceOnUse">
<stop stop-color="#FF4998"/>
<stop offset="1" stop-color="#5600AC"/>
</linearGradient>
<linearGradient id="paint56_linear_102_360" x1="383.364" y1="188.04" x2="383.364" y2="65.8768" gradientUnits="userSpaceOnUse">
<stop stop-color="#FF4998"/>
<stop offset="1" stop-color="#5600AC"/>
</linearGradient>
<linearGradient id="paint57_linear_102_360" x1="341.541" y1="326.225" x2="341.541" y2="69.257" gradientUnits="userSpaceOnUse">
<stop stop-color="#FF4998"/>
<stop offset="1" stop-color="#5600AC"/>
</linearGradient>
</defs>
</svg>
