<svg width="629" height="676" viewBox="0 0 629 676" fill="none" xmlns="http://www.w3.org/2000/svg">
<g filter="url(#filter0_f_102_29)">
<path fill-rule="evenodd" clip-rule="evenodd" d="M87.0676 308.609C87.0676 308.609 82.9951 284.528 81.1495 271.42C81.1495 271.42 90.3756 244.425 110.14 218.872L144.18 210.849C144.18 210.849 92.3287 285.313 87.0676 308.609Z" fill="url(#paint0_linear_102_29)"/>
<path fill-rule="evenodd" clip-rule="evenodd" d="M110.142 218.871C110.142 218.871 115.633 237.477 102.815 257.441C89.9969 277.404 81.0445 274.484 81.0445 274.484L85.6433 305.489L143.717 210.986L110.142 218.871Z" fill="url(#paint1_linear_102_29)"/>
<path fill-rule="evenodd" clip-rule="evenodd" d="M528.608 307.251C534.785 328.182 538.171 349.938 538.218 370.656C538.584 413.023 526.88 453.896 506.002 489.385C491.164 514.496 471.041 537.121 447.082 555.316C425.639 571.757 400.636 584.698 373.192 592.796C369.471 593.895 365.284 595.13 361.426 595.763C355.707 596.945 349.523 598.264 343.804 599.446C299.828 606.356 255.539 600.211 216.55 582.894C202.038 576.558 188.045 568.551 174.708 559.34C164.986 552.096 155.728 544.715 147.127 536.129C145.045 534.215 142.826 531.836 140.744 529.922C140.744 529.922 140.744 529.922 140.607 529.457C138.388 527.077 136.306 525.164 134.552 522.647C128.36 515.373 122.496 507.496 117.097 499.481C113.314 493.518 109.532 487.555 106.215 481.455C103.912 477.078 101.609 472.701 99.6339 467.722C95.2186 457.9 91.2684 447.941 88.1112 437.243C86.3267 431.196 84.5422 425.149 83.688 418.828C83.055 414.969 82.4221 411.111 81.7891 407.252C78.1284 384.567 78.1355 362.316 81.3454 340.636C82.7864 330.098 85.1577 319.285 88.2687 309.265C93.3164 292.1 100.034 275.454 109.024 259.653C137.169 209.378 184.591 169.595 244.13 152.025C246.456 151.339 248.781 150.652 251.107 149.966C253.433 149.28 256.224 148.456 258.687 148.235C271.52 145.459 284.628 143.613 297.546 142.835C305.072 142.637 312.599 142.438 319.797 142.842C324.86 142.865 329.596 143.49 334.796 143.978C338.464 144.413 342.132 144.847 345.8 145.282C346.402 145.61 346.867 145.473 347.935 145.663C372.352 149.582 396.006 157.771 417.693 169.575C420.705 171.215 423.717 172.854 426.867 174.959C428.811 176.407 431.084 177.254 433.028 178.703C436.643 180.67 439.929 183.24 443.079 185.344C455.211 193.9 466.222 203.797 476.44 214.435C488.275 227.123 498.989 241.154 507.98 256.199C515.575 271.655 523.117 288.645 528.608 307.251Z" fill="url(#paint2_radial_102_29)"/>
<path fill-rule="evenodd" clip-rule="evenodd" d="M346.402 145.611C345.472 145.885 345.007 146.022 344.214 146.762C342.025 147.914 339.562 148.135 337.099 148.356C335.102 148.44 333.897 147.784 331.571 148.47C328.643 148.829 326.043 148.585 323.114 148.943C320.186 149.302 317.586 149.058 314.52 148.951C311.92 148.707 311.127 149.447 309.404 150.461C307.681 151.475 306.011 150.957 304.013 151.041C301.878 150.659 299.552 151.346 297.554 151.43C291.698 152.147 285.567 151.933 279.573 152.185C276.043 152.216 272.786 153.176 269.065 154.275C266.274 155.098 264.223 156.715 261.432 157.539C259.572 158.088 258.039 158.034 256.178 158.583C254.181 158.667 252.457 159.681 250.597 160.23C247.668 160.589 246.136 160.536 243.619 162.29C241.431 163.441 240.035 163.853 237.847 165.004C235.521 165.691 233.005 167.445 230.816 168.596C226.905 170.762 222.527 173.065 218.341 174.3C215.55 175.124 211.554 175.292 209.503 176.908C208.245 177.785 207.864 179.92 206.743 181.262C205.104 184.274 203.327 186.821 202.153 189.696C200.978 192.571 199.941 195.911 200.902 199.167C201.726 201.958 204.082 204.802 206.164 206.716C208.383 209.095 209.534 211.284 207.293 213.968C204.723 217.255 201.086 220.351 197.776 222.844C195.26 224.598 193.071 225.75 190.662 224.438C189.594 224.247 188.717 222.989 187.512 222.333C186.445 222.143 185.187 223.02 184.394 223.759C181.877 225.513 179.361 227.267 176.707 228.556C174.984 229.57 173.863 230.912 172.002 231.461C170.279 232.476 168.472 231.492 166.283 232.644C163.63 233.932 160.786 236.289 157.995 237.112C155.669 237.799 152.603 237.692 150.468 237.311C149.401 237.12 148.661 236.327 147.403 237.204C146.473 237.478 145.489 239.286 145.298 240.353C144.643 241.558 145.054 242.954 144.399 244.158C143.88 245.828 143.689 246.896 143.171 248.566C142.462 251.303 141.753 254.041 141.044 256.779C140.525 258.449 140.281 261.049 139.298 262.856C139.107 263.924 137.849 264.801 137.056 265.54C135.142 267.622 133.365 270.169 131.451 272.251C128.226 276.742 125.137 281.699 121.912 286.19C119.342 289.477 115.103 292.245 111.93 295.204C109.879 296.82 107.828 298.437 105.777 300.054C104.984 300.793 103.588 301.205 103.398 302.273C102.742 303.478 102.551 304.545 102.498 306.078C101.324 308.953 99.8216 312.43 99.2497 315.633C98.8685 317.768 98.8151 319.301 98.4339 321.436C98.1899 324.036 97.4808 326.774 97.8393 329.702C97.4886 335.367 99.1358 340.949 98.32 346.752C98.2134 349.818 97.1764 353.158 96.6045 356.36C95.6515 361.698 96.8335 367.417 97.8783 372.671C98.2367 375.599 99.8 379.183 101.089 381.837C102.515 384.956 103.476 388.212 104.437 391.468C105.397 394.724 104.17 399.131 102.996 402.006C101.821 404.881 98.8398 406.772 97.2004 409.784C95.8889 412.194 94.1122 414.741 94.0055 417.806C93.8149 418.874 94.6918 420.132 95.1036 421.528C95.4621 424.456 95.2182 427.056 96.0418 429.847C96.5375 433.24 97.4984 436.496 98.5965 440.217C99.1456 442.078 99.5574 443.473 100.106 445.334C100.656 447.195 101.532 448.453 102.409 449.711C102.684 450.641 103.096 452.037 103.37 452.967C103.782 454.363 105.124 455.483 105.399 456.414C107.29 459.395 108.579 462.049 110.005 465.168C111.293 467.821 113.512 470.2 114.801 472.854C117.295 476.163 118.858 479.747 121.024 483.659C122.313 486.313 123.274 489.569 124.562 492.222C125.714 494.411 126.865 496.599 127.551 498.925C128.65 502.646 128.68 506.177 129.778 509.898C131.563 515.945 135.673 521.306 138.853 526.941C139.867 528.664 140.744 529.922 141.758 531.646C117.623 506.406 99.2302 474.921 88.6605 439.104C75.7574 395.38 76.3741 351.206 88.2156 310.798C93.2633 293.633 99.981 276.987 109.108 261.652C137.253 211.377 184.675 171.594 244.214 154.023C248.865 152.651 253.982 151.141 258.771 150.233C287.473 141.258 317.578 140.464 346.402 145.611Z" fill="url(#paint3_linear_102_29)"/>
<path opacity="0.1" fill-rule="evenodd" clip-rule="evenodd" d="M352.559 471.46C352.559 471.46 381.948 495.655 416.667 512.209C451.386 528.764 460.049 544.411 460.049 544.411C460.049 544.411 505.366 507.777 527.014 445.767C548.798 384.221 352.559 471.46 352.559 471.46Z" fill="black"/>
<path opacity="0.4" fill-rule="evenodd" clip-rule="evenodd" d="M296.019 142.781C283.101 143.559 270.458 145.268 257.159 148.181C254.834 148.867 251.905 149.226 249.58 149.912C255.52 151.193 262.146 154.8 264.724 160.107C269.33 168.861 275.057 176.273 279.06 184.699C283.529 192.987 286.358 204.288 284.506 213.431C283.69 219.234 281.669 224.382 278.718 229.803C276.751 233.418 274.509 236.102 273.747 240.372C272.984 244.643 271.619 248.585 270.254 252.527C268.508 258.605 266.297 264.82 263.483 270.707C262.637 272.979 261.516 274.321 260.67 276.593C259.961 279.331 259.717 281.931 258.405 284.341C255.454 289.763 250.231 294.338 245.663 297.709C239.51 302.559 234.286 307.134 228.872 312.777C221.079 320.639 214.956 329.019 204.395 332.642C200.674 333.74 196.815 334.373 193.231 335.936C188.717 337.774 185.08 340.87 181.168 343.036C177.721 345.064 173.672 346.765 170.226 348.793C163.988 351.645 159.558 355.481 153.923 358.661C146.564 362.855 138.054 364.861 130.093 368.727C122.925 371.853 117.153 374.568 109.162 374.904C97.1743 375.407 89.6174 372.075 88.3742 359.295C87.4361 350.976 85.1866 345.066 79.8181 340.582C76.6083 362.262 76.7383 384.978 80.2617 407.198C86.0647 408.014 92.3862 407.16 97.6401 406.115C114.469 403.171 129.949 390.513 143.186 380.538C149.805 375.551 156.477 369.031 164.576 365.63C173.139 362.092 180.856 360.826 189.145 356.357C216.718 340.13 243.002 321.248 265.314 297.472C274.556 287.665 276.462 276.99 281.624 265.353C285.665 255.059 291.651 246.213 297.5 236.902C303.348 227.591 308.404 219.02 310.31 208.345C312.544 197.067 313.436 184.667 312.605 173.283C311.361 160.502 304.811 150.3 296.019 142.781ZM303.408 172.963C303.629 175.426 303.988 178.354 304.209 180.817C304.133 187.413 302.196 194.558 297.438 198.996C295.524 201.078 291.528 201.246 289.447 199.332C288.104 198.211 287.555 196.35 287.144 194.955C285.718 191.836 284.429 189.182 283.468 185.926C281.272 178.484 279.075 171.042 275.949 163.874C278.114 167.785 274.027 157.362 279.716 152.649C282.56 150.293 287.623 150.315 290.635 151.955C294.387 154.387 296.827 159.229 298.856 162.676C301.021 166.588 302.775 169.104 303.408 172.963Z" fill="url(#paint4_linear_102_29)"/>
<path opacity="0.4" fill-rule="evenodd" clip-rule="evenodd" d="M375.219 534.553C374.753 534.691 373.96 535.43 373.495 535.568L377.819 534.797C377.682 534.332 376.614 534.141 375.219 534.553ZM375.219 534.553C374.753 534.691 373.96 535.43 373.495 535.568L377.819 534.797C377.682 534.332 376.614 534.141 375.219 534.553ZM506.31 255.68C507.957 261.262 507.881 267.858 509.528 273.44C511.862 281.347 512.251 287.806 512.586 295.797C512.701 301.326 511.008 305.871 511.123 311.399C510.909 317.53 509.628 323.47 508.347 329.411C505.785 341.291 502.896 353.774 504.001 366.089C504.833 377.474 506.976 386.449 504.742 397.727C502.37 408.54 497.262 418.644 494.425 429.594C493.335 434.467 491.474 435.016 488.112 439.042C484.886 443.534 482.072 449.421 478.847 453.912C472.068 463.497 465.205 471.085 455.277 478.566C449.123 483.415 443.16 487.198 435.993 490.324C431.616 492.627 426.69 493.07 422.313 495.373C415.282 498.964 408.854 502.884 402.098 507.406C391.567 514.559 380.16 520.454 369.629 527.607C361.943 532.403 354.584 536.597 346.623 540.464C341.781 542.904 338.418 546.93 333.027 547.51C327.636 548.089 321.97 547.739 316.305 547.388C309.243 547.449 303.524 548.631 296.547 550.69C287.244 553.436 276.492 558.126 266.175 559.148C254.928 560.444 243.733 560.208 232.486 561.505C225.562 562.031 220.087 560.613 213.354 560.071C206.948 558.928 201.229 560.11 194.633 560.034C188.037 559.957 181.167 558.951 174.708 559.34C187.58 568.689 201.573 576.695 216.549 582.894C255.538 600.211 299.362 606.493 343.803 599.447C349.522 598.264 355.378 597.548 361.425 595.763C373.161 589.266 384.157 581.976 395.617 574.548C414.627 561.859 429.062 543.947 448.209 531.723C455.431 527.063 461.722 522.679 467.601 516.898C472.359 512.46 477.803 510.348 482.234 506.512C499.299 492.374 508.228 469.513 511.575 448.299C512.825 438.828 513.801 428.427 519.322 419.719C521.289 416.104 524.461 413.145 525.826 409.203C527.656 405.123 528.419 400.853 530.112 396.308C532.979 388.889 535.243 381.141 537.645 373.859C537.836 372.791 538.164 372.189 538.354 371.121C538.171 349.938 534.922 328.647 528.745 307.716C523.117 288.645 515.575 271.655 506.31 255.68ZM369.583 537.733C370.376 536.994 371.032 535.789 371.825 535.049C372.618 534.309 374.151 534.363 375.219 534.553C376.942 533.539 378.337 533.127 380.007 533.646C381.075 533.836 382.745 534.355 383.485 535.148C384.224 535.941 383.896 536.543 383.241 537.748C382.585 538.953 382.12 539.09 380.724 539.502C378.536 540.654 376.347 541.805 373.419 542.164C372.024 542.575 369.561 542.797 368.356 542.141C367.807 540.28 368.928 538.938 369.583 537.733ZM392.514 562.317C391.667 564.59 390.821 566.862 389.235 568.341C387.786 570.286 386.063 571.3 385.079 573.107C381.114 576.806 377.286 580.969 373.046 583.738C371.323 584.752 368.997 585.438 367.137 585.987C364.948 587.139 362.157 587.962 359.832 588.649C357.041 589.472 353.922 590.898 351.268 592.187C348.477 593.011 345.358 594.437 342.568 595.26C337.588 597.235 333.127 597.54 327.927 597.053C323.329 596.892 318.456 595.802 314.048 594.574C310.708 593.537 307.696 591.898 305.149 590.121C302.275 588.947 300.193 587.033 297.974 584.654C297.234 583.861 296.494 583.068 296.548 581.535C296.41 581.07 296.738 580.468 296.738 580.468C297.531 579.728 298.187 578.523 298.652 578.386C299.773 577.044 301.634 576.495 303.357 575.481C307.406 573.78 311.73 573.01 316.053 572.239C318.379 571.553 320.842 571.332 323.031 570.18C326.149 568.754 329.131 566.863 331.647 565.109C338.541 561.052 345.434 556.996 352.739 554.334C359.907 551.208 368.005 547.806 375.859 547.006C378.788 546.647 382.783 546.479 385.521 547.188C387.793 548.035 389.738 549.484 391.217 551.07C393.711 554.379 393.879 558.375 392.514 562.317ZM445.495 525.95C444.511 527.758 442.925 529.237 441.476 531.181C439.699 533.728 437.648 535.345 435.734 537.427C434.285 539.371 432.234 540.988 430.648 542.467C428.597 544.084 427.011 545.563 425.097 547.645C423.046 549.262 420.994 550.878 418.943 552.495C417.22 553.509 415.634 554.989 413.636 555.073C412.103 555.019 410.105 555.103 408.901 554.447C406.491 553.136 406.407 551.138 406.598 550.07C406.186 548.675 405.034 546.486 404.95 544.489C405.141 543.421 405.66 541.751 405.85 540.683C406.613 536.413 408.717 533.264 410.684 529.649C412.324 526.637 414.566 523.953 417.41 521.597C420.719 519.103 425.234 517.265 428.818 515.702C432.867 514.002 440.172 511.34 444.007 515.77C446.364 518.615 446.86 522.008 445.495 525.95ZM378.147 534.195C377.682 534.332 376.614 534.142 375.546 533.951C375.081 534.088 374.288 534.828 373.823 534.965L378.147 534.195Z" fill="url(#paint5_linear_102_29)"/>
<path opacity="0.4" fill-rule="evenodd" clip-rule="evenodd" d="M474.772 213.916L475.047 214.846C476.366 221.03 475.276 225.903 474.597 232.171C474.109 237.372 473.347 241.642 472.256 246.515C470.594 254.59 470.655 261.651 470.198 270.382C468.978 283.384 470.824 296.492 467.004 309.249C463.84 320.802 465.411 332.98 463.779 344.586C461.629 357.862 455.125 368.377 448.292 379.495C445.204 384.452 442.856 390.202 440.37 395.486C437.419 400.908 436.275 407.313 432.257 412.544C424.22 423.007 414.513 432.951 406.613 443.878C401.939 450.314 399.674 458.062 393.795 463.842C388.518 469.95 381.9 474.937 376.486 480.58C371.537 486.086 366.588 491.591 360.9 496.304C354.281 501.291 347.959 502.145 340.189 504.944C331.954 507.88 323.802 512.814 316.718 517.938C310.892 522.186 305.997 526.159 298.333 525.892C293.27 525.869 288.588 523.711 283.662 524.154C271.812 525.122 260.404 531.017 249.103 533.846C240.128 535.989 230.276 536.874 220.889 537.622C212.105 538.697 203.343 534.709 194.749 534.717C183.692 534.946 172.75 540.703 162.349 539.727C157.751 539.567 153.069 537.409 149.126 536.045C148.059 535.854 147.456 535.526 146.389 535.335C144.307 533.421 142.088 531.042 140.006 529.128C142.606 529.372 145.207 529.616 147.944 530.325C162.288 532.666 177.828 527.069 192.004 525.414C208.177 523.675 224.626 522.866 240.525 520.197C247.311 519.206 253.221 516.956 259.596 514.569C268.159 511.031 276.997 508.423 285.423 504.419C299.484 497.236 312.31 485.866 328.209 483.196C331.137 482.838 334.805 483.273 337.596 482.449C341.782 481.214 343.94 476.531 346.51 473.245C351.459 467.739 358.108 466.283 362.18 459.519C365.787 452.892 370.873 447.852 376.424 442.674C390.698 429.359 400.07 411.424 409.578 393.954C417.447 379.496 424.714 364.71 428.176 349.025C431.638 333.339 425.438 317.47 426.901 301.869C428.068 290.4 428.579 280.136 432.483 269.377C434.503 264.229 437.126 259.41 439.147 254.263C441.633 248.978 442.121 243.778 443.402 237.837C444.545 231.432 447.359 225.545 447.9 218.812C448.579 212.544 446.741 208.03 444.956 201.983C443.172 195.936 441.25 189.424 439.329 182.911C453.077 193.518 464.554 203.278 474.772 213.916Z" fill="url(#paint6_linear_102_29)"/>
<path opacity="0.4" fill-rule="evenodd" clip-rule="evenodd" d="M425.197 174.441C422.185 172.801 419.035 170.697 416.023 169.057C394.336 157.254 370.819 149.53 346.265 145.145C345.662 144.818 345.197 144.955 344.13 144.764C340.462 144.33 336.794 143.895 333.126 143.461C327.926 142.973 323.19 142.347 318.127 142.325C319.797 142.843 321.932 143.224 322.397 143.087C325.6 143.659 328.2 143.903 330.747 145.68C333.294 147.456 334.773 149.042 335.734 152.298C336.558 155.089 337.984 158.208 339.273 160.862C340.561 163.515 342.643 165.429 343.932 168.083C344.809 169.341 345.221 170.737 346.235 172.46C348.263 175.907 350.757 179.216 352.785 182.663C356.24 189.228 354.166 195.908 353.625 202.641C352.786 213.508 353.343 223.962 353.107 235.156C353.115 243.75 351.262 252.893 346.999 260.724C342.6 268.091 334.174 272.094 330.841 279.651C327.837 286.606 323.765 293.37 318.077 298.082C311.732 304 304.183 309.261 296.962 313.921C291.93 317.428 285.883 319.213 280.247 322.393C273.354 326.45 267.94 332.093 262.252 336.805C255.77 342.258 250.356 347.901 243.875 353.353C237.393 358.805 232.116 364.913 225.498 369.901C222.188 372.394 218.742 374.423 215.76 376.314C209.141 381.301 203.537 388.011 195.904 391.275C193.25 392.564 190.596 393.853 187.805 394.676C185.48 395.363 183.756 396.377 182.033 397.391C175.879 402.241 173.889 410.919 166.119 413.718C158.677 415.914 151.562 417.508 144.859 420.497C141.276 422.06 137.882 422.556 134.763 423.982C133.833 424.257 132.575 425.134 131.507 424.943C130.44 424.752 128.77 424.234 127.1 423.715C123.897 423.144 121.022 421.969 118.148 420.795C112.398 418.447 107.037 422.557 101.509 422.671C99.9761 422.618 97.7876 423.769 96.1176 423.251C92.3125 422.351 86.8907 419.4 83.4135 417.898C84.7328 424.082 86.0522 430.267 87.8367 436.313C90.9939 447.012 94.944 456.971 99.3594 466.792C101.197 471.306 103.5 475.683 105.94 480.526C109.258 486.626 113.177 493.054 116.822 498.552C122.221 506.566 128.085 514.443 134.277 521.718C140.599 520.863 146.92 520.009 152.693 517.295C161.119 513.291 169.08 509.425 178.055 507.282C186.565 505.276 194.831 505.871 203.15 504.933C212.4 503.72 222.115 502.37 231.555 500.09C240.065 498.084 248.712 496.544 256.894 495.14C263.216 494.286 270.002 493.295 276.187 491.975C292.741 488.101 307.321 479.248 322.724 473.185C330.357 469.922 337.716 465.727 345.074 461.533C349.451 459.23 353.691 456.462 357.054 452.436C361.537 447.067 363.749 440.853 367.165 435.294C371.374 428.995 375.583 422.696 379.929 416.863C383.483 411.769 386.899 406.21 391.055 401.444C394.089 398.02 397.452 393.994 400.35 390.104C405.68 382.464 409.805 374.167 413.793 365.405C419.283 353.166 418.558 338.716 418.245 325.661C418.207 313.537 416.91 302.289 419.937 290.272C421.356 284.797 422.034 278.528 421.782 272.535C421.752 269.004 420.982 264.681 421.416 261.013C422.232 255.21 426.113 249.513 427.531 244.038C428.759 239.631 430.452 235.086 430.475 230.023C431.26 220.689 431.115 211.63 429.765 201.915C428.773 195.129 429.177 187.93 429.116 180.869C429.307 179.801 428.895 178.406 429.086 177.338C428.948 176.873 427.004 175.424 425.197 174.441ZM182.674 409.844C182.864 408.776 190.276 403.049 191.069 402.309C191.069 402.309 191.069 402.309 190.604 402.447L185.709 406.42C191.207 402.775 203.689 405.664 200.495 413.686C199.648 415.959 195.736 418.125 193.548 419.276C191.36 420.428 189.689 419.909 187.745 418.46C185.8 417.011 184.047 414.495 183.36 412.169C183.223 411.704 182.811 410.309 182.674 409.844ZM134.521 488.272C127.46 488.334 122.587 487.243 117.218 482.76C113.329 479.862 110.508 477.155 108.342 473.243C106.779 469.659 104.56 467.28 104.392 463.284C104.034 460.356 104.468 456.688 105.177 453.951C105.749 450.748 107.114 446.806 106.839 445.875C113.214 443.489 119.124 441.239 125.171 439.454C132.148 437.395 139.865 436.129 146.842 434.07C150.098 433.11 153.354 432.149 156.473 430.723C159.592 429.297 162.108 427.543 165.227 426.117C170.534 423.539 175.514 421.564 181.317 422.38C185.587 423.142 188.82 427.245 191.779 430.417C193.396 432.468 194.738 433.589 195.561 436.38C196.522 439.636 197.346 442.427 197.704 445.355C197.979 446.285 197.925 447.818 198.2 448.748C196.431 459.889 185.298 466.714 177.093 473.181C164.786 482.881 149.573 487.876 134.521 488.272ZM239.912 480.431C239.317 488.697 227.91 494.592 221.07 497.116C217.814 498.077 213.49 498.847 209.685 497.948C207.55 497.566 205.605 496.118 203.661 494.669C202.319 493.548 200.237 491.634 196.79 493.662C196.485 489.201 196.317 485.206 197.08 480.935C197.926 478.663 199.375 476.719 200.686 474.309C203.119 470.557 206.017 466.668 209.189 463.709C214.275 458.669 221.473 459.073 227.879 460.216C232.614 460.842 236.229 462.809 238.394 466.721C241.3 471.426 240.4 475.231 239.912 480.431ZM321.366 454.877C320.551 460.68 317.707 463.036 313.879 467.2C309.12 471.638 302.364 476.16 296.317 477.944C293.061 478.905 289.394 478.471 286.191 477.899C284.056 477.517 281.593 477.739 279.785 476.755C274.364 473.804 271.786 468.497 274.852 468.603C271.893 465.431 269.864 461.985 268.301 458.401C269.094 457.661 269.285 456.594 269.01 455.663C270.101 450.791 273.189 445.834 277.154 442.135C283.361 435.753 292.854 431.94 302.325 433.19C306.458 433.488 309.333 434.662 312.483 436.766C314.29 437.75 315.96 438.269 317.904 439.717C320.398 443.027 321.527 450.279 321.366 454.877ZM345.745 446.671C344.624 448.013 342.847 450.56 341.452 450.972C339.919 450.919 336.907 449.279 336.358 447.419L335.153 446.763C336.053 442.958 337.09 439.618 337.99 435.813C341.192 436.385 343.846 435.096 346.667 437.803C349.954 440.373 347.522 444.124 345.745 446.671ZM365.301 281.618C363.936 285.56 361.641 289.777 358.331 292.271C354.229 295.504 348.266 299.286 345.605 291.981C344.369 287.795 343.873 284.402 344.636 280.131C345.78 273.726 347.693 271.644 352.452 267.206C354.312 266.657 356.913 266.901 358.445 266.954C361.511 267.061 365.125 269.028 366.551 272.147C367.977 275.266 366.475 278.743 365.301 281.618ZM414.248 233.294C414.118 241.423 412.921 249.361 411.587 256.834C410.337 266.305 412.479 275.28 412.762 284.804C413.341 290.196 412.198 296.601 408.095 299.834C406.044 301.451 404.046 301.535 401.72 302.221C399.395 302.907 395.948 304.936 396.497 306.796C394.003 303.487 390.77 299.385 388.742 295.938C386.576 292.026 384.738 287.512 382.9 282.998C380.597 278.621 379.225 273.969 377.387 269.455C375.686 265.406 373.383 261.029 372.148 256.843C367.893 242.423 370.912 221.811 382.48 211.318C386.117 208.222 390.029 206.057 394.817 205.149C400.209 204.57 403.877 205.004 407.712 209.434C412.562 215.588 413.912 225.303 414.248 233.294Z" fill="url(#paint7_linear_102_29)"/>
<path opacity="0.4" fill-rule="evenodd" clip-rule="evenodd" d="M356.491 271.125C356.163 271.728 355.232 272.002 354.905 272.605C353.509 273.016 352.442 272.826 351.649 273.565L356.491 271.125Z" fill="url(#paint8_linear_102_29)"/>
<path fill-rule="evenodd" clip-rule="evenodd" d="M324.341 396.913C313.665 395.007 312.147 350.452 318.705 338.403C325.262 326.355 356.229 340.477 364.099 356.864C372.571 373.579 349.223 400.695 324.341 396.913Z" fill="url(#paint9_linear_102_29)"/>
<path opacity="0.4" fill-rule="evenodd" clip-rule="evenodd" d="M106.376 446.012C105.911 446.149 105.446 446.287 105.446 446.287C106.239 445.547 106.239 445.547 106.376 446.012Z" fill="url(#paint10_linear_102_29)"/>
<path fill-rule="evenodd" clip-rule="evenodd" d="M286.628 143.529L320.706 116.786C320.706 116.786 389.106 122.389 443.69 163.421L455.899 196.225C455.899 196.225 374.032 189.539 286.628 143.529Z" fill="url(#paint11_linear_102_29)"/>
<path fill-rule="evenodd" clip-rule="evenodd" d="M527.448 442.098C527.448 442.098 505.32 487.058 483.328 501.638L465.111 513.588C465.111 513.588 363.731 507.604 341.73 451.9C323.268 404.76 383.774 306.505 403.493 291.078C423.212 275.652 450.77 273.081 450.77 273.081L527.448 442.098Z" fill="url(#paint12_linear_102_29)"/>
<path fill-rule="evenodd" clip-rule="evenodd" d="M450.772 273.082C429.451 272.8 357.582 335.978 360.184 428.757C360.749 447.806 422.707 501.831 478.213 503.149C496.605 503.789 553.916 413.556 543.72 367.01C533.524 320.465 482.356 273.874 450.772 273.082Z" fill="url(#paint13_linear_102_29)"/>
<path fill-rule="evenodd" clip-rule="evenodd" d="M368.784 437.344C352.051 336.093 431.424 277.78 452.744 278.062C468.072 278.595 494.578 293.022 512.574 309.454C493.068 287.905 468.887 272.792 451.097 272.48C429.776 272.198 357.908 335.376 360.51 428.155C360.899 434.614 368.189 445.61 380.68 457.094C372.955 449.766 369.226 442.27 368.784 437.344Z" fill="url(#paint14_linear_102_29)"/>
<path opacity="0.3" fill-rule="evenodd" clip-rule="evenodd" d="M236.075 590.786C236.075 590.786 258.273 592.326 271.457 583.884C271.457 583.884 263.175 535.257 236.577 510.238C209.979 485.22 193.196 539.727 193.196 539.727L194.73 570.625C194.73 570.625 217.378 585.685 236.075 590.786Z" fill="black"/>
<path fill-rule="evenodd" clip-rule="evenodd" d="M251.089 578.264L262.687 571.302C262.687 571.302 261.047 543.469 241.563 516.857C219.586 486.935 167.519 474.995 160.87 476.451C154.22 477.908 152.101 494.714 152.101 494.714L251.089 578.264Z" fill="url(#paint15_linear_102_29)"/>
<path fill-rule="evenodd" clip-rule="evenodd" d="M460.045 544.412L446.747 578.171C446.747 578.171 415.217 606.69 375.534 609.299L343.202 599.12L460.045 544.412Z" fill="url(#paint16_linear_102_29)"/>
<path fill-rule="evenodd" clip-rule="evenodd" d="M148.839 517.925C148.144 507.006 152.041 487.652 159.399 483.458C166.758 479.264 215.607 504.29 231.308 524.939C247.009 545.588 249.908 572.544 250.952 577.798C251.997 583.052 204.948 581.261 177.87 570.037C151.257 558.676 148.839 517.925 148.839 517.925Z" fill="url(#paint17_linear_102_29)"/>
<path fill-rule="evenodd" clip-rule="evenodd" d="M231.306 524.941C215.604 504.291 167.358 479.593 159.397 483.46C156.278 484.886 153.983 489.103 152.29 493.647C153.602 491.238 155.188 489.758 156.911 488.744C164.269 484.55 211.387 501.996 227.089 522.646C246.16 547.863 246.153 570.114 247.968 579.691C249.829 579.142 251.224 578.73 250.95 577.8C249.905 572.546 247.007 545.59 231.306 524.941Z" fill="url(#paint18_linear_102_29)"/>
<path fill-rule="evenodd" clip-rule="evenodd" d="M330.229 385.513C321.689 383.988 319.904 347.096 325.012 336.993C330.259 327.354 355.011 339.264 362.057 352.86C369.103 366.456 350.376 388.67 330.229 385.513Z" fill="url(#paint19_linear_102_29)"/>
<path fill-rule="evenodd" clip-rule="evenodd" d="M320.706 116.786C320.706 116.786 329.43 139.494 364.454 160.509C399.478 181.524 443.69 163.421 443.69 163.421L455.899 196.225C455.899 196.225 346.519 181.983 286.628 143.529L320.706 116.786Z" fill="url(#paint20_linear_102_29)"/>
<path fill-rule="evenodd" clip-rule="evenodd" d="M457.888 302.332C457.232 303.537 454.99 306.221 457.728 306.931C458.33 307.258 458.658 306.656 459.261 306.984C459.726 306.847 459.863 307.312 460.328 307.174C461.449 305.832 459.611 301.318 457.888 302.332Z" fill="#0EDBFF"/>
<path fill-rule="evenodd" clip-rule="evenodd" d="M537.527 236.355C536.871 237.56 534.63 240.244 537.367 240.953C537.97 241.281 538.297 240.679 538.9 241.007C539.365 240.869 539.502 241.335 539.967 241.197C541.416 239.253 539.25 235.341 537.527 236.355Z" fill="#0EDBFF"/>
<path fill-rule="evenodd" clip-rule="evenodd" d="M545.293 410.033C544.638 411.237 542.396 413.922 545.133 414.631C545.736 414.959 546.064 414.356 546.666 414.684C547.131 414.547 547.268 415.012 547.734 414.875C549.32 413.395 547.017 409.018 545.293 410.033Z" fill="#0EDBFF"/>
<path fill-rule="evenodd" clip-rule="evenodd" d="M470.6 316.279C471.393 315.539 471.858 315.402 472.789 315.127C473.063 316.058 474.543 317.644 473.422 318.986C472.629 319.725 472.08 317.865 471.477 317.537L470.6 316.279Z" fill="#0EDBFF"/>
<path fill-rule="evenodd" clip-rule="evenodd" d="M328.821 368.737C330.353 368.791 332.023 369.309 333.556 369.362C333.884 368.76 334.349 368.623 335.279 368.348C336.072 367.609 336.263 366.541 335.988 365.611C336.042 364.078 335.302 363.285 334.097 362.629C333.495 362.301 332.755 361.508 332.153 361.18C331.55 360.852 330.155 361.264 329.362 362.004C328.569 362.744 328.378 363.811 328.188 364.879C327.997 365.946 327.341 367.151 327.616 368.081C327.89 369.012 329.095 369.668 329.835 370.461L328.821 368.737Z" fill="#0EDBFF"/>
<path fill-rule="evenodd" clip-rule="evenodd" d="M155.62 539.185C157.153 539.239 158.823 539.757 160.355 539.811C160.683 539.208 161.148 539.071 162.079 538.796C162.872 538.057 163.062 536.989 162.788 536.059C162.841 534.526 162.102 533.733 160.897 533.077C160.294 532.75 159.555 531.956 158.952 531.629C158.35 531.301 156.954 531.712 156.161 532.452C155.368 533.192 155.178 534.259 154.987 535.327C154.796 536.395 154.141 537.599 154.415 538.53C154.69 539.46 155.895 540.116 156.634 540.909L155.62 539.185Z" fill="#0EDBFF"/>
<path fill-rule="evenodd" clip-rule="evenodd" d="M572.998 478.211C574.531 478.264 576.201 478.783 577.734 478.836C578.062 478.234 578.527 478.096 579.457 477.822C580.25 477.082 580.441 476.015 580.166 475.084C580.22 473.552 579.48 472.759 578.275 472.103C577.673 471.775 576.933 470.982 576.331 470.654C575.728 470.326 574.333 470.738 573.54 471.478C572.747 472.217 572.556 473.285 572.365 474.353C572.175 475.42 571.519 476.625 571.794 477.555C572.068 478.485 573.273 479.141 574.013 479.934L572.998 478.211Z" fill="#0EDBFF"/>
<path fill-rule="evenodd" clip-rule="evenodd" d="M532.354 446.718C533.887 446.772 535.557 447.29 537.089 447.344C537.417 446.741 537.882 446.604 538.813 446.329C539.606 445.59 539.796 444.522 539.522 443.592C539.575 442.059 538.835 441.266 537.631 440.61C537.028 440.282 536.289 439.489 535.686 439.162C535.084 438.834 533.688 439.245 532.895 439.985C532.102 440.725 531.912 441.792 531.721 442.86C531.53 443.928 530.875 445.132 531.149 446.063C531.424 446.993 532.628 447.649 533.368 448.442L532.354 446.718Z" fill="#0EDBFF"/>
<path fill-rule="evenodd" clip-rule="evenodd" d="M50.978 287.402C55.111 287.699 59.2439 287.997 63.5142 288.759C64.6351 287.417 66.0305 287.005 67.1515 285.663C68.6003 283.719 69.3093 280.981 69.6906 278.846C69.66 275.315 67.5782 273.401 65.4964 271.487C64.1543 270.367 62.5378 268.315 60.7305 267.332C58.4581 266.485 55.3394 267.911 53.7533 269.391C51.7021 271.007 50.9929 273.745 50.1466 276.017C49.3002 278.29 48.8655 281.958 49.0867 284.421C49.7731 286.746 52.4574 288.988 54.7298 289.835L50.978 287.402Z" fill="#0EDBFF"/>
<path fill-rule="evenodd" clip-rule="evenodd" d="M254.253 81.7855C258.386 82.0829 262.519 82.3801 266.79 83.1426C267.911 81.8005 269.306 81.3887 270.427 80.0466C271.876 78.1021 272.585 75.3645 272.966 73.2294C272.935 69.6988 270.854 67.7848 268.772 65.8709C267.43 64.75 265.813 62.6988 264.006 61.7152C261.733 60.8688 258.615 62.2948 257.029 63.7742C254.977 65.3908 254.268 68.1284 253.422 70.4008C252.575 72.6732 252.141 76.341 252.362 78.804C253.048 81.1298 255.733 83.3716 258.005 84.218L254.253 81.7855Z" fill="#0EDBFF"/>
<path fill-rule="evenodd" clip-rule="evenodd" d="M380.926 392.802C380.598 393.404 380.27 394.007 380.079 395.074C380.819 395.867 381.422 396.195 382.489 396.386C382.954 396.248 383.419 396.111 383.885 395.974C384.213 395.371 383.61 395.043 383.938 394.441C384.129 393.374 383.991 392.908 383.252 392.115C382.649 391.787 382.512 391.322 382.047 391.46C381.582 391.597 380.651 391.871 380.789 392.337L380.926 392.802Z" fill="#0EDBFF"/>
<path fill-rule="evenodd" clip-rule="evenodd" d="M391.045 415.099C391.183 415.564 390.611 418.766 391.732 417.424C392.525 416.685 392.113 415.289 391.045 415.099C391.511 414.961 391.511 414.961 391.045 415.099Z" fill="#0EDBFF"/>
<path fill-rule="evenodd" clip-rule="evenodd" d="M476.428 435.411C475.91 437.081 476.047 437.547 475.994 439.079C476.596 439.407 477.527 439.133 477.992 438.995C478.922 438.721 478.785 438.256 478.647 437.791C478.51 437.325 478.701 436.258 478.098 435.93C477.359 435.137 476.756 434.809 476.428 435.411Z" fill="#0EDBFF"/>
<path fill-rule="evenodd" clip-rule="evenodd" d="M396.635 391.201C397.237 391.529 397.84 391.857 398.114 392.787C397.184 393.061 397.047 392.596 396.772 391.666C396.498 390.736 397.1 391.064 397.291 389.996C397.291 389.996 397.291 389.996 397.756 389.859L396.635 391.201Z" fill="#0EDBFF"/>
<path fill-rule="evenodd" clip-rule="evenodd" d="M448.013 308.28C447.685 308.882 447.358 309.485 447.03 310.087C447.632 310.415 447.441 311.482 448.372 311.208C448.837 311.071 449.165 310.468 449.355 309.401C449.683 308.798 449.546 308.333 449.272 307.403C449.134 306.938 448.722 305.542 448.532 306.61L448.013 308.28Z" fill="#0EDBFF"/>
<path fill-rule="evenodd" clip-rule="evenodd" d="M390.338 148.826C391.269 148.551 391.597 147.949 392.527 147.674C392.527 147.674 392.992 147.537 393.457 147.4C394.388 147.125 394.388 147.125 394.525 147.59C395.127 147.918 395.402 148.849 395.539 149.314C395.897 152.242 390.941 149.154 392.062 147.811L390.338 148.826Z" fill="#0EDBFF"/>
<path fill-rule="evenodd" clip-rule="evenodd" d="M96.0137 241.244C94.7555 242.121 92.8949 242.671 93.3067 244.066C93.7185 245.461 95.8536 245.843 96.9212 246.033C98.9191 245.949 101.847 245.591 102.091 242.991C102.144 241.458 100.993 239.269 100.253 238.476C98.1716 236.562 95.1901 238.454 93.1389 240.07L96.0137 241.244Z" fill="#0EDBFF"/>
<path fill-rule="evenodd" clip-rule="evenodd" d="M493.998 433.261C492.297 429.212 490.132 425.3 493.166 421.876C494.615 419.932 498.336 418.833 501.074 419.543C502.744 420.061 504.688 421.51 505.565 422.768C507.647 424.682 507.182 424.819 507.266 426.817C507.243 431.88 506.671 435.083 502.485 436.319C496.438 438.103 494.135 433.726 492.488 428.144L493.998 433.261Z" fill="#0EDBFF"/>
<path fill-rule="evenodd" clip-rule="evenodd" d="M461.785 313.824C463.508 312.81 464.63 311.468 465.148 309.798C463.478 309.279 460.74 308.57 460.962 311.033L461.785 313.824Z" fill="#0EDBFF"/>
<path fill-rule="evenodd" clip-rule="evenodd" d="M159.981 519.694C161.704 518.68 162.825 517.338 163.344 515.668C161.674 515.149 158.936 514.44 159.157 516.903L159.981 519.694Z" fill="#0EDBFF"/>
<path fill-rule="evenodd" clip-rule="evenodd" d="M170.414 555.046C172.137 554.031 173.258 552.689 173.776 551.019C172.106 550.501 169.369 549.792 169.59 552.255L170.414 555.046Z" fill="#0EDBFF"/>
<path fill-rule="evenodd" clip-rule="evenodd" d="M382.397 354.949C383.709 352.54 384.936 348.132 388.276 349.169C390.549 350.015 391.837 352.669 390.389 354.614C389.268 355.956 388.01 356.833 386.286 357.847C385.028 358.724 382.893 358.343 382.809 356.345L382.397 354.949Z" fill="#0EDBFF"/>
<path fill-rule="evenodd" clip-rule="evenodd" d="M464.654 429.784C465.966 427.374 467.193 422.967 470.533 424.004C472.806 424.85 474.094 427.504 472.646 429.448C471.525 430.791 470.267 431.668 468.543 432.682C467.285 433.559 465.15 433.177 465.066 431.18L464.654 429.784Z" fill="#0EDBFF"/>
<path fill-rule="evenodd" clip-rule="evenodd" d="M367.058 129.907C369.521 129.686 374.173 128.313 374.806 132.171C375.355 134.032 373.25 137.181 371.115 136.8C368.98 136.419 367.775 135.763 365.968 134.78C364.763 134.124 363.612 131.935 365.8 130.784L367.058 129.907Z" fill="#0EDBFF"/>
<path fill-rule="evenodd" clip-rule="evenodd" d="M453.979 458.723C455.291 456.313 456.518 451.905 459.858 452.942C462.131 453.789 463.42 456.442 461.971 458.387C460.85 459.729 459.592 460.606 457.868 461.62C456.61 462.497 454.475 462.116 454.391 460.118L453.979 458.723Z" fill="#0EDBFF"/>
<path fill-rule="evenodd" clip-rule="evenodd" d="M343.759 362.812C342.31 364.756 339.001 367.25 339.497 370.643C340.046 372.504 340.785 373.297 342.92 373.678C344.453 373.731 346.314 373.182 347.572 372.305C349.158 370.826 350.935 368.279 351.316 366.144C351.369 364.611 351.095 363.681 350.218 362.423C349.478 361.63 348.738 360.837 347.808 361.111C344.743 361.004 344.171 364.207 342.585 365.687L343.759 362.812Z" fill="#0EDBFF"/>
<path fill-rule="evenodd" clip-rule="evenodd" d="M348.54 353.311C349.608 353.501 351.141 353.555 351.88 354.348C351.087 355.087 349.966 356.429 348.434 356.376C346.901 356.323 346.024 355.064 346.077 353.532C345.803 352.601 346.787 350.794 347.854 350.985C348.319 350.848 348.594 351.778 348.594 351.778C349.334 352.571 349.196 352.106 349.006 353.173L348.54 353.311Z" fill="#0EDBFF"/>
<path fill-rule="evenodd" clip-rule="evenodd" d="M402.513 323.731C398.304 330.029 394.972 337.586 394.24 345.387C393.942 349.52 396.268 348.834 399.387 347.408C405.022 344.228 411.122 340.911 416.62 337.265C420.067 335.237 424.634 331.867 425.999 327.924C427.174 325.049 426.868 320.588 425.58 317.935C423.879 313.886 420.211 313.451 416.078 313.154C406.554 313.436 397.206 326.308 396.283 335.177L402.513 323.731Z" fill="#0EDBFF"/>
<path fill-rule="evenodd" clip-rule="evenodd" d="M381.147 364.42C383.008 363.871 384.54 363.924 386.675 364.306C386.348 364.908 386.622 365.838 386.759 366.304C386.569 367.371 385.913 368.576 385.585 369.178C384.464 370.52 382.276 371.672 380.606 371.153C375.405 370.666 380.735 363.025 383.282 364.801L381.147 364.42Z" fill="#0EDBFF"/>
<path fill-rule="evenodd" clip-rule="evenodd" d="M174.547 617.033C174.219 617.636 173.892 618.238 173.701 619.306C174.441 620.099 175.043 620.427 176.111 620.617C176.576 620.48 177.041 620.343 177.506 620.206C177.834 619.603 177.232 619.275 177.559 618.673C177.75 617.605 177.613 617.14 176.873 616.347C176.271 616.019 176.134 615.554 175.668 615.691C175.203 615.829 174.273 616.103 174.41 616.568L174.547 617.033Z" fill="#0EDBFF"/>
<path fill-rule="evenodd" clip-rule="evenodd" d="M185.132 639.192C185.27 639.657 184.698 642.86 185.819 641.518C186.612 640.778 185.735 639.52 185.132 639.192C185.27 639.657 185.132 639.192 185.132 639.192Z" fill="#0EDBFF"/>
<path fill-rule="evenodd" clip-rule="evenodd" d="M190.256 615.431C190.859 615.759 191.461 616.087 191.736 617.017C190.806 617.292 190.668 616.826 190.394 615.896C190.119 614.966 190.722 615.294 190.912 614.226C190.912 614.226 190.912 614.226 191.377 614.089L190.256 615.431Z" fill="#0EDBFF"/>
<path fill-rule="evenodd" clip-rule="evenodd" d="M174.768 588.651C176.629 588.102 178.161 588.156 180.297 588.537C179.969 589.139 180.243 590.07 180.38 590.535C180.19 591.602 179.534 592.807 179.206 593.41C178.085 594.752 175.897 595.903 174.227 595.385C169.026 594.897 174.356 587.256 176.903 589.033L174.768 588.651Z" fill="#0EDBFF"/>
<path fill-rule="evenodd" clip-rule="evenodd" d="M358.99 136.839C360.66 137.357 362.795 137.739 364.602 138.722C366.547 140.171 368.354 141.155 369.834 142.741C370.573 143.534 372.655 145.448 370.794 145.997C369.071 147.011 364.526 145.318 362.254 144.472C358.914 143.435 356.176 142.726 353.492 140.484C352.15 139.363 350.068 137.449 350.587 135.779C351.105 134.109 352.035 133.835 353.431 133.423C354.826 133.011 355.894 133.202 357.564 133.72C358.166 134.048 361.781 136.015 360.988 136.755L358.99 136.839Z" fill="#0EDBFF"/>
<path fill-rule="evenodd" clip-rule="evenodd" d="M431.344 306.626C430.551 307.366 425.93 312.269 429.132 312.841C430.802 313.359 433.921 311.933 435.179 311.056C436.437 310.179 437.558 308.837 436.216 307.716C433.395 305.009 429.757 308.105 427.843 310.187L431.344 306.626Z" fill="#0EDBFF"/>
<path fill-rule="evenodd" clip-rule="evenodd" d="M416.791 103.095C415.342 105.04 402.791 117.34 410.866 119.002C415.136 119.764 422.442 117.103 425.614 114.144C428.458 111.788 431.493 108.364 428.069 105.329C421.549 98.6571 412.223 106.466 407.602 111.369L416.791 103.095Z" fill="#0EDBFF"/>
<path fill-rule="evenodd" clip-rule="evenodd" d="M167.935 538.079C169.361 541.198 171.39 544.645 174.867 546.147C178.809 547.512 181.791 545.621 184.498 542.799C186.412 540.717 187.861 538.773 189.775 536.691C190.896 535.349 191.826 535.074 191.277 533.214C190.728 531.353 188.044 529.111 186.701 527.99C184.757 526.542 181.417 525.505 179.282 525.123C174.081 524.635 165.793 529.104 167.577 535.151L167.935 538.079Z" fill="#0EDBFF"/>
<path fill-rule="evenodd" clip-rule="evenodd" d="M477.924 454.185C479.075 456.374 480.364 459.027 482.636 459.874C485.511 461.048 487.562 459.431 489.476 457.35C490.597 456.007 492.183 454.528 493.304 453.186C494.097 452.446 495.028 452.172 494.616 450.776C494.204 449.381 492.26 447.932 491.52 447.139C490.178 446.018 487.905 445.172 486.373 445.118C482.705 444.684 477.07 447.864 478.305 452.05L477.924 454.185Z" fill="#0EDBFF"/>
<path fill-rule="evenodd" clip-rule="evenodd" d="M322.271 120.369C322.271 120.369 345.132 160.143 378.311 168.05C420.167 177.947 443.226 163.557 443.226 163.557C443.226 163.557 410.856 172.099 375.047 160.417C345.315 150.482 322.271 120.369 322.271 120.369Z" fill="url(#paint21_linear_102_29)"/>
<path opacity="0.2" fill-rule="evenodd" clip-rule="evenodd" d="M352.558 471.459L363.393 437.922C363.393 437.922 408.637 500.42 478.348 503.613L467.002 516.569C467.467 516.432 396.856 517.043 352.558 471.459Z" fill="black"/>
<path opacity="0.3" fill-rule="evenodd" clip-rule="evenodd" d="M297.282 150.499C297.282 150.499 416.096 215.557 494.227 236.998C494.227 236.998 480.302 213.802 455.763 195.76C455.9 196.225 395.194 194.419 297.282 150.499Z" fill="black"/>
</g>
<defs>
<filter id="filter0_f_102_29" x="39.0298" y="51.4619" width="551.254" height="600.382" filterUnits="userSpaceOnUse" color-interpolation-filters="sRGB">
<feFlood flood-opacity="0" result="BackgroundImageFix"/>
<feBlend mode="normal" in="SourceGraphic" in2="BackgroundImageFix" result="shape"/>
<feGaussianBlur stdDeviation="5" result="effect1_foregroundBlur_102_29"/>
</filter>
<linearGradient id="paint0_linear_102_29" x1="126.746" y1="297.136" x2="104.224" y2="220.818" gradientUnits="userSpaceOnUse">
<stop stop-color="#9A00B3"/>
<stop offset="1" stop-color="#7F72FF"/>
</linearGradient>
<linearGradient id="paint1_linear_102_29" x1="110.998" y1="305.985" x2="113.839" y2="209.976" gradientUnits="userSpaceOnUse">
<stop stop-color="#5B008B"/>
<stop offset="1" stop-color="#8E00FF"/>
</linearGradient>
<radialGradient id="paint2_radial_102_29" cx="0" cy="0" r="1" gradientUnits="userSpaceOnUse" gradientTransform="translate(141.128 309.372) rotate(-16.4416) scale(369.078)">
<stop offset="0.00558659" stop-color="#60DBFF"/>
<stop offset="0.0937306" stop-color="#60D5FF"/>
<stop offset="0.211" stop-color="#5FC4FF"/>
<stop offset="0.3446" stop-color="#5DA9FF"/>
<stop offset="0.4903" stop-color="#5A82FF"/>
<stop offset="0.6442" stop-color="#5751FF"/>
<stop offset="0.6844" stop-color="#5643FF"/>
<stop offset="0.7432" stop-color="#563DF8"/>
<stop offset="0.8282" stop-color="#552EE5"/>
<stop offset="0.9287" stop-color="#5315C6"/>
<stop offset="1" stop-color="#5200AB"/>
</radialGradient>
<linearGradient id="paint3_linear_102_29" x1="69.8122" y1="376.745" x2="386.811" y2="283.198" gradientUnits="userSpaceOnUse">
<stop offset="0.0111732" stop-color="#81E0FF"/>
<stop offset="0.3224" stop-color="#82DDFF"/>
<stop offset="0.5506" stop-color="#86D4FF"/>
<stop offset="0.7523" stop-color="#8BC4FF"/>
<stop offset="0.9375" stop-color="#94ADFF"/>
<stop offset="1" stop-color="#97A4FF"/>
</linearGradient>
<linearGradient id="paint4_linear_102_29" x1="53.42" y1="313.776" x2="330.56" y2="231.991" gradientUnits="userSpaceOnUse">
<stop stop-color="#B8C2FF"/>
<stop offset="1" stop-color="#7D72B3"/>
</linearGradient>
<linearGradient id="paint5_linear_102_29" x1="159.271" y1="506.791" x2="553.02" y2="390.594" gradientUnits="userSpaceOnUse">
<stop stop-color="#B8C2FF"/>
<stop offset="1" stop-color="#7D72B3"/>
</linearGradient>
<linearGradient id="paint6_linear_102_29" x1="111.981" y1="432.21" x2="504.94" y2="316.246" gradientUnits="userSpaceOnUse">
<stop stop-color="#B8C2FF"/>
<stop offset="1" stop-color="#7D72B3"/>
</linearGradient>
<linearGradient id="paint7_linear_102_29" x1="72.051" y1="384.297" x2="458.311" y2="270.31" gradientUnits="userSpaceOnUse">
<stop stop-color="#B8C2FF"/>
<stop offset="1" stop-color="#7D72B3"/>
</linearGradient>
<linearGradient id="paint8_linear_102_29" x1="351.269" y1="273.409" x2="356.571" y2="271.844" gradientUnits="userSpaceOnUse">
<stop stop-color="#E8DDFF"/>
<stop offset="1" stop-color="#AA8AD8"/>
</linearGradient>
<linearGradient id="paint9_linear_102_29" x1="339.319" y1="397.591" x2="341.187" y2="334.47" gradientUnits="userSpaceOnUse">
<stop stop-color="#5B008B"/>
<stop offset="1" stop-color="#8E00FF"/>
</linearGradient>
<linearGradient id="paint10_linear_102_29" x1="105.386" y1="446.358" x2="106.487" y2="446.033" gradientUnits="userSpaceOnUse">
<stop stop-color="#E8DDFF"/>
<stop offset="1" stop-color="#AA8AD8"/>
</linearGradient>
<linearGradient id="paint11_linear_102_29" x1="298.132" y1="183.025" x2="439.564" y2="141.288" gradientUnits="userSpaceOnUse">
<stop stop-color="#7F72FF"/>
<stop offset="1" stop-color="#9A00B3"/>
</linearGradient>
<linearGradient id="paint12_linear_102_29" x1="430.45" y1="513.057" x2="437.559" y2="272.865" gradientUnits="userSpaceOnUse">
<stop stop-color="#280077"/>
<stop offset="1" stop-color="#812CFF"/>
</linearGradient>
<linearGradient id="paint13_linear_102_29" x1="449.673" y1="502.541" x2="456.459" y2="273.423" gradientUnits="userSpaceOnUse">
<stop stop-color="#7A00B3"/>
<stop offset="1" stop-color="#B136FF"/>
</linearGradient>
<linearGradient id="paint14_linear_102_29" x1="455.561" y1="435.65" x2="410.903" y2="284.319" gradientUnits="userSpaceOnUse">
<stop stop-color="#8E00B3"/>
<stop offset="1" stop-color="#E05CFF"/>
</linearGradient>
<linearGradient id="paint15_linear_102_29" x1="206.28" y1="576.696" x2="209.216" y2="477.478" gradientUnits="userSpaceOnUse">
<stop stop-color="#280077"/>
<stop offset="1" stop-color="#812CFF"/>
</linearGradient>
<linearGradient id="paint16_linear_102_29" x1="410.623" y1="601.654" x2="399.058" y2="562.463" gradientUnits="userSpaceOnUse">
<stop stop-color="#7A00B3"/>
<stop offset="0.9162" stop-color="#7006FC"/>
<stop offset="1" stop-color="#7006F9"/>
</linearGradient>
<linearGradient id="paint17_linear_102_29" x1="212.325" y1="590.628" x2="179.082" y2="477.979" gradientUnits="userSpaceOnUse">
<stop stop-color="#7A00B3"/>
<stop offset="1" stop-color="#B136FF"/>
</linearGradient>
<linearGradient id="paint18_linear_102_29" x1="218.214" y1="588.843" x2="184.984" y2="476.239" gradientUnits="userSpaceOnUse">
<stop stop-color="#8E00B3"/>
<stop offset="1" stop-color="#E05CFF"/>
</linearGradient>
<linearGradient id="paint19_linear_102_29" x1="342.208" y1="386.096" x2="343.752" y2="333.888" gradientUnits="userSpaceOnUse">
<stop stop-color="#A400CA"/>
<stop offset="1" stop-color="#B136FF"/>
</linearGradient>
<linearGradient id="paint20_linear_102_29" x1="370.39" y1="193.627" x2="372.62" y2="118.281" gradientUnits="userSpaceOnUse">
<stop stop-color="#5B008B"/>
<stop offset="1" stop-color="#8E00FF"/>
</linearGradient>
<linearGradient id="paint21_linear_102_29" x1="393.99" y1="179.353" x2="372.247" y2="105.675" gradientUnits="userSpaceOnUse">
<stop stop-color="#B000D9"/>
<stop offset="1" stop-color="#E05CFF"/>
</linearGradient>
</defs>
</svg>
