<svg width="1637" height="362" viewBox="0 0 1637 362" fill="none" xmlns="http://www.w3.org/2000/svg">
<g filter="url(#filter0_f_0_1)">
<path d="M136.214 269.78C121.895 271.302 109.2 269.501 98.1291 264.376C87.1248 259.244 78.2096 251.376 71.3834 240.772C64.6235 230.16 60.4541 217.43 58.8751 202.58C57.2961 187.731 58.6953 174.408 63.0726 162.612C67.5162 150.81 74.5775 141.243 84.2566 133.912C94.002 126.573 106.034 122.143 120.354 120.62C136.794 118.872 151.017 121.483 163.021 128.453C175.092 135.416 184.154 145.615 190.209 159.05L163.766 169.504C160.191 161.102 155 154.849 148.195 150.745C141.383 146.576 133.004 145.02 123.06 146.077C113.978 147.043 106.603 149.872 100.934 154.564C95.3312 159.249 91.3963 165.433 89.1293 173.116C86.8622 180.799 86.2574 189.612 87.3147 199.556C88.3721 209.5 90.8167 217.989 94.6487 225.024C98.4806 232.058 103.628 237.276 110.091 240.679C116.619 244.074 124.425 245.289 133.507 244.323C143.451 243.266 151.315 239.982 157.098 234.473C162.881 228.964 166.64 221.76 168.376 212.86L196.426 217.52C193.332 231.928 186.617 243.805 176.28 253.15C166.01 262.488 152.655 268.031 136.214 269.78Z" fill="#FFD700"/>
<path d="M268.831 249.381C258.003 250.294 248.299 248.67 239.719 244.51C231.139 240.349 224.199 234.211 218.898 226.094C213.658 217.905 210.57 208.264 209.635 197.17C208.688 185.943 210.182 175.882 214.115 166.987C218.042 158.025 223.89 150.808 231.658 145.336C239.425 139.864 248.624 136.68 259.253 135.784C270.081 134.871 279.785 136.495 288.365 140.655C297.011 144.81 303.988 150.979 309.294 159.162C314.595 167.279 317.713 176.884 318.648 187.978C319.589 199.138 318.096 209.2 314.168 218.161C310.302 227.051 304.454 234.268 296.625 239.812C288.858 245.284 279.593 248.474 268.831 249.381ZM266.697 224.071C275.399 223.337 281.63 219.868 285.389 213.663C289.208 207.387 290.729 199.632 289.95 190.398C289.143 180.832 286.307 173.377 281.441 168.034C276.641 162.685 269.956 160.372 261.387 161.094C255.474 161.593 250.737 163.33 247.175 166.307C243.612 169.283 241.1 173.208 239.637 178.082C238.241 182.95 237.807 188.506 238.333 194.75C239.145 204.383 241.951 211.873 246.751 217.222C251.612 222.499 258.26 224.782 266.697 224.071Z" fill="#FFD700"/>
<path d="M392.616 229.119C379.045 230.008 367.869 227.666 359.086 222.094C350.366 216.452 344.739 208.068 342.207 196.943L369.674 190.936C371.135 195.918 373.889 199.713 377.935 202.321C382.047 204.925 387.097 206.031 393.084 205.639C398.007 205.317 401.738 204.137 404.277 202.1C406.811 199.997 407.968 197.249 407.746 193.856C407.606 191.727 406.963 190.066 405.816 188.871C404.664 187.611 402.185 186.47 398.377 185.45C394.635 184.425 388.805 183.137 380.887 181.584C371.957 179.897 364.774 177.828 359.335 175.378C353.897 172.928 349.887 169.85 347.307 166.144C344.721 162.372 343.248 157.725 342.887 152.203C342.434 145.285 343.805 139.182 347 133.895C350.19 128.542 354.889 124.293 361.097 121.147C367.367 117.931 374.859 116.038 383.574 115.467C392.023 114.914 399.592 115.722 406.281 117.889C412.97 120.057 418.467 123.405 422.772 127.934C427.144 132.458 430.008 137.949 431.366 144.408L403.952 151.213C403.225 147.252 401.289 144.205 398.143 142.073C394.997 139.94 390.85 138.842 385.701 138.778C380.69 138.772 376.709 139.701 373.758 141.564C370.873 143.423 369.533 145.916 369.737 149.043C369.859 150.905 370.594 152.427 371.94 153.609C373.354 154.785 376.133 155.906 380.278 156.971C384.489 158.032 390.856 159.352 399.377 160.932C407.699 162.525 414.415 164.591 419.525 167.13C424.697 169.597 428.545 172.752 431.068 176.596C433.587 180.373 435.029 185.055 435.395 190.643C436.118 201.686 432.694 210.629 425.125 217.471C417.556 224.314 406.72 228.196 392.616 229.119Z" fill="#FFD700"/>
<path d="M598.446 222.871L595.756 159.128C595.456 152.001 593.524 146.544 589.961 142.758C586.462 138.902 581.748 137.099 575.82 137.349C572.024 137.509 568.765 138.547 566.043 140.464C563.319 142.314 561.225 144.871 559.761 148.136C558.361 151.331 557.748 154.993 557.923 159.123L546.212 152.01C545.9 144.617 547.357 138.016 550.581 132.209C553.872 126.398 558.383 121.804 564.112 118.426C569.905 114.978 576.399 113.103 583.592 112.799C595.915 112.279 605.361 115.551 611.931 122.613C618.565 129.606 622.131 138.998 622.629 150.787L625.622 221.724L598.446 222.871ZM468.362 228.361L463.809 120.457L487.787 119.445L489.297 155.213L492.694 155.07L495.738 227.205L468.362 228.361ZM533.504 225.612L530.814 161.868C530.513 154.741 528.582 149.285 525.019 145.498C521.52 141.642 516.806 139.839 510.878 140.089C505.217 140.328 500.737 142.486 497.439 146.562C494.205 150.568 492.719 155.669 492.98 161.863L481.253 154.351C480.955 147.291 482.453 140.889 485.747 135.145C489.041 129.401 493.584 124.772 499.374 121.258C505.231 117.741 511.856 115.827 519.249 115.515C527.709 115.158 534.712 116.664 540.259 120.033C545.872 123.399 550.104 128.025 552.955 133.91C555.806 139.795 557.383 146.334 557.686 153.528L560.68 224.465L533.504 225.612Z" fill="#FFD700"/>
<path d="M658.199 106.303L657.652 82.3089L684.845 81.6887L685.392 105.682L658.199 106.303ZM661.003 229.271L658.541 121.299L685.734 120.679L688.196 228.651L661.003 229.271Z" fill="#FFD700"/>
<path d="M765.301 219.465C754.101 219.561 744.48 217.143 736.438 212.211C728.395 207.28 722.204 200.533 717.864 191.969C713.524 183.406 711.308 173.725 711.216 162.925C711.122 151.992 713.239 142.207 717.565 133.57C721.958 124.932 728.167 118.112 736.191 113.11C744.215 108.108 753.727 105.56 764.727 105.466C777.46 105.357 788.154 108.499 796.809 114.892C805.53 121.218 811.138 129.937 813.633 141.05L786.495 148.482C784.847 142.895 782.01 138.553 777.984 135.454C774.024 132.354 769.544 130.826 764.544 130.868C758.811 130.917 754.123 132.358 750.48 135.189C746.837 137.953 744.169 141.743 742.477 146.558C740.784 151.305 739.963 156.679 740.015 162.679C740.095 172.079 742.227 179.694 746.41 185.525C750.659 191.289 756.884 194.136 765.084 194.066C771.217 194.014 775.871 192.574 779.047 189.747C782.223 186.919 784.589 182.899 786.145 177.686L813.993 183.248C811.024 194.74 805.3 203.623 796.82 209.896C788.34 216.168 777.834 219.358 765.301 219.465Z" fill="#FFD700"/>
<path d="M954.791 219.523C940.394 219.241 928.025 215.865 917.683 209.394C907.408 202.925 899.548 194.002 894.103 182.627C888.725 171.253 886.182 158.1 886.475 143.17C886.767 128.239 889.824 115.197 895.643 104.042C901.53 92.8886 909.733 84.2811 920.254 78.2194C930.842 72.1591 943.334 69.27 957.731 69.5523C974.261 69.8763 988.045 74.2473 999.082 82.6652C1010.19 91.0845 1017.9 102.338 1022.22 116.425L994.681 123.487C992.186 114.703 987.82 107.849 981.582 102.926C975.345 97.9363 967.228 95.3433 957.229 95.1474C948.098 94.9683 940.426 96.8517 934.214 100.797C928.069 104.744 923.391 110.387 920.18 117.726C916.969 125.064 915.265 133.732 915.069 143.73C914.873 153.728 916.236 162.457 919.157 169.916C922.078 177.374 926.531 183.196 932.517 187.381C938.569 191.567 946.161 193.749 955.293 193.928C965.291 194.124 973.504 191.852 979.931 187.11C986.359 182.368 990.991 175.691 993.827 167.078L1021.07 175.214C1016.2 189.121 1008.05 200.064 996.624 208.041C985.266 216.02 971.321 219.848 954.791 219.523Z" fill="#FFD700"/>
<path d="M1066.34 219.765C1058.65 218.951 1052.28 216.801 1047.22 213.315C1042.23 209.77 1038.6 205.397 1036.34 200.196C1034.15 194.936 1033.37 189.323 1034 183.356C1034.53 178.384 1035.77 173.923 1037.73 169.975C1039.69 166.026 1042.52 162.672 1046.24 159.915C1050.02 157.098 1054.91 154.934 1060.9 153.423C1065.03 152.386 1069.91 151.595 1075.53 151.051C1081.15 150.507 1087.5 150.106 1094.56 149.849C1101.64 149.525 1109.42 149.176 1117.9 148.801L1107.59 153.139C1108.26 146.775 1107.23 141.939 1104.5 138.633C1101.77 135.327 1096.82 133.294 1089.66 132.536C1085.68 132.115 1081.44 132.637 1076.92 134.103C1072.41 135.57 1069.03 138.664 1066.79 143.388L1043.15 133.04C1046.81 124.444 1052.68 117.759 1060.76 112.983C1068.84 108.208 1079.35 106.505 1092.27 107.874C1101.75 108.878 1110.02 111.228 1117.07 114.925C1124.12 118.621 1129.15 124.249 1132.17 131.81C1133.87 136.012 1134.71 140.123 1134.69 144.143C1134.67 148.163 1134.39 152.626 1133.87 157.532L1126.92 223.165L1103.26 220.658L1105.59 198.581L1108.49 203.514C1102.49 210.185 1096.26 214.822 1089.82 217.425C1083.45 219.968 1075.63 220.748 1066.34 219.765ZM1074.37 199.095C1079.34 199.622 1083.61 199.202 1087.17 197.837C1090.81 196.412 1093.74 194.678 1095.97 192.634C1098.26 190.598 1099.85 188.856 1100.74 187.408C1102.44 184.639 1103.6 181.342 1104.2 177.518C1104.88 173.635 1105.36 170.4 1105.63 167.815L1113.38 170.646C1105.22 171.122 1098.6 171.561 1093.53 171.963C1088.47 172.298 1084.37 172.669 1081.24 173.075C1078.12 173.481 1075.35 173.992 1072.94 174.609C1070.17 175.388 1067.89 176.32 1066.1 177.404C1064.39 178.429 1063.05 179.629 1062.1 181.003C1061.22 182.384 1060.68 183.97 1060.49 185.76C1060.23 188.213 1060.61 190.398 1061.61 192.314C1062.69 194.171 1064.3 195.683 1066.46 196.85C1068.61 198.017 1071.25 198.765 1074.37 199.095Z" fill="#FFD700"/>
<path d="M1200.29 229.264C1186.79 227.661 1176.23 223.319 1168.61 216.238C1161.06 209.099 1157.06 199.829 1156.6 188.429L1184.7 187.536C1185.23 192.701 1187.25 196.934 1190.75 200.237C1194.32 203.547 1199.08 205.556 1205.04 206.263C1209.94 206.845 1213.82 206.366 1216.69 204.827C1219.56 203.221 1221.2 200.73 1221.6 197.354C1221.86 195.236 1221.53 193.485 1220.62 192.101C1219.71 190.651 1217.48 189.077 1213.93 187.379C1210.43 185.689 1204.94 183.358 1197.44 180.387C1188.96 177.098 1182.28 173.754 1177.38 170.352C1172.48 166.951 1169.1 163.193 1167.24 159.078C1165.38 154.897 1164.78 150.059 1165.44 144.564C1166.25 137.679 1168.71 131.93 1172.82 127.315C1176.93 122.634 1182.33 119.313 1189.01 117.354C1195.76 115.335 1203.47 114.841 1212.14 115.871C1220.55 116.869 1227.85 119.044 1234.03 122.396C1240.21 125.748 1245 130.043 1248.41 135.281C1251.88 140.527 1253.7 146.449 1253.85 153.047L1225.66 154.735C1225.66 150.708 1224.32 147.359 1221.61 144.688C1218.91 142.017 1215.03 140.181 1209.98 139.178C1205.06 138.258 1200.97 138.444 1197.73 139.738C1194.55 141.039 1192.78 143.246 1192.41 146.357C1192.19 148.211 1192.64 149.841 1193.75 151.248C1194.92 152.663 1197.45 154.273 1201.33 156.076C1205.28 157.887 1211.29 160.347 1219.38 163.456C1227.28 166.541 1233.5 169.798 1238.06 173.226C1242.7 176.596 1245.91 180.401 1247.68 184.64C1249.47 188.813 1250.04 193.68 1249.38 199.241C1248.07 210.231 1243.07 218.398 1234.38 223.744C1225.69 229.091 1214.33 230.931 1200.29 229.264Z" fill="#FFD700"/>
<path d="M1290.56 122.003L1294.36 98.3056L1321.22 102.61L1317.42 126.308L1290.56 122.003ZM1271.1 243.453L1288.19 136.814L1315.05 141.119L1297.96 247.758L1271.1 243.453Z" fill="#FFD700"/>
<path d="M1413.35 269.39L1417.81 218.585C1418.02 216.128 1418.17 212.995 1418.23 209.186C1418.31 205.311 1417.81 201.386 1416.76 197.412C1415.7 193.438 1413.69 190.015 1410.73 187.145C1407.84 184.281 1403.5 182.595 1397.73 182.088C1395.4 181.883 1392.88 182.03 1390.16 182.527C1387.44 183.024 1384.82 184.233 1382.31 186.154C1379.81 188.009 1377.61 190.894 1375.73 194.811C1373.91 198.734 1372.71 204.049 1372.12 210.756L1357.23 202.02C1357.97 193.519 1360.4 185.701 1364.51 178.567C1368.61 171.432 1374.32 165.877 1381.63 161.902C1389.01 157.932 1397.97 156.411 1408.53 157.338C1416.97 158.079 1423.72 160.111 1428.78 163.434C1433.84 166.756 1437.64 170.737 1440.18 175.377C1442.78 180.023 1444.5 184.792 1445.34 189.684C1446.19 194.51 1446.58 198.894 1446.5 202.836C1446.42 206.777 1446.3 209.644 1446.14 211.438L1440.84 271.805L1413.35 269.39ZM1339.83 262.931L1349.28 155.345L1373.39 157.463L1370.25 193.126L1373.64 193.423L1367.32 265.346L1339.83 262.931Z" fill="#FFD700"/>
<path d="M1520.04 298.096C1509.24 296.928 1500.02 293.483 1492.4 287.763C1484.77 282.042 1479.12 274.693 1475.47 265.714C1471.89 256.677 1470.69 246.623 1471.89 235.555C1473.1 224.353 1476.49 214.762 1482.05 206.78C1487.61 198.732 1494.73 192.762 1503.4 188.872C1512.06 184.982 1521.7 183.61 1532.31 184.758C1543.11 185.927 1552.33 189.371 1559.96 195.091C1567.65 200.819 1573.32 208.205 1576.97 217.25C1580.63 226.229 1581.86 236.252 1580.66 247.321C1579.45 258.456 1576.07 268.048 1570.5 276.096C1565.01 284.085 1557.9 290.054 1549.15 294.004C1540.49 297.894 1530.78 299.258 1520.04 298.096ZM1522.78 272.844C1531.46 273.783 1538.24 271.566 1543.11 266.192C1548.06 260.759 1551.03 253.436 1552.02 244.224C1553.06 234.679 1551.69 226.82 1547.94 220.647C1544.25 214.481 1538.12 210.935 1529.57 210.01C1523.68 209.372 1518.69 210.174 1514.63 212.417C1510.56 214.659 1507.35 218.033 1504.98 222.538C1502.69 227.051 1501.2 232.422 1500.53 238.652C1499.49 248.263 1500.81 256.151 1504.5 262.317C1508.27 268.424 1514.36 271.933 1522.78 272.844Z" fill="#FFD700"/>
</g>
<path d="M143.139 273.841C128.555 275.392 115.104 273.738 102.788 268.88C90.5906 263.875 80.5921 256.223 72.7927 245.923C64.9932 235.623 60.3534 223.513 58.8731 209.591C57.3928 195.669 59.3822 182.854 64.8414 171.144C70.3005 159.435 78.4733 149.917 89.3598 142.592C100.365 135.12 113.159 130.608 127.744 129.057C140.472 127.704 152.181 128.739 162.869 132.161C173.557 135.583 182.734 141.178 190.398 148.944L167.75 174.281C157.578 164.368 146.062 160.095 133.201 161.462C125.643 162.266 119.058 164.642 113.444 168.591C107.963 172.526 103.889 177.719 101.223 184.171C98.675 190.475 97.8171 197.539 98.6489 205.362C99.4806 213.184 101.812 219.976 105.642 225.736C109.591 231.35 114.659 235.504 120.845 238.199C127.164 240.879 134.102 241.817 141.66 241.014C154.52 239.646 164.881 233.047 172.741 221.216L200.21 241.224C194.351 250.429 186.556 257.827 176.826 263.421C167.096 269.014 155.867 272.488 143.139 273.841Z" fill="url(#paint0_linear_0_1)"/>
<path d="M267.12 246.916C255.561 247.891 244.929 246.379 235.226 242.38C225.522 238.381 217.655 232.354 211.623 224.299C205.725 216.233 202.322 206.819 201.414 196.057C200.518 185.428 202.302 175.644 206.767 166.704C211.364 157.752 218.051 150.565 226.826 145.142C235.723 139.575 246.017 136.298 257.709 135.312C269.401 134.326 280.099 135.833 289.802 139.832C299.495 143.698 307.29 149.664 313.189 157.73C319.076 165.663 322.474 175.011 323.381 185.773C324.289 196.535 322.51 206.386 318.046 215.326C313.581 224.266 306.9 231.519 298.003 237.087C289.106 242.654 278.812 245.93 267.12 246.916ZM264.582 216.823C271.225 216.263 276.482 213.545 280.353 208.669C284.212 203.66 285.8 197.104 285.117 188.999C284.445 181.028 281.793 174.962 277.16 170.804C272.528 166.645 266.89 164.845 260.247 165.406C253.604 165.966 248.347 168.684 244.476 173.559C240.605 178.435 239.006 184.859 239.678 192.831C240.362 200.935 243.025 207.133 247.669 211.425C252.301 215.584 257.939 217.383 264.582 216.823Z" fill="url(#paint1_linear_0_1)"/>
<path d="M385.707 230.263C376.66 230.855 367.68 230.441 358.768 229.02C349.848 227.466 342.618 225.2 337.078 222.222L346.755 195.533C351.878 198.271 357.894 200.349 364.801 201.768C371.7 203.053 378.475 203.478 385.128 203.043C391.248 202.642 395.533 201.76 397.983 200.397C400.556 198.893 401.765 196.943 401.608 194.548C401.451 192.153 399.746 190.595 396.492 189.872C393.362 189.008 388.374 188.333 381.528 187.845C372.81 187.347 365.334 186.433 359.101 185.104C353 183.767 347.602 180.913 342.907 176.544C338.212 172.174 335.59 165.799 335.041 157.417C334.588 150.498 336.25 144.243 340.026 138.651C343.793 132.926 349.502 128.277 357.151 124.703C364.925 120.987 374.334 118.768 385.377 118.045C393.227 117.531 401.062 117.82 408.884 118.911C416.705 120.003 423.306 121.842 428.686 124.43L418.996 150.919C409.068 146.224 398.516 144.243 387.34 144.974C381.353 145.366 377.01 146.385 374.312 148.032C371.605 149.545 370.325 151.433 370.473 153.694C370.639 156.222 372.287 157.918 375.416 158.782C378.537 159.514 383.659 160.18 390.78 160.783C399.781 161.53 407.265 162.577 413.233 163.924C419.2 165.27 424.465 168.132 429.027 172.51C433.714 176.747 436.327 182.989 436.867 191.238C437.311 198.024 435.65 204.279 431.882 210.004C428.106 215.596 422.26 220.187 414.345 223.779C406.562 227.361 397.016 229.523 385.707 230.263Z" fill="url(#paint2_linear_0_1)"/>
<path d="M592.391 107.39C605.712 106.828 616.471 110.377 624.668 118.038C632.998 125.694 637.504 137.581 638.184 153.7L640.798 215.645L602.832 217.247L600.479 161.497C600.159 153.904 598.457 148.37 595.375 144.897C592.425 141.419 588.353 139.789 583.158 140.008C577.429 140.25 572.918 142.442 569.623 146.585C566.328 150.727 564.852 156.862 565.195 164.988L567.463 218.74L529.497 220.342L527.144 164.592C526.52 149.805 520.747 142.642 509.823 143.103C503.961 143.35 499.383 145.545 496.088 149.688C492.793 153.83 491.317 159.965 491.66 168.091L493.929 221.843L455.962 223.445L451.392 115.142L487.56 113.615L488.04 125.005C491.851 120.44 496.443 116.977 501.815 114.615C507.314 112.114 513.328 110.726 519.855 110.451C527.448 110.13 534.301 111.242 540.414 113.787C546.527 116.332 551.569 120.389 555.541 125.96C559.573 120.318 564.791 115.894 571.195 112.688C577.599 109.482 584.664 107.716 592.391 107.39Z" fill="url(#paint3_linear_0_1)"/>
<path d="M654.3 107.99L692.29 107.124L694.761 215.496L656.771 216.362L654.3 107.99ZM673.021 95.5601C666.089 95.7182 660.447 93.9131 656.093 90.1447C651.739 86.3763 649.497 81.6262 649.366 75.8944C649.236 70.1625 651.259 65.3151 655.436 61.3522C659.614 57.3892 665.168 55.3287 672.1 55.1706C679.031 55.0125 684.672 56.751 689.023 60.3861C693.371 63.8879 695.61 68.5047 695.741 74.2365C695.877 80.235 693.859 85.2823 689.684 89.3786C685.507 93.3415 679.952 95.402 673.021 95.5601Z" fill="url(#paint4_linear_0_1)"/>
<path d="M770.128 216.215C758.128 216.317 747.375 214.009 737.868 209.29C728.36 204.571 720.904 197.968 715.498 189.48C710.225 180.992 707.542 171.348 707.45 160.548C707.358 149.748 709.876 140.127 715.004 131.682C720.264 123.104 727.607 116.441 737.034 111.694C746.459 106.813 757.172 104.321 769.171 104.219C781.437 104.114 792.06 106.69 801.038 111.947C810.016 117.07 816.411 124.283 820.224 133.584L790.953 148.834C785.937 139.144 778.696 134.339 769.229 134.419C762.429 134.477 756.782 136.792 752.288 141.364C747.927 145.935 745.78 152.22 745.849 160.22C745.918 168.353 748.173 174.734 752.612 179.363C757.184 183.857 762.87 186.076 769.67 186.018C779.136 185.937 786.294 181.009 791.144 171.234L820.672 185.982C817.018 195.347 810.748 202.734 801.86 208.143C792.972 213.419 782.394 216.11 770.128 216.215Z" fill="url(#paint5_linear_0_1)"/>
<path d="M954.166 218.484C939.502 218.196 926.365 214.872 914.754 208.51C903.279 202.017 894.317 193.173 887.869 181.978C881.42 170.782 878.333 158.186 878.608 144.189C878.882 130.191 882.46 117.726 889.343 106.792C896.225 95.8581 905.525 87.4388 917.243 81.534C929.097 75.4985 942.356 72.6245 957.02 72.9119C969.817 73.1628 981.304 75.6551 991.48 80.3887C1001.66 85.1224 1010.06 91.8217 1016.69 100.487L991.049 122.788C982.198 111.679 971.307 105.998 958.376 105.745C950.778 105.596 943.947 107.129 937.882 110.344C931.952 113.562 927.26 118.204 923.807 124.271C920.49 130.207 918.754 137.108 918.6 144.973C918.446 152.838 919.908 159.868 922.987 166.063C926.203 172.127 930.71 176.883 936.51 180.331C942.444 183.781 949.21 185.58 956.809 185.729C969.739 185.983 980.844 180.733 990.124 169.979L1014.87 193.269C1007.91 201.667 999.246 208.032 988.893 212.363C978.539 216.695 966.964 218.735 954.166 218.484Z" fill="url(#paint6_linear_0_1)"/>
<path d="M1087.23 106.454C1105.1 108.608 1118.24 114.356 1126.65 123.696C1135.07 132.904 1138.27 145.914 1136.25 162.725L1129.04 222.492L1093.9 218.255L1095.57 204.356C1088.88 214.159 1077.66 218.112 1061.91 216.213C1053.57 215.207 1046.53 212.881 1040.79 209.235C1035.05 205.589 1030.89 201.125 1028.31 195.844C1025.87 190.447 1025.03 184.571 1025.8 178.217C1027.03 168.024 1031.88 160.619 1040.36 156.001C1048.86 151.25 1061.25 149.856 1077.53 151.819L1098.97 154.404C1099.68 142.94 1092.76 136.331 1078.2 134.575C1073.04 133.953 1067.7 134.183 1062.2 135.265C1056.71 136.216 1051.94 137.923 1047.88 140.389L1038.26 113.242C1044.7 109.989 1052.28 107.814 1061.01 106.718C1069.88 105.505 1078.62 105.417 1087.23 106.454ZM1075.31 193.654C1079.67 194.18 1083.64 193.584 1087.21 191.865C1090.77 190.146 1093.53 187.323 1095.48 183.394L1096.6 174.062L1080.32 172.099C1069.33 170.775 1063.4 173.753 1062.52 181.033C1062.13 184.343 1063.06 187.142 1065.34 189.431C1067.62 191.719 1070.94 193.127 1075.31 193.654Z" fill="url(#paint7_linear_0_1)"/>
<path d="M1196.71 231.814C1187.69 230.926 1178.9 229.056 1170.34 226.203C1161.79 223.218 1155.02 219.805 1150.04 215.966L1163.93 191.207C1168.54 194.743 1174.14 197.772 1180.72 200.296C1187.32 202.687 1193.94 204.209 1200.57 204.862C1206.68 205.463 1211.05 205.291 1213.69 204.345C1216.47 203.279 1217.98 201.552 1218.21 199.164C1218.45 196.775 1217.02 194.96 1213.93 193.717C1210.98 192.355 1206.17 190.877 1199.49 189.282C1190.97 187.371 1183.74 185.253 1177.81 182.927C1172.01 180.614 1167.15 176.92 1163.23 171.845C1159.3 166.77 1157.76 160.052 1158.58 151.693C1159.26 144.793 1161.92 138.891 1166.55 133.989C1171.2 128.953 1177.59 125.295 1185.72 123.014C1193.99 120.613 1203.64 119.954 1214.65 121.039C1222.48 121.809 1230.16 123.37 1237.7 125.719C1245.24 128.069 1251.46 130.959 1256.34 134.387L1242.47 158.946C1233.44 152.698 1223.35 149.026 1212.2 147.928C1206.23 147.341 1201.78 147.639 1198.85 148.825C1195.94 149.877 1194.37 151.531 1194.14 153.787C1193.9 156.308 1195.25 158.25 1198.19 159.612C1201.15 160.841 1206.1 162.333 1213.03 164.086C1221.79 166.289 1229 168.539 1234.67 170.839C1240.34 173.139 1245.07 176.82 1248.85 181.882C1252.79 186.825 1254.35 193.409 1253.54 201.636C1252.88 208.404 1250.22 214.305 1245.57 219.34C1240.93 224.243 1234.42 227.822 1226.02 230.077C1217.76 232.345 1207.99 232.924 1196.71 231.814Z" fill="url(#paint8_linear_0_1)"/>
<path d="M1284.81 131.04L1322.24 137.561L1303.64 244.353L1266.2 237.832L1284.81 131.04ZM1305.58 122.479C1298.75 121.289 1293.57 118.423 1290.03 113.882C1286.49 109.34 1285.21 104.245 1286.2 98.5969C1287.18 92.9486 1290.1 88.5859 1294.97 85.5088C1299.84 82.4317 1305.69 81.488 1312.52 82.6778C1319.35 83.8677 1324.54 86.6676 1328.11 91.0778C1331.69 95.3566 1332.99 100.32 1332.01 105.968C1330.98 111.879 1328.02 116.439 1323.13 119.648C1318.26 122.725 1312.41 123.668 1305.58 122.479Z" fill="url(#paint9_linear_0_1)"/>
<path d="M1419.26 153.793C1432.5 156.221 1442.4 162.104 1448.96 171.439C1455.65 180.799 1457.54 193.413 1454.63 209.282L1443.45 270.265L1406.07 263.412L1416.13 208.527C1418.8 193.97 1414.3 185.621 1402.63 183.481C1396.2 182.303 1390.64 183.451 1385.93 186.927C1381.36 190.426 1378.31 196.372 1376.77 204.766L1367.32 256.306L1329.94 249.453L1349.49 142.831L1385.1 149.359L1382.97 160.966C1387.96 157.407 1393.54 155.042 1399.72 153.871C1405.92 152.568 1412.44 152.542 1419.26 153.793Z" fill="url(#paint10_linear_0_1)"/>
<path d="M1520.19 296.837C1508.66 295.59 1498.51 292.078 1489.75 286.302C1480.99 280.526 1474.41 273.109 1470.03 264.052C1465.78 255.009 1464.23 245.118 1465.39 234.381C1466.54 223.776 1470.16 214.512 1476.25 206.587C1482.47 198.677 1490.4 192.897 1500.05 189.247C1509.84 185.478 1520.58 184.225 1532.24 185.487C1543.91 186.749 1554.12 190.268 1562.88 196.044C1571.66 201.688 1578.17 209.031 1582.43 218.074C1586.69 226.984 1588.25 236.808 1587.08 247.546C1585.92 258.283 1582.3 267.614 1576.21 275.539C1570.12 283.463 1562.18 289.31 1552.39 293.078C1542.59 296.846 1531.86 298.099 1520.19 296.837ZM1523.44 266.813C1530.07 267.53 1535.75 265.864 1540.48 261.816C1545.22 257.635 1548.03 251.502 1548.91 243.416C1549.77 235.462 1548.32 229.002 1544.57 224.036C1540.81 219.07 1535.62 216.229 1528.99 215.512C1522.36 214.795 1516.69 216.46 1511.96 220.509C1507.23 224.557 1504.43 230.558 1503.57 238.511C1502.7 246.597 1504.13 253.19 1507.87 258.288C1511.62 263.254 1516.81 266.096 1523.44 266.813Z" fill="url(#paint11_linear_0_1)"/>
<defs>
<filter id="filter0_f_0_1" x="0.944824" y="18.1843" width="1635.84" height="335.806" filterUnits="userSpaceOnUse" color-interpolation-filters="sRGB">
<feFlood flood-opacity="0" result="BackgroundImageFix"/>
<feBlend mode="normal" in="SourceGraphic" in2="BackgroundImageFix" result="shape"/>
<feGaussianBlur stdDeviation="25" result="effect1_foregroundBlur_0_1"/>
</filter>
<linearGradient id="paint0_linear_0_1" x1="112.585" y1="79.1807" x2="138.385" y2="321.813" gradientUnits="userSpaceOnUse">
<stop stop-color="#FFF7CA"/>
<stop offset="1" stop-color="#FFD700"/>
</linearGradient>
<linearGradient id="paint1_linear_0_1" x1="251.067" y1="51.7751" x2="271.568" y2="294.912" gradientUnits="userSpaceOnUse">
<stop stop-color="#FFF7CA"/>
<stop offset="1" stop-color="#FFD700"/>
</linearGradient>
<linearGradient id="paint2_linear_0_1" x1="376.311" y1="34.659" x2="392.248" y2="278.138" gradientUnits="userSpaceOnUse">
<stop stop-color="#FFF7CA"/>
<stop offset="1" stop-color="#FFD700"/>
</linearGradient>
<linearGradient id="paint3_linear_0_1" x1="540.001" y1="25.7261" x2="550.288" y2="269.509" gradientUnits="userSpaceOnUse">
<stop stop-color="#FFF7CA"/>
<stop offset="1" stop-color="#FFD700"/>
</linearGradient>
<linearGradient id="paint4_linear_0_1" x1="671.643" y1="21.9724" x2="677.206" y2="265.909" gradientUnits="userSpaceOnUse">
<stop stop-color="#FFF7CA"/>
<stop offset="1" stop-color="#FFD700"/>
</linearGradient>
<linearGradient id="paint5_linear_0_1" x1="761.356" y1="20.4825" x2="763.44" y2="264.474" gradientUnits="userSpaceOnUse">
<stop stop-color="#FFF7CA"/>
<stop offset="1" stop-color="#FFD700"/>
</linearGradient>
<linearGradient id="paint6_linear_0_1" x1="948.225" y1="21.5297" x2="943.443" y2="265.483" gradientUnits="userSpaceOnUse">
<stop stop-color="#FFF7CA"/>
<stop offset="1" stop-color="#FFD700"/>
</linearGradient>
<linearGradient id="paint7_linear_0_1" x1="1101.82" y1="23.8068" x2="1072.62" y2="266.053" gradientUnits="userSpaceOnUse">
<stop stop-color="#FFF7CA"/>
<stop offset="1" stop-color="#FFD700"/>
</linearGradient>
<linearGradient id="paint8_linear_0_1" x1="1219.28" y1="37.289" x2="1195.37" y2="280.115" gradientUnits="userSpaceOnUse">
<stop stop-color="#FFF7CA"/>
<stop offset="1" stop-color="#FFD700"/>
</linearGradient>
<linearGradient id="paint9_linear_0_1" x1="1318.51" y1="50.0218" x2="1276.64" y2="290.402" gradientUnits="userSpaceOnUse">
<stop stop-color="#FFF7CA"/>
<stop offset="1" stop-color="#FFD700"/>
</linearGradient>
<linearGradient id="paint10_linear_0_1" x1="1421.78" y1="69.0583" x2="1377.77" y2="309.058" gradientUnits="userSpaceOnUse">
<stop stop-color="#FFF7CA"/>
<stop offset="1" stop-color="#FFD700"/>
</linearGradient>
<linearGradient id="paint11_linear_0_1" x1="1541.65" y1="102.216" x2="1515.41" y2="344.801" gradientUnits="userSpaceOnUse">
<stop stop-color="#FFF7CA"/>
<stop offset="1" stop-color="#FFD700"/>
</linearGradient>
</defs>
</svg>
